<?xml version="1.0" encoding="UTF-8"?>
<svg width="244px" height="201px" viewBox="0 0 244 201" version="1.1" xmlns="http://www.w3.org/2000/svg" xmlns:xlink="http://www.w3.org/1999/xlink">
    <title>Group 9</title>
    <defs>
        <polygon id="path-1" points="59.2535268 98.6916326 0.214963058 96.5197393 3.7805761 0.42589676 62.8191398 2.59779003"></polygon>
        <polygon id="path-3" points="26.8833472 128.431483 0.0710650069 127.494389 5.10716459 0.437585973 31.9194467 1.37468046"></polygon>
    </defs>
    <g id="Page-1" stroke="none" stroke-width="1" fill="none" fill-rule="evenodd">
        <g id="Home" transform="translate(-598.000000, -1709.000000)">
            <g id="Group-8" transform="translate(270.000000, 1575.000000)">
                <g id="Group-6" transform="translate(328.000000, 134.000000)">
                    <path d="M85.4206708,107.973448 C86.2388789,103.828302 90.739024,100.9267 93.6027526,98.8541276 L106.284979,88.9057783 L98.5120017,82.2735454 C92.7845444,90.1493219 96.0573772,99.6831567 104.648563,103.413788 C108.3305,105.071846 112.012437,100.9267 111.194229,97.1960694 C109.557812,88.0767491 96.8755853,90.1493219 90.3299199,91.3928656 C83.7842544,92.6364093 86.2388789,102.999273 92.7845444,101.75573 C94.8300649,101.341215 96.4664813,100.9267 98.5120017,100.9267 L100.148418,100.9267 C102.193939,101.341215 102.603043,100.9267 100.966626,99.6831567 L107.512292,93.4654384 C105.057667,92.2218947 105.875875,89.7348074 107.103188,88.0767491 C110.785124,83.1025745 103.421251,77.7138852 99.3302099,81.4445162 C90.3299199,88.4912637 76.8294848,95.5380112 74.7839644,107.973448 C73.9657562,114.191166 84.1933585,114.605681 85.4206708,107.973448 M103.012147,100.512186 C104.648563,102.999273 106.694084,105.071846 108.739604,107.558933 C110.785124,109.631506 113.239749,112.533108 115.694374,113.776652 C118.558102,115.020195 121.421831,114.191166 123.058247,112.118593 C124.694664,110.460535 124.694664,107.558933 126.740184,106.31539 C129.194809,104.657331 130.422121,101.75573 128.785705,99.2686422 C127.558392,96.7815548 123.876455,95.5380112 121.830935,97.1960694 C120.194519,98.4396131 118.558102,99.6831567 117.33079,101.341215 L116.103478,103.828302 C115.694374,104.657331 114.876165,105.486361 116.512582,104.657331 C117.33079,104.657331 118.148998,104.242817 119.37631,104.242817 L118.558102,104.242817 L121.012727,105.071846 C116.921686,102.584759 113.648853,98.0250985 110.785124,93.8799529 C109.148708,91.3928656 105.466771,91.8073802 103.421251,93.4654384 C100.966626,95.1234966 101.37573,98.4396131 103.012147,100.512186 M122.649143,107.144419 L125.921976,134.502379 L136.149578,132.015292 L135.740474,130.771748 C133.694954,124.139516 123.467351,126.626603 125.512872,133.258836 L125.921976,134.502379 C127.967496,141.134612 136.967786,138.647525 136.149578,132.015292 C134.922266,122.895972 133.694954,113.776652 132.876745,104.657331 C132.058537,98.0250985 121.830935,100.512186 122.649143,107.144419 M117.739894,116.263739 C121.830935,121.652428 125.103768,127.870147 127.558392,134.502379 C129.194809,138.647525 134.513162,137.818496 136.558682,134.916894 C137.37689,133.67335 137.785995,132.429807 137.785995,130.771748 C137.785995,124.139516 127.149288,123.725001 127.149288,130.357234 L127.558392,129.11369 L136.558682,129.528205 C133.694954,122.066943 129.603913,115.43471 125.103768,109.216992 C123.467351,106.729904 119.785415,107.144419 117.739894,108.802477 C115.694374,110.87505 116.103478,114.191166 117.739894,116.263739 M127.967496,115.43471 C130.422121,121.652428 131.240329,127.870147 131.240329,134.502379 L140.240619,131.186263 C135.740474,127.041117 134.922266,120.408885 130.013017,116.678254 C128.3766,115.43471 126.33108,115.43471 124.694664,116.678254 C118.967206,119.579855 120.194519,127.870147 121.421831,133.258836 C123.058247,141.549127 125.921976,149.424904 125.921976,158.129709 C126.33108,164.347428 133.694954,165.176457 136.149578,159.787767 C139.422411,152.74102 140.649723,145.279758 141.877035,137.403981 C138.604203,137.818496 134.922266,138.23301 131.649433,138.23301 C132.467641,146.108787 131.240329,153.984564 127.558392,161.031311 L134.922266,159.373253 C134.513162,158.958738 134.104058,158.544224 133.694954,158.544224 C128.3766,154.399078 122.649143,163.518398 127.967496,167.663544 C128.3766,168.078059 128.785705,168.492573 129.194809,168.492573 C131.240329,170.150631 135.33137,169.321602 136.558682,166.834515 C141.877035,157.30068 143.513452,146.937816 142.28614,135.745923 C141.467931,129.11369 132.876745,131.600778 132.058537,136.574952 C130.831225,143.207185 129.603913,149.839418 126.740184,156.057136 L136.967786,157.715195 C136.558682,151.911991 136.149578,146.108787 134.513162,140.305583 C133.28585,135.331409 129.603913,127.870147 131.649433,122.895972 L129.194809,125.797574 L130.013017,125.383059 L124.694664,125.383059 C126.33108,126.626603 127.149288,130.357234 128.3766,132.015292 C129.603913,134.087865 131.240329,136.160438 132.876745,137.818496 C136.149578,140.720098 141.877035,139.476554 141.877035,134.502379 C142.28614,125.797574 140.649723,117.921797 137.37689,110.046021 C134.513162,104.242817 125.512872,109.216992 127.967496,115.43471 M82.147838,158.129709 C82.5569421,153.984564 79.2841094,151.082962 75.6021725,150.668447 L75.1930685,161.445826 L78.8750053,161.86034 L73.9657562,156.471651 C73.147548,163.518398 73.9657562,170.150631 76.8294848,176.782864 C79.6932135,183.000583 88.6935035,178.026408 86.2388789,171.80869 C84.1933585,167.249029 83.7842544,162.274855 84.6024626,156.886166 C85.0115667,153.984564 82.147838,151.497476 79.6932135,151.497476 L76.0112766,151.082962 C69.4656112,150.253933 69.0565071,161.031311 75.6021725,161.86034 L76.4203807,161.86034 L73.9657562,161.031311 L73.147548,160.202282 C72.7384439,159.373253 72.7384439,158.544224 72.3293398,157.30068 L72.3293398,158.129709 C70.6929234,164.761942 81.3296298,165.176457 82.147838,158.129709 M69.0565071,160.616797 C70.6929234,166.42 77.2385889,180.098981 84.6024626,171.80869 C85.0115667,171.394175 85.4206708,171.394175 85.4206708,170.97966 C85.0115667,171.80869 80.9205257,169.321602 80.5114217,170.565146 C80.1023176,171.394175 81.7387339,179.269952 81.7387339,179.684466 C82.9660462,186.316699 89.1026076,189.218301 94.8300649,190.876359 L95.239169,180.513495 C90.739024,180.92801 87.4661912,178.440922 85.4206708,174.710291 L76.8294848,180.92801 C87.8752953,194.60699 106.694084,202.897281 121.830935,190.876359 C125.512872,187.974757 122.649143,182.171553 118.558102,181.757039 C116.103478,181.342524 113.648853,181.342524 111.194229,181.342524 C104.648563,181.342524 104.239459,191.705388 110.785124,192.119903 C113.239749,192.119903 115.694374,192.119903 118.148998,192.534417 L114.876165,183.415097 C104.239459,191.705388 91.5572321,183.000583 84.6024626,174.295777 C80.5114217,169.321602 73.5566521,175.124806 76.0112766,180.513495 C80.1023176,188.803786 88.2843994,192.948932 97.2846894,191.705388 C102.603043,190.876359 102.193939,183.000583 97.6937935,181.342524 C94.4209608,180.513495 91.9663362,180.098981 91.1481281,176.36835 C90.739024,173.881262 90.739024,170.97966 89.9208158,168.492573 C89.1026076,165.176457 87.0570871,161.86034 83.3751503,161.445826 C80.9205257,161.445826 78.4659012,162.689369 77.2385889,164.347428 C74.7839644,167.249029 83.3751503,168.492573 82.5569421,165.590971 L78.8750053,158.958738 C77.647693,151.497476 67.4200907,153.984564 69.0565071,160.616797 M100.966626,191.705388 C109.557812,192.534417 115.694374,191.290874 121.830935,184.658641 C127.967496,178.026408 134.513162,171.80869 137.785995,163.103884 C140.240619,156.886166 130.013017,153.570049 127.967496,159.787767 C125.512872,166.005486 120.603623,170.565146 116.512582,175.124806 C114.876165,177.197379 112.830645,179.684466 110.37602,180.92801 C107.921396,181.757039 104.648563,181.342524 101.784834,180.92801 C94.4209608,180.513495 94.0118567,191.290874 100.966626,191.705388 M131.240329,160.202282 C132.876745,169.321602 122.649143,178.026408 117.33079,184.244126 C112.830645,189.218301 120.194519,197.094078 124.28556,192.119903 C132.467641,182.171553 143.513452,172.223204 141.058827,157.715195 C140.240619,151.082962 130.013017,153.570049 131.240329,160.202282 M155.377471,80.6154871 L154.559262,79.786458 L164.377761,77.2993707 C162.33224,74.3977688 160.695824,72.325196 157.832095,70.2526232 L157.422991,79.3719435 C164.786865,75.6413124 168.468801,66.9365068 172.968947,59.8897593 C175.014467,56.9881574 177.059987,51.1849536 180.33282,49.1123808 C183.196549,47.039808 185.242069,47.4543226 187.696694,44.1382061 C189.742214,41.2366043 188.105798,37.0914587 184.832965,36.2624296 C181.969237,35.4334005 179.514612,35.4334005 176.650883,36.6769441 C175.014467,37.5059732 174.196259,39.578546 173.787155,41.2366043 C173.787155,43.309177 174.196259,44.5527207 175.423571,46.2107789 C177.469092,48.2833517 177.878196,48.6978663 179.105508,51.5994682 C180.741924,56.1591283 185.651173,59.4752447 186.469382,63.6203903 C187.696694,70.2526232 197.924296,67.7655359 196.696984,61.133303 C195.878776,55.7446137 191.787735,53.2575264 189.742214,49.1123808 C188.924006,47.039808 188.514902,44.5527207 187.28759,42.8946625 C186.060277,41.2366043 184.423861,39.9930606 182.787445,38.7495169 L184.014757,42.4801479 L184.014757,41.6511188 C183.196549,43.309177 182.378341,44.5527207 181.151028,46.2107789 L181.151028,46.6252935 L178.2873,38.7495169 C178.2873,39.1640315 173.787155,40.4075751 172.559842,41.6511188 C170.105218,43.7236916 168.468801,47.039808 166.832385,49.9414099 L159.877616,61.133303 C157.832095,64.4494194 155.786575,68.594565 152.513742,70.2526232 C148.831805,72.325196 149.240909,76.8848561 152.104638,79.3719435 C153.33195,80.2009726 154.150158,81.4445162 154.968366,82.6880599 C157.422991,86.8332055 164.786865,86.0041764 164.786865,80.2009726 C164.786865,75.2267979 162.33224,72.325196 158.241199,70.6671378 C152.513742,68.1800504 149.240909,78.1283998 155.377471,80.6154871 M190.560422,56.5736428 C190.560422,58.6462156 190.969527,66.1074776 189.742214,67.3510213 L193.424151,66.1074776 C188.514902,66.5219922 185.242069,56.1591283 184.014757,52.4284973 C182.787445,48.6978663 178.2873,46.6252935 175.423571,49.9414099 C172.559842,52.8430118 171.741634,56.5736428 169.696114,59.8897593 C166.832385,64.0349049 162.33224,67.7655359 158.650303,71.4961669 C153.741054,76.4703416 161.104928,83.9316036 165.605073,79.3719435 C169.28701,75.6413124 172.968947,72.325196 176.241779,68.1800504 C178.696404,65.2784485 179.923716,60.3042739 182.378341,57.8171865 L173.787155,55.3300992 C176.241779,63.6203903 180.741924,74.3977688 190.151318,76.8848561 C200.788025,79.786458 200.788025,64.4494194 200.788025,57.402672 C200.788025,50.3559245 190.560422,49.9414099 190.560422,56.5736428 M177.878196,69.4235941 C184.423861,82.2735454 184.832965,96.3670403 185.242069,110.460535 C188.514902,110.046021 192.196839,109.631506 195.469672,109.631506 C193.015047,102.170244 192.196839,94.708982 192.196839,86.4186909 C192.196839,79.786458 191.787735,73.5687397 189.33311,67.3510213 C187.28759,62.3768466 179.514612,64.4494194 179.514612,69.8381087 C179.105508,78.9574289 179.514612,88.4912637 179.514612,97.6105839 C179.514612,106.31539 179.105508,115.43471 180.33282,123.725001 C181.560132,130.357234 191.378631,127.870147 190.560422,121.237914 C189.33311,112.947623 190.151318,104.242817 190.151318,95.9525257 C190.151318,87.24772 189.742214,78.9574289 190.151318,70.2526232 L180.33282,72.7397106 C183.196549,78.9574289 181.969237,85.5896618 181.969237,92.2218947 C182.378341,99.2686422 183.605653,105.900875 185.651173,112.118593 C187.28759,117.507283 195.878776,117.507283 195.878776,111.289564 C195.469672,95.1234966 195.060567,78.9574289 187.28759,64.863934 C184.014757,58.2317011 175.014467,63.2058758 177.878196,69.4235941 M184.423861,173.466748 L196.28788,173.881262 C202.833545,174.295777 203.242649,163.518398 196.696984,163.103884 L184.832965,162.689369 C178.2873,162.689369 177.878196,173.466748 184.423861,173.466748 M192.605943,81.0300017 C199.151608,81.4445162 199.560713,70.6671378 193.015047,70.2526232 C186.469382,69.8381087 186.060277,80.6154871 192.605943,81.0300017 M195.878776,171.80869 C202.424441,172.223204 202.833545,161.445826 196.28788,161.031311 C189.742214,161.031311 189.33311,171.394175 195.878776,171.80869 M190.969527,80.6154871 C188.514902,109.631506 186.060277,139.06204 190.969527,168.078059 C191.378631,170.97966 194.651463,172.223204 197.106088,171.80869 C207.33369,170.565146 203.651753,154.813593 202.833545,148.18136 C201.197129,137.818496 197.515192,127.870147 190.151318,120.408885 C187.696694,117.921797 182.378341,118.336312 181.151028,122.481457 C179.514612,129.11369 178.696404,136.160438 179.105508,143.207185 C179.514612,149.839418 189.33311,150.668447 189.742214,143.6217 C189.742214,134.916894 189.33311,126.212088 188.105798,117.921797 C187.28759,111.289564 177.059987,113.776652 177.878196,120.408885 C179.105508,127.870147 179.514612,135.745923 179.514612,143.207185 L190.151318,143.6217 C189.742214,137.403981 190.151318,131.600778 191.787735,125.797574 C188.924006,126.626603 186.060277,127.041117 182.787445,127.870147 C187.696694,132.429807 190.151318,138.23301 191.787735,144.865243 C192.605943,147.766845 193.015047,150.668447 193.424151,153.570049 C193.833255,155.228107 193.833255,156.886166 194.242359,158.958738 L194.242359,160.616797 C193.833255,162.274855 194.242359,162.689369 195.060567,161.86034 C197.106088,163.103884 199.151608,164.347428 201.197129,166.005486 C196.696984,137.818496 199.151608,109.631506 201.606233,81.4445162 C202.015337,74.3977688 191.378631,73.9832542 190.969527,80.6154871 M177.469092,145.279758 C178.2873,152.74102 178.696404,159.787767 178.696404,167.249029 C178.696404,170.565146 181.560132,173.881262 185.242069,172.637719 C193.424151,170.150631 195.060567,157.30068 195.469672,149.839418 C195.878776,143.207185 185.242069,142.792671 184.832965,149.424904 C184.832965,151.911991 184.423861,154.399078 184.014757,156.886166 C184.014757,157.715195 181.969237,162.689369 182.787445,162.689369 C184.832965,164.347428 186.878486,166.42 189.33311,168.078059 C189.33311,159.787767 188.924006,151.497476 187.696694,143.207185 C186.878486,136.160438 176.650883,138.647525 177.469092,145.279758 M181.560132,173.466748 C188.105798,173.881262 188.514902,163.103884 181.969237,162.689369 C175.423571,162.689369 175.014467,173.052233 181.560132,173.466748 M190.969527,76.055827 C190.560422,73.5687397 189.742214,71.0816523 188.514902,69.0090795 C187.696694,66.9365068 184.832965,65.6929631 182.787445,66.5219922 C180.33282,67.3510213 179.105508,69.0090795 178.696404,71.4961669 C178.2873,73.9832542 178.2873,76.4703416 178.2873,78.9574289 C178.2873,81.8590308 180.33282,84.3461181 183.196549,84.3461181 C186.060277,84.3461181 188.514902,82.2735454 188.514902,79.3719435 C188.514902,76.8848561 188.514902,74.3977688 188.924006,71.9106814 L179.105508,74.3977688 L179.923716,75.6413124 L179.923716,76.055827 C180.33282,76.8848561 180.33282,77.7138852 180.741924,78.9574289 C181.151028,81.8590308 184.423861,83.517089 186.878486,83.1025745 C189.742214,81.4445162 191.378631,78.9574289 190.969527,76.055827" id="Shape" fill="#5AB1BC" fill-rule="nonzero"></path>
                    <g id="Group" opacity="0.51" transform="translate(82.157676, 101.244813)">
                        <g id="Clipped">
                            <mask id="mask-2" fill="white">
                                <use xlink:href="#path-1"></use>
                            </mask>
                            <g id="a"></g>
                            <path d="M47.2918727,2.04238221 C47.2918727,2.04238221 54.7809083,7.01618358 57.693311,21.9375877 C58.5254261,26.0824222 60.1896562,35.201058 60.6057137,41.8327932 C61.8538863,56.7541973 59.3575411,62.9714491 57.693311,69.1887008 C56.0290809,75.4059525 52.2845631,80.7942373 48.1239878,84.9390718 C21.0802483,113.53843 0.277371688,84.9390718 0.277371688,84.9390718 C0.277371688,84.9390718 10.67881,89.9128732 21.9123633,89.4983897 C33.1459167,89.0839063 38.5546646,85.3535552 44.7955275,78.3073366 C51.0363905,71.261118 56.861196,55.0962635 53.9487932,35.6155415 C50.2042755,8.67411737 47.2918727,2.04238221 47.2918727,2.04238221" id="Path" fill="#337384" fill-rule="nonzero" mask="url(#mask-2)"></path>
                        </g>
                    </g>
                    <g id="Group" opacity="0.51" transform="translate(181.742739, 46.473029)">
                        <g id="Clipped">
                            <mask id="mask-4" fill="white">
                                <use xlink:href="#path-3"></use>
                            </mask>
                            <g id="c"></g>
                            <polygon id="Path" fill="#337384" fill-rule="nonzero" mask="url(#mask-4)" points="10.2268326 5.36662042 17.7040111 90.4069132 16.824343 120.542551 0.110650069 125.496354 26.9405256 128.386073 26.5006916 117.652832 18.1438451 49.1252177 24.3015214 6.19225433 24.3015214 1.23845087 16.824343 11.1460578"></polygon>
                        </g>
                    </g>
                    <path d="M193.726574,35.6494271 C195.803632,32.3387301 201.203983,22.406639 201.203983,22.406639 C201.203983,22.406639 203.281042,30.2695444 206.188923,35.23559 C208.681393,39.3739613 210.758451,43.0984954 210.758451,43.0984954 L207.850569,45.9953553 C207.019746,46.8230296 206.188923,48.4783781 205.773511,48.8922152 L205.773511,53.8582608 L204.942688,65.8595375 C204.942688,67.9287232 204.527276,71.6532573 204.527276,71.6532573 C207.435158,70.8255831 211.173862,69.1702345 214.497155,68.3425603 C215.327978,74.1362801 215.74339,78.6884885 216.574213,83.654534 L219.897506,103.518716 C220.312918,104.760228 220.728329,106.001739 221.559153,107.24325 C224.882446,111.381622 223.220799,118.003016 216.989625,118.83069 C214.081744,119.244527 212.420097,117.175341 210.758451,115.93383 C208.265981,116.347667 206.188923,117.175341 204.111865,117.589179 C204.111865,122.141387 207.019746,159.800566 207.019746,166.008123 C207.019746,169.732657 207.435158,176.767888 207.435158,176.767888 C204.527276,178.009399 177.11011,178.423237 177.11011,178.423237 C176.279286,174.698702 176.279286,163.5251 176.694698,159.800566 C177.940933,134.142664 177.940933,123.382898 177.525521,121.72755 C177.525521,115.519993 177.940933,108.898599 177.525521,102.691042 L177.525521,97.3111593 L172.540582,91.9312766 L175.033052,87.7929053 C175.033052,87.7929053 176.694698,89.862091 177.940933,91.1036024 C177.525521,84.4822083 177.11011,78.6884885 176.694698,72.4809316 C174.61764,74.9639543 165.063173,88.2067425 162.570703,91.9312766 C162.570703,91.9312766 151.354589,82.8268598 147.615885,79.5161628 C145.538827,77.4469771 145.538827,77.4469771 147.615885,75.3777915 C150.523766,72.0670944 153.431647,68.7563974 156.339529,65.0318633 C159.24741,60.893492 173.371405,42.2708212 177.525521,37.3047756 C178.356345,36.4771014 180.017991,35.23559 180.433403,35.23559 L193.726574,35.6494271 L193.726574,35.6494271 Z M196.634456,61.7211662 C195.803632,60.4796548 194.972809,57.5827949 192.064928,52.2029123 C189.98787,48.4783781 185.833754,44.3400068 185.833754,44.3400068 C185.833754,44.3400068 188.741635,41.8569841 189.98787,40.2016355 C184.172107,38.546287 179.602579,39.3739613 179.602579,39.3739613 C176.279286,43.5123326 156.339529,70.8255831 152.185413,76.2054657 L161.73988,85.7237197 C166.724819,78.6884885 171.294347,72.4809316 175.448463,66.2733746 C175.863875,65.4457004 177.11011,64.204189 177.525521,64.6180261 C178.356345,65.0318633 179.187168,66.2733746 180.017991,67.1010489 C180.433403,67.514886 180.848814,82.8268598 181.264226,89.4482538 L181.264226,92.3451138 C181.264226,99.3803449 181.679637,127.935107 181.679637,130.831967 L181.679637,170.146494 C181.679637,170.974168 181.679637,171.801842 182.095049,172.629517 L203.281042,172.21568 C203.281042,170.560331 203.696453,169.31882 203.281042,168.077308 C202.86563,165.180448 201.619395,150.696149 201.203983,146.14394 C200.788572,142.419406 199.542337,117.589179 199.126925,108.898599 L198.711514,77.4469771 C197.049867,78.2746514 192.48034,80.343837 192.48034,80.343837 L191.234105,75.3777915 C191.234105,75.3777915 196.219044,73.722443 199.126925,72.4809316 C199.957749,66.6872118 200.37316,60.893492 201.203983,54.685935 C199.542337,57.9966321 200.37316,57.5827949 196.634456,61.7211662 M211.173862,72.8947687 L203.696453,75.3777915 C203.696453,75.3777915 203.281042,81.1715113 203.281042,82.8268598 C203.696453,89.862091 203.281042,92.7589509 203.281042,100.208019 L203.696453,112.623133 C205.773511,112.209296 207.850569,111.795459 210.343039,110.967785 C211.173862,108.898599 212.420097,106.415576 215.74339,105.587902 C214.081744,94.8281365 212.835509,84.0683712 211.173862,72.8947687" id="Shape" fill="#000000" fill-rule="nonzero"></path>
                    <path d="M243.752674,132.845751 C242.91713,133.62161 240.828271,137.888837 235.81501,132.845751 L218.268597,120.04407 C217.850826,119.65614 216.59751,119.26821 216.59751,118.492351 C216.59751,117.328562 219.104141,117.328562 220.775228,115.776843 C222.446315,113.837194 222.864086,111.509616 225.788489,113.837194 C227.041804,115.000984 231.219521,118.492351 234.143923,120.819929 C234.979467,121.595789 235.81501,122.371648 237.068326,122.759578 C238.739413,123.535437 240.828271,124.311297 241.663815,125.475086 L242.499358,128.966453 C242.91713,130.906102 244.588217,132.069891 243.752674,132.845751" id="Path" fill="#5AB1BC" fill-rule="nonzero"></path>
                    <path d="M140.652844,114.682346 C138.989691,109.321241 135.663385,104.784922 132.752868,99.8362101 C130.673927,96.5370688 129.426562,95.2998908 127.347621,92.4131421 C127.347621,92.4131421 131.505503,86.2272522 132.33708,85.8148595 C132.33708,85.8148595 129.010774,81.6909329 126.931832,78.8041842 C122.77395,73.0306869 119.863432,65.1952263 119.863432,65.1952263 C119.863432,65.1952263 114.458185,73.0306869 111.547668,78.3917915 C109.052938,77.5670062 107.805574,77.5670062 104.479268,77.5670062 C104.479268,77.5670062 86.6003736,77.9793989 75.3740913,99.0114247 L70.3846325,110.146027 C66.6425383,110.146027 57.4951972,107.671671 57.4951972,110.970812 C57.0794089,115.094739 57.4951972,119.631058 57.9109854,123.754985 C52.9215266,123.754985 48.347856,124.167377 43.7741854,124.167377 C43.3583972,123.342592 41.279456,109.733634 41.279456,103.547744 C41.279456,101.485781 41.279456,99.0114247 39.6163031,98.1866394 C37.9531501,97.3618541 23.4005619,97.7742467 22.5689854,96.9494614 C21.7374089,96.1246761 21.7374089,86.2272522 21.3216207,81.2785402 C20.9058325,76.3298282 20.9058325,58.184551 20.4900442,51.9986611 C20.4900442,50.7614831 21.3216207,45.8127711 17.9953148,45.8127711 C15.9163736,45.8127711 7.60060894,45.4003784 6.35324423,45.8127711 L6.35324423,22.3063893 L6.76903247,9.93460935 C6.76903247,7.04786071 7.18482071,3.7487194 6.76903247,0.861970751 C6.76903247,0.0371854233 0.532208941,-0.375207241 0.116420706,0.449578087 C-0.299367529,2.09914874 0.532208941,11.1717873 0.532208941,14.8833213 C0.116420706,21.8939966 0.947997176,31.3790279 0.947997176,38.3897032 C0.947997176,42.1012371 0.116420706,50.3490904 1.36378541,50.7614831 C2.19536188,51.1738757 11.3427031,51.1738757 16.3321619,51.9986611 C16.7479501,53.6482317 17.1637384,71.7935089 17.5795266,79.6289695 C17.9953148,85.8148595 17.1637384,101.073388 18.4111031,101.898173 L37.1215736,101.898173 C36.7057854,110.558419 38.7847266,127.054126 38.7847266,129.116089 C40.0320913,129.528482 41.279456,129.528482 42.5268207,129.528482 C46.6847031,129.528482 58.7425619,129.116089 58.7425619,129.116089 C58.7425619,129.116089 59.1583501,144.374618 58.7425619,149.735722 C58.7425619,151.797686 60.4057148,151.385293 62.484656,151.797686 C64.9793854,152.210078 66.6425383,152.210078 67.8899031,152.210078 C67.8899031,154.684434 67.8899031,154.684434 68.3056913,156.334005 C68.7214795,161.282717 69.553056,167.881 73.2951501,177.778424 C78.7003972,193.036952 92.8371972,197.160879 102.400327,198.810449 C110.716091,200.047627 117.784491,197.985664 124.852891,194.27413 C139.40548,184.789099 145.226515,167.468607 146.058091,157.571183 C145.642303,142.725047 146.058091,127.878911 140.652844,114.682346 M62.0688678,147.673759 C61.6530795,136.95155 62.9004442,125.816948 62.484656,114.682346 C63.7320207,115.094739 66.2267501,114.682346 67.4741148,114.682346 C67.8899031,119.631058 67.0583266,124.992163 67.0583266,129.940875 L67.0583266,147.261366 C67.0583266,147.261366 64.5635972,148.086152 62.0688678,147.673759 M114.042397,85.4024668 C114.873974,83.3405035 115.70555,81.6909329 116.537127,80.0413622 C117.368703,78.3917915 118.20028,77.1546136 119.031856,75.9174356 L124.437103,87.0520375 L118.20028,96.1246761 C116.121338,93.2379274 114.042397,90.3511788 111.963456,86.6396448 C112.795032,86.2272522 113.626609,85.8148595 114.042397,85.4024668 M73.2951501,115.094739 L85.3530089,115.507131 L85.3530089,118.806273 C81.6109148,119.218665 77.4530325,119.631058 73.2951501,120.043451 L73.2951501,115.094739 L73.2951501,115.094739 Z M72.0477854,127.054126 L84.5214325,127.054126 L84.5214325,132.002838 C84.5214325,132.002838 77.8688207,131.590445 76.2056678,131.590445 L71.6319972,131.590445 L72.0477854,127.054126 M139.821268,167.056214 C138.573903,172.417319 133.168656,182.727135 128.179197,186.438669 C123.189738,190.150203 111.963456,196.336093 102.816115,195.511308 C98.6582325,195.098915 88.6793148,191.799774 83.689856,185.613884 C78.2846089,179.427994 74.9583031,174.479282 72.4635736,164.581858 C72.0477854,160.870324 72.0477854,157.15879 71.6319972,153.034864 C75.7898795,152.622471 80.7793383,151.797686 80.7793383,151.797686 L82.8582795,159.220754 C83.689856,162.519895 84.9372207,166.231429 86.1845854,169.53057 C90.758256,187.675847 109.884515,183.139528 112.795032,182.314743 C118.20028,180.665172 125.26868,174.06689 126.931832,159.633146 C128.594985,144.374618 126.516044,132.002838 122.358162,121.693021 C119.863432,115.507131 114.042397,105.197315 109.468727,101.073388 C104.895056,96.9494614 95.3319266,96.1246761 90.758256,100.248603 C87.8477383,102.722959 85.3530089,105.609707 83.2740678,110.146027 L75.7898795,109.733634 C75.7898795,109.733634 84.9372207,86.6396448 96.1635031,84.5776815 C99.9055972,83.7528962 106.558209,82.1033255 109.468727,82.1033255 C107.805574,83.7528962 106.142421,86.2272522 104.895056,87.8768228 C106.558209,89.1140008 109.884515,93.2379274 112.795032,96.5370688 C116.537127,100.248603 119.447644,105.197315 120.695009,106.434493 L125.684468,96.1246761 C125.684468,96.1246761 131.921291,102.722959 136.91075,113.032775 C143.563362,129.116089 142.731785,155.921612 139.821268,167.056214 M87.4319501,135.301979 C91.5898325,129.528482 89.0951031,123.754985 89.0951031,123.754985 C89.0951031,123.754985 90.758256,121.280629 90.3424678,116.744309 C90.3424678,112.620383 88.2635266,110.558419 88.2635266,110.558419 C88.2635266,110.558419 89.9266795,107.259278 92.4214089,105.609707 C98.2424442,101.898173 103.231903,103.135351 104.895056,104.372529 C110.300303,107.671671 113.210821,112.620383 115.70555,118.39388 C121.942374,131.590445 123.189738,146.024188 123.605527,150.560508 C124.021315,157.15879 121.942374,163.34468 119.031856,169.53057 C117.784491,172.004926 114.458185,180.25278 106.558209,179.427994 C99.4898089,179.015602 94.0845619,176.953638 91.5898325,169.942963 C89.0951031,164.169466 87.4319501,157.983576 85.3530089,152.210078 C88.6793148,150.9729 89.5108913,149.32333 90.758256,143.962225 C90.758256,139.013513 90.3424678,137.363942 87.4319501,135.301979" id="Shape" fill="#000000" fill-rule="nonzero"></path>
                    <path d="M117.842324,98.7551867 C116.59751,97.1217809 115.352697,95.0800237 112.863071,92.629915 C111.618257,90.9965093 108.713693,87.3213462 107.883817,86.0962919 C108.298755,85.6879405 110.788382,82.4211289 112.863071,79.9710202 C115.352697,77.1125601 117.012448,73.4373971 117.427386,73.0290456 C118.672199,75.0708029 119.917012,77.5209115 121.991701,79.5626688 C123.236515,80.7877231 126.141079,85.279589 126.141079,85.279589 C125.311203,86.9129948 122.821577,89.7714549 121.576763,91.8132121 C120.33195,93.8549694 119.087137,97.1217809 117.842324,98.7551867" id="Path" fill="#E8E83F" fill-rule="nonzero"></path>
                    <path d="M73.477627,148.547718 L73.9037793,140.984295 C79.4437591,140.984295 83.705282,140.984295 87.966805,141.404486 C87.5406527,143.925626 87.5406527,146.026577 87.1145004,147.707338 C82.4268252,147.707338 78.1653022,148.127528 73.477627,148.547718 M73.9037793,120.815169 L73.9037793,115.352697 L86.2621958,115.772887 L86.2621958,121.235359 C82.4268252,121.655549 78.5914545,120.394979 73.9037793,120.815169 M85.8360435,132.580493 C84.5575866,132.580493 74.3299316,132.160303 72.1991701,131.740112 C72.6253224,130.479542 72.1991701,128.378591 73.0514747,127.118021 L85.8360435,127.118021" id="Shape" fill="#FFFFFF" fill-rule="nonzero"></path>
                    <path d="M199.902368,29.8755187 C201.073957,32.27623 203.417134,37.0776526 204.979253,39.8784825 L197.16866,52.2821577 C195.216012,48.2809721 194.044423,45.4801423 191.701245,43.0794309 C194.434952,38.6781269 197.16866,33.4765857 199.902368,29.8755187" id="Path" fill="#E8E83F" fill-rule="nonzero"></path>
                    <polygon id="Path" fill="#FFFFFF" fill-rule="nonzero" points="62.6279391 115.352697 67.275242 115.772634 68.0497925 150.207469 62.2406639 150.207469"></polygon>
                </g>
            </g>
        </g>
    </g>
</svg>