<svg xmlns="http://www.w3.org/2000/svg" width="54.5" height="50" viewBox="0 -1.5 54.5 50" enable-background="new 0 -1.5 54.5 50"><style type="text/css"><![CDATA[
	.st0{fill:#E0302D;}
	.st1{fill:#1A171B;}
	.st2{fill:#36302D;}
]]></style><path class="st2" d="M19.3 42.3h4.2l3.5-16h-4.3"/><path class="st0" d="M23.1 24.8h4.3l.9-4.1h-4.3"/><path class="st2" d="M2.6 42.3h6.3c3.3 0 10.3-.5 10.3-6.7 0-2.3-1.1-4.2-3.5-4.6v-.1c2.6-.4 4.7-2.5 4.7-5.2 0-3.9-3.2-5.2-6.6-5.2h-6.6l-4.6 21.8m6.3-9.7h1.4c2.4 0 4.5.3 4.5 2.6 0 3.3-3 3.7-5.7 3.7h-1.5l1.3-6.3zm1.9-8.5h1.5c1.7 0 3.7.1 3.7 2.2 0 2.5-2.4 3.2-4.7 3.2h-1.7l1.2-5.4zm24.1 15.4c-2.4 0-3.3-1.6-3.3-3.8 0-2.9 1.7-6.5 5-6.5 2.5 0 3.2 1.7 3.2 3.8 0 2.7-1.7 6.5-4.9 6.5m1.8-13.6c-5.5 0-9.6 4.1-9.6 9.4 0 4.5 2.8 7.3 7.4 7.3 5.7 0 9.7-4.1 9.7-9.7 0-4.3-3.1-7-7.5-7z"/><path class="st0" d="M40.8 24.1h2.4l1.7-7.9.4 7.9h2.5l3.8-7.9h.1l-1.8 7.9h2.5l2.1-9.7h-4.2l-3.1 6.5-.1-6.5h-4.1"/><path class="st1" d="M47.7 45.5h-47.7v-47h47.7v13.7h-1v-12.7h-45.7v45h45.7v-17h1v18z"/></svg>