<svg width="677" height="607" viewBox="0 0 677 607" xmlns="http://www.w3.org/2000/svg"><title>bot-hero</title><g transform="translate(0 1)" fill="none"><circle id="Oval" fill="#91D0FF" style="mix-blend-mode:multiply" cx="374.56" cy="302.44" r="302.44"/><circle id="Oval" fill="#D138FF" style="mix-blend-mode:multiply" cx="172.74" cy="369.326" r="172.74"/><circle id="Oval" fill="#6BFFC5" style="mix-blend-mode:multiply" cx="216.942" cy="479.832" r="126.21"/><path d="M397.825 578.125c139.408 0 252.421-113.013 252.421-252.421s-113.013-252.421-252.421-252.421-252.421 113.013-252.421 252.421 113.013 252.421 252.421 252.421z" fill="#fff"/><g fill-rule="nonzero"><path d="M364.328 321.335c.416-2.478 3.498-4.289 5.289-5.705l8.079-6.309c-1.687-1.395-3.352-2.79-5.039-4.206-3.748 4.831-1.458 10.869 3.831 13.159 2.436 1.062 4.664-1.666 4.227-3.914-1.145-5.643-9.057-4.393-13.118-3.54-4.164.895-2.644 7.329 1.52 6.434 1.208-.25 2.374-.479 3.602-.521h1.124c1.374.354 1.52.062.396-.854l4.227-3.914c-1.603-.687-1.062-2.228-.229-3.311 2.457-3.165-2.29-6.351-5.039-4.206-5.726 4.477-14.179 8.849-15.491 16.616-.708 4.206 5.913 4.414 6.621.271M375.426 316.754c1.124 1.499 2.332 2.957 3.644 4.31 1.291 1.333 2.79 3.102 4.518 3.831 1.728.729 3.54.208 4.768-1.145.979-1.062 1.083-2.853 2.311-3.685 1.478-1.02 2.249-2.769 1.353-4.477-.75-1.458-2.998-2.353-4.477-1.353-1.124.77-2.124 1.562-2.915 2.707-.354.521-.625 1.041-.895 1.624-.292.625-.791 1.062.146.437.562-.125 1.124-.25 1.687-.396h-.479c.541.167 1.104.333 1.645.521-2.561-1.603-4.685-4.497-6.476-6.871-1.083-1.437-3.456-1.291-4.685-.167-1.416 1.312-1.208 3.248-.146 4.664M387.857 320.856l2.145 17.032 6.434-1.52-.25-.77c-1.249-4.039-7.704-2.561-6.434 1.52l.25.77c1.27 4.123 6.975 2.665 6.434-1.52l-2.145-17.032c-.521-4.206-6.954-2.665-6.434 1.52M384.817 326.54c2.603 3.477 4.664 7.308 6.33 11.327 1.02 2.457 4.393 2.02 5.705.208.604-.833.833-1.603.812-2.624-.083-4.227-6.705-4.518-6.621-.25l.208-.687 5.705.208c-1.895-4.56-4.373-8.745-7.308-12.701-1.083-1.437-3.456-1.291-4.685-.167-1.416 1.333-1.208 3.269-.146 4.685M391.23 326.103c1.541 3.831 2.124 7.808 1.957 11.91l5.726-2.124c-2.832-2.499-3.373-6.684-6.476-8.953-.937-.687-2.353-.645-3.331-.125-3.581 1.895-2.728 6.975-2.02 10.265 1.124 5.226 2.748 10.036 2.977 15.45.146 3.873 4.935 4.497 6.455 1.124 1.999-4.414 2.79-9.12 3.56-13.867-2.165.208-4.352.416-6.517.645.604 4.956-.354 9.828-2.707 14.221l4.56-1.02-.833-.625c-3.415-2.561-6.934 3.04-3.54 5.58.271.208.541.416.833.625 1.353 1.02 3.769.479 4.56-1.02 3.248-6.08 4.393-12.472 3.56-19.281-.5-4.039-5.997-2.686-6.517.645-.666 4.185-1.499 8.245-3.248 12.118l6.455 1.124c-.146-3.685-.562-7.35-1.458-10.931-.77-3.102-3.04-7.683-1.895-10.869-.521.645-1.062 1.27-1.603 1.916.167-.083.333-.167.5-.271l-3.331-.125c.979.729 1.645 3.144 2.27 4.227.791 1.374 1.707 2.603 2.894 3.644 2.061 1.832 5.601.937 5.726-2.124.229-5.351-.729-10.348-2.728-15.283-1.582-3.935-7.412-.791-5.83 3.123M362.101 352.775c.271-2.644-1.749-4.435-4.206-4.685l-.25 6.6 2.311.229-3.186-3.436c-.625 4.331.104 8.558 1.832 12.555 1.687 3.914 7.517.77 5.83-3.123-1.27-2.957-1.52-6.038-1.062-9.182.271-1.832-1.562-3.269-3.186-3.436l-2.311-.229c-4.248-.416-4.456 6.184-.25 6.6.167.021.312.042.479.042-.541-.167-1.104-.333-1.645-.521l-.541-.5-.396-1.687c-.021.167-.042.312-.042.479-.416 4.268 6.205 4.497 6.621.292M354.063 354.149c1.104 3.602 5.226 12.16 9.786 6.871.146-.167.521-.354.604-.562-.167.416-2.832-.999-3.207-.333-.271.5.75 5.309.875 5.83.875 4.123 4.706 5.892 8.412 7.038l.229-6.371c-2.811.354-4.997-1.312-6.142-3.748l-5.33 3.81c6.996 8.599 18.864 13.721 28.567 6.142 2.436-1.916.479-5.455-2.124-5.726-1.52-.146-3.019-.229-4.539-.25-4.248-.042-4.518 6.58-.25 6.6 1.52.021 3.019.104 4.539.25l-2.124-5.726c-6.725 5.268-14.825-.375-19.218-5.788-2.457-3.019-6.892.541-5.33 3.81 2.499 5.289 7.829 7.766 13.492 7.059 3.352-.416 3.165-5.476.229-6.371-1.999-.604-3.602-.895-4.039-3.123-.312-1.645-.312-3.311-.791-4.935-.625-2.061-1.853-4.123-4.248-4.31-1.458-.104-3.061.666-3.998 1.77-1.562 1.832 3.873 2.707 3.29.75-.437-1.499-1.791-2.686-2.249-4.227-1.228-4.039-7.662-2.54-6.434 1.541M374.094 373.68c5.414.521 9.349-.312 13.118-4.393 3.831-4.164 7.995-8.141 10.015-13.555 1.478-3.998-4.831-5.976-6.309-1.999-1.437 3.831-4.56 6.725-7.267 9.682-1.104 1.208-2.29 2.936-3.873 3.54-1.666.625-3.727.271-5.434.104-4.248-.396-4.477 6.226-.25 6.621M393.187 353.983c.916 5.726-5.476 11.056-8.808 14.992-2.728 3.207 1.749 8.1 4.497 4.851 5.268-6.226 12.16-12.472 10.744-21.363-.666-4.206-7.1-2.665-6.434 1.52M408.616 304.344c-.146-.187-.292-.375-.416-.562l6.226-1.437c-1.187-1.749-2.436-3.102-4.081-4.414l-.208 5.705c4.602-2.374 7.038-7.871 9.724-12.056 1.228-1.916 2.624-5.414 4.56-6.746 1.728-1.187 3.144-1.124 4.539-3.019 1.249-1.687.167-4.393-1.791-4.935-1.853-.5-3.394-.604-5.185.167-1.083.479-1.645 1.687-1.749 2.79-.104 1.228.229 2.145 1.062 3.04 1.312 1.374 1.603 1.478 2.311 3.394 1.02 2.728 4.06 4.893 4.581 7.621.791 4.185 7.225 2.665 6.434-1.52-.604-3.269-3.144-4.81-4.518-7.6-.625-1.27-.75-2.728-1.437-3.977-.687-1.249-1.791-1.707-2.748-2.624l.875 2.374.042-.458-1.749 2.79.062.292c-.604-1.645-1.208-3.29-1.791-4.935-.104.125-2.748 1.041-3.54 1.728-1.582 1.395-2.624 3.394-3.748 5.143l-4.393 6.892c-1.291 2.041-2.478 4.602-4.706 5.747-2.394 1.249-2.061 4.227-.208 5.705.708.562 1.291 1.208 1.791 1.957 1.666 2.457 6.288 2.165 6.226-1.437-.062-2.998-1.437-4.893-4.185-5.997-3.935-1.52-5.913 4.789-1.978 6.371M430.832 289.332c.021 1.333.375 5.913-.458 6.746l2.374-.875c-3.207.25-5.164-6.33-5.851-8.599-.687-2.29-3.602-3.498-5.476-1.666-1.811 1.791-2.27 4.06-3.685 6.122-1.853 2.707-4.685 4.997-6.996 7.35-2.977 3.019 1.499 7.891 4.497 4.851 2.249-2.29 4.602-4.497 6.705-6.913 1.645-1.916 2.27-4.872 3.977-6.538l-5.476-1.666c1.582 5.268 4.373 11.91 10.307 13.492 6.705 1.791 6.705-7.85 6.663-12.035 0-4.289-6.621-4.539-6.58-.271M422.879 297.203c4.268 7.933 4.497 16.928 4.664 25.735 2.165-.208 4.352-.416 6.517-.645-1.541-4.747-2.186-9.432-2.165-14.409.021-4.143-.146-7.995-1.895-11.806-1.395-3.061-6.122-1.707-6.226 1.437-.208 5.788 0 11.598.083 17.407.104 5.372-.333 11.035.5 16.345.666 4.206 7.1 2.665 6.434-1.52-.812-5.101-.271-10.723-.354-15.887-.083-5.351-.25-10.723-.062-16.074l-6.226 1.437c1.707 3.769.958 8.079 1.145 12.097.208 4.289.979 8.454 2.29 12.535 1.083 3.331 6.6 3.331 6.517-.645-.167-9.974-.604-20.114-5.434-29.109-1.978-3.769-7.808-.666-5.788 3.102M427.064 362.27l7.371.271c4.248.167 4.497-6.455.25-6.621l-7.371-.271c-4.268-.146-4.518 6.475-.25 6.621M432.207 304.448c4.248.167 4.497-6.455.25-6.621-4.248-.146-4.497 6.455-.25 6.621M434.226 361.166c4.248.167 4.497-6.455.25-6.6-4.268-.167-4.518 6.455-.25 6.6M431.041 304.386c-1.645 18.156-3.082 36.396-.042 54.49.333 1.916 2.29 2.624 3.977 2.457 6.58-.666 4.185-10.64 3.498-14.7-1.083-6.455-3.311-12.722-8.079-17.365-1.687-1.624-4.935-1.291-5.58 1.249-1.083 4.248-1.562 8.495-1.27 12.889.271 4.164 6.559 4.581 6.6.25.062-5.414-.312-10.786-1.083-16.137-.604-4.206-7.038-2.665-6.434 1.52.687 4.768.958 9.536.916 14.367l6.6.25c-.25-3.79.021-7.433.979-11.14l-5.58 1.249c3.04 2.936 4.706 6.538 5.726 10.598.437 1.791.77 3.623 1.02 5.434.167 1.104.292 2.207.416 3.311l.125 1.083c-.271 1.083-.062 1.312.645.708l3.977 2.457c-2.936-17.469-1.374-35.188.208-52.72.375-4.248-6.246-4.477-6.621-.25M422.441 344.655c.541 4.581.791 9.182.812 13.784 0 1.999 1.916 4.019 4.06 3.352 5.268-1.666 6.122-9.62 6.392-14.346.25-4.248-6.371-4.497-6.621-.25-.083 1.562-.25 3.082-.645 4.622-.125.521-1.27 3.727-.645 3.519 1.353 1.104 2.707 2.228 4.06 3.352-.021-5.205-.375-10.39-.979-15.554-.5-4.227-6.934-2.686-6.434 1.52M425.148 362.207c4.248.167 4.497-6.455.25-6.6-4.248-.167-4.518 6.434-.25 6.6M431.041 301.325c-.333-1.52-.875-2.998-1.562-4.393-.625-1.249-2.311-2.041-3.685-1.666-1.499.416-2.332 1.582-2.54 3.102-.208 1.52-.312 3.061-.292 4.602.021 1.728 1.333 3.436 3.186 3.436 1.728-.021 3.456-1.333 3.436-3.186-.021-1.541.083-3.061.292-4.602l-6.226 1.437.416.854c.25.521 0-.083.104.229.167.562.333 1.104.458 1.687.375 1.687 2.29 2.936 3.977 2.457 1.707-.458 2.832-2.145 2.436-3.956" id="Path" fill="#91D0FF"/><path d="M392.521 318.649s4.685 3.061 6.517 12.306c.5 2.582 1.458 8.266 1.77 12.43.708 9.37-.895 13.284-1.791 17.011-.916 3.852-3.477 7.371-5.872 9.911-16.886 17.844-29.816.042-29.816.042s6.476 3.144 13.472 2.957c6.996-.208 10.286-2.624 14.242-7.079 3.956-4.456 7.412-14.596 5.747-26.568-2.353-16.72-4.268-21.009-4.268-21.009" id="Path" opacity=".51" fill="#4D70B6"/><path d="M430.374 285.855l4.248 53.449-.416 18.823-9.932 3.207 15.783 1.811-.187-6.829-4.997-42.955 3.706-26.881.125-3.102-4.581 6.059z" id="Path" opacity=".51" fill="#4D70B6"/><path id="Path" fill="#FFCB52" d="M373.365 285.688l4.81-9.599 4.102 9.328-5.955 10.036zM386.691 286.729l6.413-7.85 2.061 6.205 1.02 1.791-2.957 3.415-1.749 5.934-1.916-5.705zM443.596 267.344l4.477-5.414 1.541-5.455 2.894 6.184 2.665 5.643-6.038 9.307z"/><path d="M472.892 407.723c-.562-2.394-1.104-4.81-1.728-7.517-5.226.854-10.452 1.707-15.658 2.561-4.019.645-8.079 1.062-12.014 1.978-1.582.354-4.393 1.353-4.477-.687.208-1.374 1.249-1.145 1.957-1.312 3.894-.833 7.787-1.666 11.723-2.27 5.039-.77 10.098-1.353 15.158-1.999.958-.125 1.936-.146 3.061-.229-.354-2.394-.708-4.726-1.083-7.288-10.848 1.374-21.342 2.853-31.69 5.351-.812-.458-1.874.937-2.644-1.458 0-1.228.833-1.562 1.874-1.728l14.179-2.311c4.373-.708 8.745-1.395 13.118-2.124 1.52-.25 3.019-.666 4.622-1.02-.146-1.104-.333-2.374-.5-3.644-.187-1.582-.958-2.228-2.561-1.999-7.038.937-14.055 1.853-21.071 2.811-1.499.208-2.977.812-4.477.916-.687.042-1.791-.5-2.041-1.062-.375-.875.167-1.707 1.333-1.853 4.31-.562 8.599-1.249 12.909-1.728 4.976-.562 9.994-.958 15.262-1.458M474.828 414.636c-.416-1.27-.812-2.499-1.249-3.873M467.624 375.95c.187 1.458.333 2.519.479 3.644l-.729-7.288c-.083-1.416-.187-2.811-.292-4.206-.416-5.247-.875-10.473-1.208-15.72-.146-2.249.146-4.518.021-6.767-.083-1.52-.042-2.873 1.353-3.956 1.228.25 1.603.75 1.437 2.249-.354 3.415-.396 6.85-.396 10.286 0 .999.062 1.999.146 2.977.375 3.769.562 7.558.979 11.327.396 3.519.854 7.017 1.312 10.536.479 3.748.916 7.496 1.499 11.202.895 5.622 1.749 11.244 2.977 16.803.854 3.873 2.186 7.642 3.56 11.369 1.187 3.248 2.79 6.33 4.039 9.578.375.958 1.124 2.27-.187 3.207-.687.479-1.957-.666-2.644-2.124-.895-1.936-1.936-3.81-2.79-5.747-.645-1.478-1.145-3.019-1.603-4.56-.25-.854-.937-.125-1.52-.979M316.189 384.945c-.292 1.603-.562 3.123-.854 4.747M317.001 376.803c-.208 1.916-.375 3.581-.583 5.622M315.19 392.524c-1.041 4.664-1.936 13.222-2.957 13.201-1.02-.021-2.603-.25-2.936-.999-.312-.75.541-2.582.791-3.79.625-3.04 1.166-6.101 1.666-9.161.625-3.79 2.478-35.209 2.374-40.352-.083-3.519-.708-7.038-.833-10.577-.104-2.936-.333-18.198-.541-22.862-.083-1.582.146-16.033.125-18.073 0-1.312-.208-2.624-.25-3.935-.042-.895.396-1.374 1.353-1.395 1.124-.02 1.458.729 1.499 1.583.083 1.978.042 3.977.083 5.955l.5 22.092c.062 2.79.062 5.58.167 8.37.208 5.726.479 11.473.708 17.199.021.666-.042 1.353-.042 2.02-.021 4.414-.042 8.828-.062 13.513" id="Path" fill="#323232"/><path d="M322.623 225.868c1.249-2.27 2.207-3.998 3.477-6.246.146-.25.854-1.562.999-1.791.708-1.104 3.685 1.978 3.685 1.978 1.582 1.416.521 2.082-.021 2.894-1.999 3.082-3.956 6.226-5.872 9.349-.25.396-.479 1.041-.333 1.416.791 1.916 1.541 3.873 2.603 5.622 1.978 3.269 3.873 5.726 5.268 7.871.645.999 3.04 3.415 2.374 3.852-4.019 2.644-5.83-.5-6.892-2.478-.833-1.541-1.832-3.019-2.79-4.477-1.228-1.853-2.499-3.685-3.873-5.747-2.499 3.04-4.248 6.122-4.206 10.057.042 3.29-.687 3.331-4.227 3.019-.541-.042-2.103.083-2.29-.604-.25-.937 1.228-14.179 1.333-21.092.083-4.768.042-9.578-.458-14.304-.271-2.603.021-4.393-.416-7.85-.604-1.895.604-2.207 2.728-2.374 1.416-.104 2.165-.625 2.478.729.333 1.395-.187 19.801.479 30.066.187-.021 4.143-6.58 5.955-9.89M388.919 235.758c1.083-2.457 2.998-6.725 3.082-6.975.083-.25.604-.292.77-.042.416.625 2.145 4.831 3.436 7.267 1.041-4.289 1.853-9.161 2.79-13.013.354-1.083.687-.729 2.332-.604.666.062 1.437.312 1.936.354 1.499.125 1.77.187 1.437 1.687-.77 3.456-1.603 6.892-2.394 10.327-.146.645-.292 1.312-.333 1.978-.187 3.56-.042 6.934-.25 10.494-.021.479-.104 3.04-.604 3.498-.333.312-3.165.021-3.581.042-.833.521-1.916-5.372-3.956-10.286-.167 0-2.124 7.6-3.602 10.536-.167 0-2.332-.021-2.457-.083-1.728-.042-1.208-.021-1.832-5.414-.125-2.769-1.083-5.601-1.687-8.349-.687-3.102-3.54-11.931-3.248-12.514.271-.583 2.29-1.124 3.519-1.499.875-.271 1.291.312 1.478 1.208.583 2.54 1.249 5.06 1.936 7.558.333 1.312.812 2.561 1.228 3.831M337.885 250.271c-.271-.812-.083-4.227-.125-6.455-.083-4.331-.104-8.662-.208-12.993-.042-1.999-.271-3.977-.416-5.976-.042-.521-.645-4.019-.042-4.477.687-.521 2.54-.271 3.56-.146.354.042.791.791.854 1.249.208 1.312.271 2.644.396 4.331 1.853-2.29 4.019-2.29 6.142-1.562 1.999.666 2.748 2.436 3.248 4.456 1.249 4.914 1.541 9.89 1.687 14.929.042 1.978.479 3.977.791 5.955.271 1.77.104 2.082-1.707 2.124-.854.021-1.27-.167-2.603-.354-1.333-.208-1.249-.937-1.02-2.249.354-2.082.104-4.268-.042-6.392-.125-1.916-.312-3.852-.708-5.747-.437-2.041-1.374-5.268-3.415-5.039-2.02.229-2.041 3.873-1.916 6.122.167 3.498.5 6.996.604 10.473.062 1.832-.729 2.394-2.624 2.29-.791-.021-2.186.292-2.457-.541M429 230.719c-2.894-.146-3.769 2.582-3.977 5.018-.312 3.748-.479 11.493-.999 11.952-.521.458-.979.271-2.415.312-1.749.062-2.311-.999-2.207-2.644.292-4.581.437-9.182.5-13.763l-.208-7.225c0-.479.666-1.228 1.187-1.395 1.228-.416 3.123-.916 3.581-.271.458.645.479 1.916.416 3.29.833-.75.687-.979 1.916-1.52 4.164-1.811 9.141-.25 10.411 3.436.521 1.562.437 3.373.521 5.06.187 4.06.333 8.1.416 12.16.021.875-.208 1.791-.5 2.624-.125.354-.729.687-1.166.77-.999.167-2.02.187-3.04.271-1.478.125-2.145-.583-1.999-2.124.271-2.644.812-5.309.687-7.933-.167-2.915-.229-7.891-3.123-8.016" id="Path" fill="#91D0FF"/><path d="M373.448 251.291c-2.561 1.437-5.892.812-8.433-.833-3.415-2.207-4.643-5.747-4.997-9.078-.687-6.58 1.104-12.659 6.934-16.761 2.436-1.187 4.185-.875 4.997-.75 1.333.167 2.624 1.291 3.102 1.728 1.416 1.499 2.728 3.727 3.269 5.247 3.894 8.578-.687 18.094-4.872 20.447m-3.102-22.175c-2.103-.312-3.373.875-4.56 2.603-2.061 3.061-1.895 6.954-1.957 9.744-.042 2.165 1.499 5.476 4.373 6.122.271.062.583.083.854.125 4.643.416 6.829-4.893 6.954-8.516.229-5.643-2.853-10.015-5.663-10.078" id="Shape" fill="#91D0FF"/><path d="M476.057 310.07c-.333.812-2.394 3.894-2.894 6.122-.666 2.957-.687 4.872-1.145 7.891-.062.458.062 2.436-.791 2.394-2.499-.083-3.207-.854-5.809-1.208-1.041-.146-.541-1.541-.271-2.624.937-3.852 1.853-13.326 2.853-14.346.625-.645 1.166-.042 1.603.042 1.083.187 1.624.271 4.227.125 1.624-.229 2.54.791 2.228 1.603M467.978 295.245c-1.041-.042-1.791-3.29-1.791-4.726 0-2.061-.312-4.123-.645-6.142-.416-2.603-.999-5.164-1.499-7.746-.312-1.666 1.312-1.936 2.915-2.332 1.499-.375 2.29-2.29 2.977-.77.396.854.645 3.373.812 4.039 1.187 5.101 1.208 8.245 2.311 13.388.146.645 1.187 3.498.479 3.748-.708.25-1.249.104-2.769.375-1.541.229-1.728.208-2.79.167M415.3 223.369c.937.77.833 4.414.833 4.622-.104 3.81-.479 3.894-.458 7.704 0 2.499.312 4.997.458 7.496.042.666-.083 1.353-.062 2.02.042 1.166.083 2.186-.521 2.478-.791.396-3.54 1.041-4.019-.75-.416-1.624-.333-2.832-.333-4.248-.042-3.436.083-6.85-.021-10.286-.062-2.582-.645-5.143-.562-7.725.083-2.02 4.185-1.728 4.685-1.312" id="Path" fill="#91D0FF"/><path d="M420.588 461.172c3.685.541 5.247 3.29 3.894 6.58-1.291 3.186-3.165 5.58-6.684 6.351-2.041.458-3.769-.042-4.685-1.458-1.27-1.936-1.437-4.185-.146-5.788 1.166-1.458 2.457-2.873 3.914-4.019 1.041-.791 2.457-1.124 3.706-1.666m-.104 3.56c-1.395.645-2.624.916-3.436 1.645-1.104.958-.625 2.311-.229 3.56.333 1.083 1.291 1.312 1.936.958.875-.5 1.811-1.374 2.082-2.27.271-.979-.167-2.165-.354-3.894M495.213 461.464c-.271 4.706-5.268 8.932-9.349 9.703-.854.167-1.77.437-2.603.333-3.311-.375-4.56-2.853-3.248-5.997 1.791-4.352 5.309-6.226 9.661-6.725 1.041-.125 2.228.625 3.269 1.124.791.396 1.478.999 2.27 1.562m-4.268.167c-3.456-.521-5.268.271-6.809 3.186-.666 1.228-.77 2.748.229 3.748.5.5 1.874.541 2.665.271 3.269-1.124 4.539-3.581 3.914-7.204" id="Shape" fill="#323232"/><path d="M463.252 337.7c-.458.521-1.77 3.373-4.997.021-3.498-2.957-7.204-5.684-10.806-8.516-.375-.292-.999-.416-.979-1.062.021-.645 1.645-.854 2.582-1.77 1.041-1.228 1.312-2.748 3.019-1.228.77.687 3.456 3.165 5.205 4.685.541.479 1.166.916 1.811 1.228.979.458 2.249 1.145 2.728 1.874.521.77-.021 1.395.458 2.374.479.999 1.437 1.874.979 2.394" id="Path" fill="#91D0FF"/><path d="M528.048 468.064c.604-2.603 2.082-6.538 5.809-7.371 1.333-.292 2.707-.666 3.914-.396 1.062.229 2.082 1.228 2.811 2.145 1.333 1.707 1.083 3.581-.708 5.747-1.957 2.374-4.643 3.706-7.517 4.518-2.103.625-4.456-2.061-4.31-4.643m10.411-4.164c-2.748-.999-3.998-1.083-4.935-.083-1.166 1.249-1.187 2.853-1.083 4.497.083 1.228.708 1.458 1.728 1.208 2.582-.604 4.31-2.853 4.289-5.622M345.589 462.338c-.75-.021-1.52.062-2.228-.104-1.957-.458-3.852-2.499-3.748-4.164.125-2.082 1.249-3.977 3.769-4.914 2.977-1.104 5.622-.687 8.308.521 1.291.562 3.102 3.082 2.603 4.206-.5 1.187-1.52 2.457-2.644 3.04-1.832.916-3.935 1.312-5.913 1.916l-.146-.5zm-2.853-4.976c1.999 2.415 4.706 3.186 6.975 1.895.604-.333 1.437-1.228 1.333-1.645-.208-.812-.854-1.749-1.582-2.124-1.874-.916-5.039.042-6.725 1.874M362.913 460.339c1.77.042 3.477 1.832 3.54 3.456.167 3.644-3.831 8.558-7.412 8.433-1.624-.042-3.623-1.187-4.685-2.478-1.104-1.353-1.187-3.498.167-5.164 2.228-2.748 5.164-4.039 8.391-4.248m.812 5.205c-.375-.271-.666-.5-.979-.708-1.999-1.416-5.122-.396-5.851 1.936-.479 1.541 0 2.29 1.582 2.457 2.832.312 3.748-.312 5.247-3.685M382.985 407.515c-.146 3.748-2.332 6.496-5.83 7.329-2.519.583-5.809-1.603-5.997-4.123-.333-4.56 4.352-8.932 8.808-7.975 1.853.375 3.123 2.374 3.019 4.768m-2.561 1.166c.083-2.353-1.228-3.269-3.29-2.186-.833.437-1.77.979-2.249 1.728-.458.729-.666 1.895-.396 2.665.229.625 1.27 1.27 2.02 1.353 1.999.229 3.831-1.562 3.914-3.56M337.948 439.997c3.54.125 5.58 3.498 4.352 6.85-.77 2.124-1.957 3.56-4.081 4.602-2.769 1.353-7.121-1.27-7.059-4.768.062-3.81 2.311-6.892 6.788-6.684m-.666 9.286c.645-.521 1.499-.916 1.874-1.582.75-1.291.999-2.79.021-4.102-.312-.437-1.104-.875-1.562-.791-1.353.271-2.915 2.936-2.561 4.248.271.979.541 2.145 2.228 2.228M379.216 462.38c1.312.666 2.936 1.02 3.894 2.041 1.458 1.52 1.062 3.519-1.062 5.101-1.853 1.374-4.019 2.478-6.184 3.29-2.082.791-3.956-.292-5.414-1.749-1.52-1.541-1.416-3.748.312-5.039 2.415-1.832 4.872-3.81 8.454-3.644m1.458 4.602c-1.728-1.999-3.769-.999-5.726-.541-1.916.458-1.562 2.041-1.707 3.352 3.207 1.728 5.122-.021 7.433-2.811M238.608 468.418c.625-1.541.958-3.373 1.999-4.539.854-.937 2.582-1.52 3.935-1.52 3.102 0 5.351 2.832 4.726 5.809-.479 2.353-1.541 4.497-3.623 5.955-1.582 1.083-3.04 1.041-4.435-.271-1.52-1.416-2.54-3.082-2.603-5.434m3.602-2.748c-.042 1.333-.271 2.686-.104 3.998.146 1.208 2.186 1.749 2.707.75.583-1.104 1.02-2.603.75-3.706-.25-.979-1.603-1.666-3.352-1.041" id="Shape" fill="#323232"/><path d="M523.28 474.436c-.77-.208-1.208-.292-1.582-.437-.375-.146-1.041-.354-1.062-.562-.125-2.02-.167-4.019-.187-6.038-.021-.75.042-1.52.083-2.457-2.707 1.936-4.185 4.893-7.183 6.226-.75-1.749.104-2.582.937-3.477l4.477-4.935c1.291-1.374 1.811-3.04 1.936-4.851.083-1.208.479-2.186 1.832-1.978 1.104.187 2.165.75 1.791 2.27-.187.708-.479 1.416-.521 2.145-.229 3.935-.625 7.891-.062 11.847.062.666-.292 1.395-.458 2.249" id="Path" fill="#323232"/><path d="M504.499 455.925c-1.645-.375-2.894-.479-3.935-.958-1.582-.75-2.415-2.02-2.249-3.977.146-1.874 1.041-2.957 2.748-3.227 3.79-.645 7.621-.999 10.744 1.936 1.832 1.728 1.374 3.956-1.041 4.768-2.165.708-4.435 1.041-6.267 1.458m4.331-4.956c-2.311-1.811-5.747-1.624-7.6.292 3.311 2.436 5.205 2.394 7.6-.292M363.225 421.507c.521.021.958 0 1.416.062 1.895.208 2.957 1.353 2.769 3.207-.521 5.143-3.748 6.934-8.349 6.892-1.874 0-3.061-1.624-3.769-3.144-.729-1.582.229-3.102 1.291-4.227 1.791-1.895 3.873-3.311 6.642-2.79m-5.226 6.309c2.186.979 4.143.645 5.768-1.124.875-.958.541-1.77-.729-2.02-2.353-.458-4.206.687-5.039 3.144M472.059 461.672c1.77.104 3.977 3.269 3.394 4.976-1.083 3.186-3.248 5.518-6.246 6.913-3.852 1.791-5.934-1.333-5.747-4.497.208-3.165 5.414-7.288 8.599-7.392m-.146 3.227c-3.436-.541-5.809 3.165-5.06 6.038.708-.125 1.541-.062 2.103-.416 1.166-.75 2.311-1.603 3.207-2.644.271-.312-.354-1.374-.479-2.103-.062-.229.125-.541.229-.875M446.469 461.859c-.125 2.145-2.436 4.789-4.539 5.372-.708.187-1.416.333-2.145.437-2.519.333-5.476-2.02-5.497-4.581 0-.812.333-1.811.875-2.394 2.415-2.603 6.08-3.123 9.453-1.999 1.936.666 1.895 1.916 1.853 3.165m-3.269-.604c-2.644-1.416-5.226-.104-5.164 2.624 3.352.416 4.206-.021 5.164-2.624M308.839 444.307c1.895.167 3.415-.229 4.164 1.728.729 1.895.062 3.352-.979 4.726-1.603 2.124-4.019 2.686-6.496 2.894-1.333.104-3.831-2.207-4.331-3.79-.541-1.707.625-2.686 1.687-3.581 1.832-1.562 3.977-2.353 5.955-1.978m-4.06 5.518c3.269.666 3.977.25 4.352-2.603-2.145-.396-3.165.229-4.352 2.603M392.625 448.075c.875 2.436-.125 4.643-1.374 6.538-.937 1.395-2.457 2.478-3.894 3.415-1.478.979-3.019.187-4.268-.708-1.687-1.228-1.936-4.248-.75-6.038 2.27-3.373 5.934-5.393 10.286-3.207m-6.205 7.642c3.019-1.062 3.685-2.832 2.27-6.122-2.54.791-3.665 3.831-2.27 6.122M382.422 423.09c-.375 4.06-5.684 8.329-8.932 6.538-1.978-1.083-4.06-3.998-2.061-6.829 1.312-1.853 3.144-3.373 5.559-3.873 3.165-.666 5.58 1.166 5.434 4.164m-2.769 1.374c.083-1.02-1.124-2.374-2.145-2.436-1.041-.042-3.415 2.124-3.207 3.207.146.77.854 1.853 1.52 2.061 1.603.479 3.706-1.228 3.831-2.832M512.786 439.31c-.125-3.456 3.186-6.413 7.163-6.413 1.52 0 3.123 1.749 4.518 2.915.312.25.125 1.499-.208 2.041-.791 1.228-1.791 2.332-2.748 3.436-1.166 1.353-2.748 2.082-4.477 2.124-3.165.083-4.602-1.874-4.248-4.102m4.831 2.374c1.062-.916 2.186-1.458 2.582-2.353.333-.729-.208-1.853-.396-2.936-1.291-.354-2.186.312-2.957 1.437-.937 1.437.333 2.29.77 3.852M430.853 432.043c-.187-4.039 4.206-7.183 7.891-7.662 1.27-.167 4.06 2.519 4.268 3.873.167 1.062-.104 1.27-1.395 1.749-.479.187-.916.77-1.124 1.27-.999 2.603-3.29 3.81-5.539 4.872-2.103.999-4.31-1.291-4.102-4.102m7.225-4.872c-.354.083-.729.146-1.062.25-1.624.479-3.456 2.644-3.394 4.164.021.583.354 1.291.791 1.666.229.187 1.062-.083 1.478-.375 1.936-1.333 2.769-3.644 2.186-5.705M319.895 453.989c2.998.354 4.143 2.561 3.207 5.33-1.02 2.957-2.977 4.622-5.768 5.622-1.791.625-3.186.333-4.373-1.041-1.291-1.499-1.291-2.311-.396-4.248.999-2.186 2.519-3.831 4.643-4.872.812-.416 1.77-.541 2.686-.791m.208 5.414c.062-1.478-.583-2.519-1.541-2.499-1.02 0-2.02 1.478-2.103 2.998-.083 1.187.271 2.103 1.458 2.353.999.187 2.124-1.374 2.186-2.853M400.954 434.25c-.354 1.374-.708 2.415-.916 3.498-.604 3.04-3.706 5.476-6.705 5.185-1.395-.125-3.831-2.561-4.248-4.227-.437-1.707.458-3.977 1.936-5.08 2.145-1.582 4.747-1.624 7.183-1.687.937-.021 1.916 1.562 2.748 2.311m-2.936.604c-1.291.208-2.54.208-3.644.604-1.395.5-2.103 3.04-1.353 4.206.479.77 2.394.958 3.373.125.604-.521.979-1.416 1.27-2.207.229-.729.208-1.562.354-2.728" id="Shape" fill="#323232"/><path d="M545.059 445.785c-1.791 1.249-3.207 2.332-4.685 3.29-1.499.958-3.082 1.208-4.831.229-.146-.854-.167-1.562 1.02-1.978 3.498-1.187 6.517-3.144 9.12-5.768.479-.479 1.228-.666 1.853-.999.271.708.77 1.437.77 2.145 0 3.581 0 7.163-.312 10.723-.062.833-1.166 1.936-2.041 2.249-1.02.375-1.228-.729-1.187-1.624.083-2.624.187-5.289.292-8.266" id="Path" fill="#323232"/><path d="M345.631 426.837c-.895-.437-2.186-.833-3.207-1.603-.854-.645-1.228-1.582-.77-2.915 1.083-3.144 2.728-5.663 5.976-6.829 1.77-.645 3.581-.687 4.976.687.625.604 1.187 1.832 1.02 2.603-.812 3.769-3.102 6.413-6.725 7.871-.25.083-.583.083-1.27.187m-.604-4.081c1.978 1.208 3.227 1.124 4.497-.25 1.333-1.437 1.353-2.811.062-4.643-4.019.999-4.602 1.624-4.56 4.893M398.08 414.928c-.187 3.685-2.936 6.226-6.517 6.017-2.332-.125-4.539-2.977-4.352-5.601.25-3.456 3.04-5.643 6.829-5.351 2.624.208 4.414 2.915 4.039 4.935m-4.622-1.333c-1.666-.104-3.019.999-3.102 2.457-.083 1.603 1.228 1.749 2.228 1.957 1.353.292 3.144-1.02 3.165-2.103 0-.979-1.249-2.249-2.29-2.311M495.463 431.21c-.125 3.685-5.414 7.433-8.662 6.163-1.562-.625-2.665-2.29-2.582-3.977.125-3.102 2.811-6.142 5.913-6.705 2.769-.479 5.434 1.749 5.33 4.518m-4.81-1.728c-1.062.812-1.916 1.395-2.665 2.082-.937.875-1.124 2.124-.479 3.061.77 1.124 2.207.75 2.998.042.625-.562.812-1.749.895-2.686.042-.666-.396-1.374-.75-2.499M274.005 460.36c-.333 2.915-1.791 5.205-4.143 6.829-1.832 1.27-4.248.458-5.393-1.603-1.312-2.353-.708-5.372 1.395-7.225.5-.437.999-.895 1.395-1.416 1.416-1.811 3.394-1.333 5.08-.999 1.437.292 1.187 2.145 1.687 3.311.125.292-.021.729-.021 1.104m-5.268 5.226c.479-.541.854-1.02 1.27-1.458 1.208-1.291 1.499-2.769 1.041-4.456-.312-1.145-1.208-1.582-1.957-.729-1.832 2.124-2.873 4.123-.354 6.642M402.578 449.033c2.582.208 4.331 1.666 4.581 3.977.042.458.062 1.104-.208 1.395-1.832 2.103-3.477 4.435-6.413 5.226-2.041.562-3.81-.271-4.851-3.311-.854-2.499 1.333-5.809 4.331-6.809.812-.25 1.687-.312 2.561-.479m.645 3.436c-2.915-.354-4.019.062-4.643 1.624-.604 1.499.187 2.499 1.811 2.311 3.04-.396 3.207-.604 2.832-3.935" id="Shape" fill="#323232"/><path d="M405.597 467.377l-3.79 4.123-.666-.208c-.104-.5-.458-1.124-.271-1.478.437-.895 1.02-1.791 1.749-2.499 2.124-2.061 4.497-3.894 5.726-6.663 2.353.208 2.394.333 2.061 2.478-.416 2.624-.791 5.247-1.104 7.871-.062.604.104 1.353.458 1.832.812 1.104.312 1.603-.687 1.936-.833.271-1.687.625-2.54.625-.979 0-1.728-.625-1.562-1.749.271-2.02.645-4.039.979-6.059-.125-.042-.229-.125-.354-.208" id="Path" fill="#323232"/><path d="M410.053 420.716c-.25 2.957-3.956 6.559-6.954 6.767-1.916.146-4.539-2.165-4.227-4.06.458-2.707 1.27-5.393 4.102-6.725 1.728-.812 3.54-.75 5.122.25 1.27.833 2.186 2.061 1.957 3.769m-2.894.146c-.292-.645-.416-1.541-.875-1.791-.479-.25-1.395 0-1.895.354-.75.521-1.458 1.249-1.916 2.041-.541.895.083 2.873.875 3.186 1.187.479 2.061-.208 2.665-1.062.5-.75.729-1.707 1.145-2.728" id="Shape" fill="#323232"/><path d="M464.501 454.176c-1.083-.895-1.208-1.666-.271-2.394.875-.687 1.77-1.374 2.707-1.936 2.582-1.582 5.247-3.04 6.975-5.705.999-1.541 1.666-1.562 3.102-.666-.437 3.082-.875 5.976-1.291 8.891-.062.437-.146.958 0 1.333.916 2.165-.146 3.54-2.02 4.914-1.687-3.082-.25-6.434-1.374-9.64-2.561 1.728-5.164 3.456-7.829 5.205M427.126 413.595c.208 1.666.416 3.331.625 5.018.229 1.957.271 3.956.729 5.851.396 1.687-.229 2.936-.958 4.248-2.103-.458-2.311-.729-2.29-2.79.021-2.145.021-4.289.021-6.434l-.458-.083c-1.333 1.541-2.644 3.102-4.019 4.602-.521.583-1.124 1.145-1.811 1.478-.396.187-1.104.042-1.52-.208-.167-.104-.104-.999.146-1.333 1.166-1.52 2.499-2.915 3.644-4.456 1.124-1.52 1.978-3.207 3.123-4.685.521-.666 1.458-1.02 2.207-1.52.167.104.354.208.562.312" id="Path" fill="#323232"/><path d="M291.932 427.296c-.167 2.832-3.935 7.371-6.767 8.183-1.228.354-2.873-.645-3.685-2.207-1.166-2.249-.375-5.268 1.874-6.559 1.624-.937 3.29-1.957 5.08-2.499 2.394-.75 3.665.521 3.498 3.082m-3.311-.271c-3.186-.083-4.643 1.603-4.331 4.914 2.853.396 4.518-1.416 4.331-4.914" id="Shape" fill="#323232"/><path d="M465.604 440.767l-2.894 1.249c-1.458-1.395-.187-2.603-.167-3.831.021-1.395-.354-2.769-.604-4.477-1.999 2.499-3.81 4.747-5.601 6.975-2.29-1.187-2.186-1.687-.75-3.186 1.811-1.916 3.665-3.873 4.664-6.413.375-.958.812-1.936 1.416-2.769.333-.437 1.104-.791 1.645-.75.375.021.937.75.999 1.228.479 3.998.875 8.016 1.291 11.972" id="Path" fill="#323232"/><path d="M326.142 395.314c1.062.042 2.124 0 3.186.167.375.062.958.562.999.937.146 1.145.416 2.436.021 3.436-.999 2.561-2.436 4.914-5.33 5.872-1.687.562-3.207.437-4.518-.791-.999-.937-1.541-3.623-.687-4.789 1.104-1.52 2.478-2.894 3.873-4.164.583-.541 1.562-.645 2.374-.937l.083.271zm-3.373 7.766c2.103.958 3.207-.416 4.352-1.582.854-.854.875-1.832.167-2.811-.791-1.083-1.791-.895-2.79-.333-1.832 1.083-2.124 2.748-1.728 4.726M444.387 431.293c.146-2.79 2.207-5.018 5.143-5.684.416-.104.833-.25 1.27-.312 2.603-.5 4.456 1.687 3.831 4.248-.521 2.207-1.645 3.935-3.436 5.226-1.353.979-2.977 1.791-4.539.916-1.603-.916-2.499-2.499-2.27-4.393m6.725-3.373c-2.394.479-4.039 1.874-3.914 3.456.042.604.562 1.374 1.083 1.687.333.187 1.228-.187 1.624-.562 1.291-1.208 1.52-2.769 1.208-4.581" id="Shape" fill="#323232"/><path d="M446.074 448.284c-.666.562-1.208 1.062-1.916 1.666-2.748-2.186-1.27-5.83-3.04-8.308-2.728 1.916-5.455 3.81-8.162 5.726-1.166.833-1.832 0-2.853-.875.895-.791 1.749-1.541 2.624-2.27 2.499-2.041 5.018-4.019 7.475-6.08 1.291-1.083 2.748-.854 3.29.833.833 2.603 1.458 5.247 2.165 7.891l.416 1.416" id="Path" fill="#323232"/><path d="M300.261 434.354c-2.873-.333-4.518-2.499-3.873-5.143.583-2.353 2.082-4.06 4.019-5.393 1.124-.77 3.54-.729 4.414.125 1.104 1.041 1.145 2.228.854 3.81-.396 2.145-.875 4.06-2.728 5.33-.791.541-1.77.854-2.686 1.27m1.228-7.891c-2.561 1.645-2.624 1.77-2.145 4.268 1.541.645 2.603 0 3.207-1.333.541-1.228.187-2.29-1.062-2.936" id="Shape" fill="#323232"/><path d="M380.84 442.474c-2.582-3.04.75-5.018.479-7.496-1.957 1.312-3.852 2.644-5.809 3.873-.583.375-1.353.541-2.061.583-.333.021-.937-.416-.979-.687-.042-.354.271-.916.604-1.145l7.558-5.08c1.395-.958 2.686-2.061 4.123-2.977.375-.25 1.041-.062 1.582-.083-.021.458.042.937-.104 1.353-.916 2.873-1.749 5.747-2.873 8.537-.416 1.083-1.478 1.874-2.519 3.123" id="Path" fill="#323232"/><path d="M267.571 451.074c-.021 2.769-1.228 4.477-2.707 5.913-.541.521-1.791.645-2.624.458-2.499-.562-3.706-2.977-3.373-5.559.333-2.54 1.27-4.456 3.644-5.663 1.999-1.02 4.477.229 4.706 2.478.104.979.271 1.916.354 2.374m-3.706-2.686c-2.207 1.208-2.436 2.665-2.27 4.414.104 1.166.562 1.562 1.645 1.603 1.208.042 1.687-.687 1.562-1.666-.167-1.374-.583-2.748-.937-4.352" id="Shape" fill="#323232"/><path d="M483.761 457.008c-.77-.895-1.208-1.395-1.645-1.895 1.041-3.102 3.727-4.81 6.101-7.308-2.228-.083-4.06-.125-5.913-.229-1.707-.083-1.707-.125-1.728-2.436 2.165.021 4.331.062 6.496.042 1.145-.021 2.29-.125 3.415-.292.854-.104 1.916-.75 2.29.375.208.625-.187 1.707-.666 2.29-1.666 2.041-3.498 3.956-5.268 5.934l-1.083 1.416c-.562.687-1.208 1.312-1.999 2.103M394.395 461.318c2.853 2.415 1.437 4.893 1.104 7.288-.208 1.458-.541 2.998-.292 4.393.187 1.104-.042 1.77-.791 2.27-.5.333-1.312.645-1.77.458-.437-.187-.895-1.041-.854-1.582.146-1.811.521-3.623.791-5.33-1.811 1.062-3.665 2.186-5.58 3.186-.437.229-1.124-.042-1.707-.083.25-.479.396-1.062.75-1.416 1.478-1.458 3.082-2.769 4.497-4.248.854-.895 1.416-2.041 2.165-3.04.5-.645 1.104-1.228 1.687-1.895M508.476 465.087c-1.916.375-3.81.791-5.747 1.104-.875.146-1.791.187-2.644.042-.333-.062-.833-.708-.812-1.083.021-.375.521-.937.916-1.02 3.519-.812 7.059-1.541 10.598-2.249 1.228-.25 1.874.458 1.458 1.687-1.166 3.56-2.29 7.142-3.665 10.598-.396 1.02-1.603 1.707-2.457 2.54-.25-.104-.5-.208-.75-.292-.042-.812-.333-1.707-.062-2.394 1.083-2.853 2.332-5.622 3.519-8.433-.125-.167-.25-.333-.354-.5" id="Path" fill="#323232"/><path d="M326.975 436.811c-.062 1.478-.271 2.707-1.541 3.79-2.79 2.394-4.726 2.124-6.33-1.124-1.645-3.331.333-7.579 3.956-8.391 1.957-.458 3.082.271 3.436 2.228.187 1.145.312 2.332.479 3.498m-4.914 1.624c2.415-.895 2.561-1.582 1.02-4.726-1.832 1.666-2.082 2.811-1.02 4.726" id="Shape" fill="#323232"/><path d="M338.072 401.977c-1.624 2.665-1.27 5.539-.999 8.308.125 1.374.104 2.29-1.062 2.915-3.061-.916-2.853-3.394-2.686-5.955-2.374.75-3.456 3.665-6.705 2.936.479-.916.708-1.811 1.27-2.332 1.728-1.624 3.602-3.123 5.393-4.685.5-.437.999-.916 1.416-1.437 1.562-2.061 1.541-2.082 3.373.25" id="Path" fill="#323232"/><path d="M479.138 432.23c-.146 3.415-1.52 5.663-4.185 6.892-1.666.77-3.186-.167-4.435-1.187-1.333-1.083-1.895-3.248-1.104-4.435 1.166-1.791 2.519-3.436 4.602-4.331 2.561-1.083 4.997.292 5.122 3.061m-3.873.187c-2.519.625-3.477 1.645-2.915 3.144.375.999 1.166 1.582 2.27 1.27 1.499-.396 1.749-1.978.645-4.414" id="Shape" fill="#323232"/><path d="M526.57 448.804c-2.478.916-4.706 2.915-8.308 2.353.75-.791 1.145-1.437 1.728-1.749 2.207-1.166 4.477-2.145 6.226-4.081 1.478-1.645 3.123-1.187 3.894.916.354.958.521 1.999.791 2.998.562 2.082 1.124 4.164 1.707 6.351-2.394 1.395-3.644.958-4.518-1.874-.479-1.603-.999-3.207-1.52-4.914" id="Path" fill="#323232"/><path d="M291.37 418.176c.146-2.728 2.353-5.164 5.06-5.559 2.374-.354 4.497 1.312 4.477 3.665 0 2.748-1.333 5.018-3.644 6.246-3.29 1.728-6.059-.354-5.892-4.352m4.06-2.873c-.5 1.145-.979 2.103-1.312 3.102-.104.333.104.916.375 1.187.687.708 2.519.375 3.165-.521.812-1.124.666-1.957-.5-2.728-.437-.312-.895-.541-1.728-1.041" id="Shape" fill="#323232"/><path d="M505.603 425.776c.271.833.833 1.687.77 2.499-.187 2.915.167 5.768.604 8.641.208 1.312.854 1.749 2.207 1.645v.604c-.937.396-1.853.999-2.832 1.145-1.312.187-2.02-.583-2.124-1.978-.146-2.145-.416-4.268-.625-6.538-1.874 1.874-2.915 4.31-5.434 5.185-1.374-1.978-1.208-1.811.312-3.373 1.895-1.957 3.477-4.206 5.205-6.33l1.312-1.562.604.062M347.671 436.79c-.895 2.457-2.811 2.103-4.831 2.624.312-.937.396-1.645.729-2.186.875-1.437 1.874-2.811 2.79-4.227.208-.312.271-.77.521-.958.854-.645 1.749-1.645 2.686-1.707 1.437-.083.854 1.478.999 2.29.416 2.374.583 4.81.937 7.204.146.958.562 1.874.979 3.165l-1.52 2.624c-2.832-2.353-2.499-5.559-3.29-8.828M293.952 437.519c1.312 2.936 2.436 5.476 3.56 8.016.416.916.854 1.853 1.333 2.748.5.916.854 1.77-.25 2.478-1.124.729-1.791.042-2.207-.895-.833-1.791-1.582-3.623-2.394-5.434-.167-.396-.416-.75-.833-1.478-1.228 2.228-2.436 4.143-3.311 6.184-.479 1.124-1.228 1.416-2.061 1.104-1.208-.479-.687-1.458-.208-2.228 1.687-2.603 3.04-5.351 4.039-8.308.271-.833 1.395-1.353 2.332-2.186" id="Path" fill="#323232"/><path d="M309.63 406.432c1.291 2.977 1.249 5.747-.604 8.329-1.166 1.624-3.56 2.499-4.976 1.895-2.041-.875-2.894-2.894-2.561-5.247.541-3.977 3.165-5.393 6.226-5.06.583.062 1.187.042 1.916.083m-4.081 7.621c1.166.104 2.145-.875 2.29-2.228.125-1.145-.729-2.332-1.77-2.457-1.187-.146-2.103.77-2.228 2.207-.083 1.249.708 2.394 1.707 2.478" id="Shape" fill="#323232"/><path d="M418.131 454.322c2.686-1.041 4.664-1.77 6.6-2.582.937-.396 1.77-1.145 2.728-1.416 1.916-.521 2.27-.042 2.499 2.061.25 2.186.687 4.352 1.166 6.517.167.791.687 1.52 1.083 2.394-.208.396-.375 1.02-.791 1.395-.791.75-1.749 1.104-2.249-.271-.833-2.249-1.562-4.56-2.311-6.829-.187-.562-.271-1.124-.375-1.541-2.249.521-4.393 1.104-6.58 1.478-.437.062-.979-.625-1.77-1.208" id="Path" fill="#323232"/><path d="M413.155 449.554c-3.311-.312-4.643-2.165-4.373-5.06.292-2.977 3.186-5.08 6.059-4.268 1.312.375 2.29 1.874 3.394 2.894.229.229.271.666.396.999.875 2.165.333 3.685-1.895 4.581-1.208.5-2.582.645-3.581.854m2.832-2.415l.437-.541c-.292-.895-.625-1.77-.854-2.665-.25-1.062-1.041-1.291-1.853-1.104-.645.167-1.562.666-1.666 1.145-.125.645.229 1.749.75 2.082.895.604 2.103.75 3.186 1.083M552.951 457.882c2.561.104 3.935 2.311 2.957 4.685-1.145 2.811-3.602 4.123-6.184 5.039-2.061.729-3.998-.999-3.998-3.186 0-3.415 3.602-6.684 7.225-6.538m-.229 2.29c-3.498 1.104-4.227 2.332-2.915 4.706 3.019-.833 3.79-2.041 2.915-4.706" id="Shape" fill="#323232"/><path d="M358.811 406.328c-1.124 1.499-2.186 2.665-2.957 3.998-.479.833-1.062 1.249-1.707.708-.416-.333-.645-1.458-.396-1.916.625-1.145 1.603-2.103 2.394-3.165.833-1.124 1.52-2.353 2.436-3.394.562-.625 1.437-.937 2.186-1.374.375.666.979 1.291 1.104 1.999.458 2.457.729 4.935 1.124 7.412.146.937.396 1.832.708 3.207-.521.229-1.353.916-1.957.75-.645-.187-1.291-1.104-1.499-1.832-.583-1.978-.916-4.019-1.437-6.392M281.209 465.607c-2.249 2.374-3.373 5.559-6.351 7.308-.75-1.27-.229-2.27.375-3.144 1.353-1.936 2.832-3.79 4.206-5.705.416-.583.645-1.333 1.083-1.895.396-.5.979-.854 1.582-1.374 1.541 1.77 1.728 3.831 2.041 5.83.312 1.978.812 3.852 2.478 5.414-.625.979-1.291 2.082-2.103 3.373-3.082-2.936-2.041-6.684-3.311-9.807M334.366 424.485c-1.353 1.228-2.457 2.332-3.685 3.29-.416.312-1.145.25-1.728.354.042-.583-.146-1.374.167-1.749 1.291-1.52 2.769-2.894 4.102-4.393.77-.875 1.416-1.853 2.082-2.769 1.458.104 2.02 1.02 2.249 2.27.562 3.019 1.187 6.017 1.624 9.057.104.687-.437 1.458-.812 2.603-1.312-1.666-2.748-2.353-2.769-4.289-.021-1.395-.77-2.79-1.228-4.373M350.669 401.04c1.562 1.02 1.52 1.936.604 3.144-1.437 1.936-2.54 4.039-2.29 6.6.021.292-.021.604-.125.875-.458 1.395-1.603 2.228-2.561 1.832-1.499-.625-1.104-1.666-.604-2.748.125-.25.104-.562.229-1.291-1.291 1.228-2.249 2.27-3.352 3.123-.562.437-1.666.895-2.041.645-.854-.583-.312-1.499.271-2.082 1.52-1.603 3.144-3.123 4.664-4.706 1.228-1.27 2.374-2.603 3.581-3.894.521-.562 1.124-1.041 1.624-1.499M415.3 431.377c-1.999 1.166-3.956 2.165-5.726 3.394-.854.604-1.582.729-2.041-.062-.208-.354.25-1.416.708-1.77 1.27-.979 2.728-1.707 4.081-2.603.916-.604 1.811-1.291 2.644-1.999 1.458-1.228 2.207-1.104 2.894.77.541 1.499.77 3.123 1.187 4.664.167.687.375 1.374.645 2.041.479 1.249-.083 2.832-1.145 3.144-1.395.396-2.082.021-2.332-1.416-.333-1.936-.583-3.914-.916-6.163M257.139 465.67c.833 2.165 1.645 4.185 2.415 6.226.354.958.583 1.978.916 2.936.583 1.687.375 2.186-1.291 2.873-.541.208-1.041.5-1.957.916-.479-2.54-.937-5.039-1.437-7.725-1.478 1.999-2.478 4.352-5.268 5.205-.104-2.457 1.749-3.727 2.79-5.351 1.062-1.624 1.145-3.935 3.831-5.08M374.968 450.116c-1.395.833-2.686 1.728-4.081 2.394-.521.25-1.291-.042-1.957-.083.25-.583.354-1.353.812-1.728 1.957-1.603 3.956-3.144 6.038-4.581.562-.375 1.541-.5 2.186-.312.791.229.687 1.062.541 1.853-.458 2.499-.687 4.997-.187 7.537.083.437-.645 1.187-1.166 1.541-.437.312-1.104.312-1.687.375-1.02.125-1.645-.292-1.478-1.374.292-1.874.645-3.727.979-5.622M454.382 447.638c-1.353 1.228-2.332 2.103-3.311 2.998-.25.229-.458.666-.729.708-.708.104-1.458.062-2.165.062.271-.625.396-1.395.812-1.895 1.916-2.165 3.894-4.289 5.955-6.33.396-.396 1.228-.583 1.791-.458.333.062.687.895.729 1.416.146 2.228.062 4.497.25 6.725.104 1.249.562 2.457.958 4.102-.708.042-1.853.458-2.561.083-.645-.354-.979-1.541-1.145-2.415-.292-1.52-.375-3.04-.583-4.997" id="Path" fill="#323232"/><path d="M464.459 460.839c-.416.895-.625 2.29-1.312 2.603-1.811.812-3.56 2.374-5.788 1.603-2.603-.895-3.29-4.831-1.104-6.559 1.083-.854 2.353-1.541 3.623-2.082 2.54-1.041 4.643 1.978 4.581 4.435m-3.706-1.728l-.583-.271c-.604.937-1.291 1.853-1.791 2.853-.125.271.229 1.041.541 1.187.875.437 2.478-.916 2.332-1.916-.083-.625-.333-1.228-.5-1.853" id="Shape" fill="#323232"/><path d="M361.996 447.076c-2.207.396-4.352.77-6.788 1.208-.229-.604-.833-1.458-.625-1.832.354-.583 1.249-1.187 1.936-1.187 2.728 0 5.185-1.062 7.725-1.728.562-.146 1.145-.208 1.791-.333.541 1.624 0 2.769-.812 4.019-.812 1.249-1.52 2.707-1.832 4.143-.292 1.353-.812 2.165-2.27 2.54-2.499-2.624.479-4.518.875-6.829M318.354 419.258c-2.478 1.062-4.581 2.436-7.183 1.374 3.29-2.79 7.142-4.31 11.035-5.768.187.146.375.312.541.458-.396 1.291-.791 2.582-1.208 3.873-.583 1.811-1.187 3.602-1.77 5.393l.042.604c-.666.812-1.395 1.874-2.519 1.374-.937-.416-.875-1.416-.458-2.436.625-1.458.958-3.019 1.52-4.872M274.504 446.243c-2.457-2.041-.479-4.747-1.291-7.038-1.02.583-2.061 1.27-3.165 1.811-.77.375-1.728 1.02-2.353-.125-.666-1.208.604-2.186 1.166-2.29 2.415-.437 3.831-2.29 5.684-3.498.541-.354 1.208-.479 2.061-.791.104 3.894.187 7.371.292 10.786-.812.396-1.478.708-2.394 1.145M334.408 465.128c-1.458 2.748-2.915 5.476-4.393 8.204-.208.375-.437.916-.77 1.041-.625.208-1.562.458-1.978.167-.375-.271-.5-1.374-.271-1.916.625-1.437 1.499-2.769 2.27-4.102-1.832.354-3.498.666-5.143.979-.687-1.77.146-2.436 1.312-2.769l3.644-.875c.687-.208 1.458-.479 1.957-.958 1.228-1.208 2.228-.77 3.373.229M280.98 457.154c-2.748-2.332-2.478-5.018-2.644-7.683-1.936 1.707-3.769 3.29-5.601 4.893l-.604-.333c.125-.604.083-1.353.416-1.811.958-1.312 2.041-2.54 3.123-3.769.833-.958 1.666-1.916 2.582-2.769.396-.375 1.062-.77 1.52-.666.416.083.916.77.999 1.249.437 2.769.854 5.539 1.104 8.308.042.729-.521 1.52-.895 2.582" id="Path" fill="#323232"/><path d="M470.914 305.365c-2.353-.104-4.164-1.916-4.039-4.143.125-2.519 1.624-3.914 5.372-3.914 1.791 0 3.311 2.02 3.186 4.039-.125 2.311-2.165 4.123-4.518 4.019m0-6.017c-2.915.437-2.332 3.956-.208 3.894 3.665-.083 2.311-4.227.208-3.894" id="Shape" fill="#323232"/><path d="M310.775 443.974c-2.478-1.249-2.27-3.831-3.207-6.038-1.312 1.208-2.54 2.353-3.769 3.477-.812.75-2.145.541-3.477-.708 1.249-.958 2.478-1.853 3.644-2.832.895-.729 1.707-1.562 2.582-2.332.604-.521 1.208-1.145 1.916-1.437 1.27-.541 1.936.021 2.124 1.353.333 2.165.75 4.31 1.187 6.476.229 1.02-.208 1.603-.999 2.041M251.913 458.694c-.625.708-.895 1.145-1.291 1.458-.729.625-1.52 1.166-2.394 1.811-1.353-.791-1.145-1.895-.375-2.915 1.187-1.582 2.519-3.082 3.79-4.602.625-.75 1.77-.687 2.082.333.812 2.582 1.499 5.226 2.061 7.871.104.5-.583 1.166-.916 1.749-.625-.416-1.541-.708-1.791-1.27-.521-1.249-.708-2.665-1.166-4.435" id="Path" fill="#323232"/><path d="M470.352 331.954c-.146 3.56-1.832 4.248-4.143 4.331-2.457.083-3.415-1.603-3.165-4.935.146-1.957 1.728-3.248 3.831-3.102 2.998.208 3.665.916 3.477 3.706m-3.748 2.29c2.624.083 2.811-3.894.812-3.977-2.853-.104-3.331 3.894-.812 3.977" id="Shape" fill="#323232"/><path d="M467.541 258.35c-.083-1.187-.208-2.374-.312-3.56-.312-3.685-.604-7.371-.937-11.056-.354-3.81-.729-7.621-1.083-11.452-.208-2.29-.354-4.581-.521-6.871-.104-1.478-.562-2.311-1.77-2.311-1.083 0-1.978-.125-2.957.292-.645.25-.229 2.394-.25 3.165-3.831-2.499-10.931-2.79-13.472 1.416-1.541 2.582-2.853 5.247-3.061 8.162-.187 2.519 0 5.268.854 7.621 1.041 2.936 3.56 4.997 6.663 5.684 3.227.708 6.309.167 8.641-2.561.604-.687 1.27-1.312 1.895-1.978.208.229 1.145 7.954 1.353 11.723.208 3.29.541 3.207 3.186 3.394 1.312.104 1.853-.437 1.77-1.666zm-7.621-21.425c-.208 1.374-1.124 7.288-5.393 7.891-2.186.021-3.727 0-5.039-1.687-.708-.916-1.707-1.707-1.541-6.267.167-4.539 2.79-7.995 5.768-7.891 4.956.208 6.684 4.706 6.205 7.954z" id="Shape" fill="#91D0FF"/><path d="M414.883 257.413c-.729-.729-2.145-1.166-3.207-1.083-1.416.104-2.79.833-4.164 1.312-2.811.979-5.559 2.165-8.433 2.894-2.561.645-8.329.146-11.66-.708-1.728-.604-8.308-3.102-9.953-3.727-2.332-.875-4.352.167-5.684 1.728-.895 1.062-1.333 2.27-.292 3.831 1.478 2.207 3.602 3.352 5.684 4.789 4.789 3.29 14.95 5.018 19.385 4.518 4.643-1.166 9.432-2.02 13.43-4.935 2.02-1.478 4.143-2.853 5.268-5.309.583-1.27.375-2.582-.375-3.311zm-40.644 1.145c1.083-.333 2.894.375 3.019.645-.75.833-1.499 1.687-2.374 2.644-.541-.854-1.27-3.102-.645-3.29zm2.894 4.414l2.29-3.019s1.395.854 1.916.999c-.833 1.395-1.374 2.27-2.082 3.498-.271-.146-2.124-1.478-2.124-1.478zm7.183 3.956c-1.312-.562-2.29-.979-3.665-1.582.729-1.353 2.436-3.852 2.436-3.852s2.165.791 2.957.937c-.375 1.728-.958 2.54-1.728 4.497zm6.101 1.02c-.062.229-2.79-.25-3.519-.5.75-2.27 1.52-4.518 1.52-4.518s1.562.062 2.624.375c-.229 1.353-.25 3.248-.625 4.643zm2.998.312c.042-3.311.187-4.685.187-4.685s2.707-.187 3.186-.125c.021 1.416.062 2.832.104 4.643l-3.477.167zm7.017-.937l-.791-4.373 2.353-.729s1.062 2.957 1.541 4.019c-.562.292-3.102 1.083-3.102 1.083zm8.454-3.79c-1.041.5-1.916.937-2.957 1.458l-1.187-3.56 1.728-.812.77-.354c.458.937.958 1.916 1.645 3.269zm2.644-1.478l-.146-.312-.645-1.312-.708-1.416s2.644-.729 3.082.104c.416.854-.333 1.853-1.582 2.936zM300.615 462.234c2.894.333 4.706 1.936 6.017 4.039.666 1.062.479 2.561-.437 3.477-2.894 2.873-7.683 4.331-11.098-.167-1.541-2.02-1.333-4.164.875-5.518 1.416-.875 3.102-1.249 4.643-1.832m3.269 6.288c-.479-1.707-2.374-3.415-3.914-3.207-.833.125-1.811.999-2.207 1.791-.479.958.333 1.458 1.312 1.832 1.666.625 3.123.333 4.81-.416" id="Shape" fill="#323232"/><path d="M464.397 263.201c-1.603.021-3.914 2.54-3.956 4.31-.042 2.436 1.52 4.477 3.56 4.622 2.915.208 4.914-1.541 4.997-4.414.062-2.165-2.374-4.56-4.602-4.518zm2.103 5.643c-.292.479-1.666.729-2.332.479-.645-.229-1.291-1.208-1.395-1.916-.187-1.249.062-1.916 2.061-1.832 1.936.062 2.54 1.562 1.749 3.082l-.083.187z" id="Shape" fill="#323232"/><path d="M457.005 239.86c-.062 1.562-.604 3.04-2.103 3.456-.916.25-2.29-.229-3.019-.666-1.124-.708-1.333-2.478-.979-3.873.75-2.957 2.145-3.29 3.623-3.227 2.103.062 2.519 2.748 2.478 4.31M368.784 244.857c-2.957-.208-2.436-3.852-1.187-6.33.708-1.374 2.061-1.811 3.248-1.228 1.249.625 1.832 1.624 1.603 4.019-.479 2.748-1.52 3.685-3.665 3.54" id="Path" fill="#323232"/><path d="M314.648 189.43c-.021-2.644-.208-5.164-.021-7.642.187-2.457.937-10.098.583-12.93 5.622-.271 10.89-.687 16.158-.708 7.642-.042 37.416.645 43.246.645 1.416 0 51.866-.333 58.654-.083l9.869.375c.187 2.519.375 10.161.562 12.722-.583.062-10.994.645-16.428.042-1.52-.167-14.992-.354-17.844-.416-1.395-.042-2.332.375-2.27 1.52.104 1.853.167 2.478.25 4.268-2.311-.083-4.81-.25-6.975-.333-.062-2.936-.458-9.224-.396-9.765.021-.271.083-.479.146-.625-.271.021-.645 0-1.166-.125-1.187 1.166-.437-.271-1.582.875.333 4.435 0 2.915.271 11.743.958.229 12.056.645 12.16.042.354-1.832.125-3.477.208-5.393.583-.208 8.349.666 11.723.729 6.6.125 24.59.5 24.778-.604.208-1.249-.104-3.706-.292-5.018-.187-1.374-.354-7.954-.562-9.536 4.268.312 9.703-.625 12.368-.104 1.208.229.521 14.325.791 18.281-1.416.104-3.102.271-4.789.354-2.915.125-5.83.187-8.745.271-2.79.083-12.784.521-14.992.583-1.874.042-9.807-.187-11.868-.375-1.666-.146-2.228-.187-2.228 1.166v3.394c-1.645-.062-21.613.125-26.089.25-4.851.125-9.724-.042-14.596.042-3.748.062-7.496.312-11.244.479-.687.021-3.436-.021-3.665-.354-.416-.604-.25-7.288-1.041-8.391-1.187-1.687-1.291-.354-1.936 2.332.146 2.644-.042 5.455.021 8.516 0 .5 3.352.437 3.998.479 4.352.292 38.02-1.187 42.851-1.187.854 0 1.707.104 2.582.146l6.33.187c1.77.062 4.706.437 5.247.187.562-.25.125-3.269.187-4.872 4.997.187 32.981-.208 38.228-.375 2.415-.062 2.374.187 2.499 2.603.292 5.143.729 10.265 1.124 15.387.229 2.873.479 5.768.645 8.641.083 1.353-.521 3.248.354 3.269.5.021 2.79.104 2.873-.271.25-.979-.042-2.061-.167-3.186-.292-2.853-1.811-14.179-2.145-17.115.645-.042 2.353-.021 2.811-.271.375-.208 1.124.312 1.166-1.145 0-.271.375-3.873.312-6.059-.042-.958 3.082-4.102 4.019-5.039.687-.708 1.645-1.353 2.603-1.562 1.374-.292 3.602.479 3.602.479s-.229 2.54-.521 3.685l-1.416 5.663c-.479 1.957-.521 3.894.187 5.83.729 1.999 2.582 2.873 4.248 2.811 5.33-.187 4.414-6.517 3.81-8.724-.708-2.624-1.811-6.621-2.415-9.266-.104-.416 2.249-1.936 3.331-2.853 1.02-.895 2.728-1.978 4.185-1.562-1.166 2.165-1.978 4.352-1.874 6.85.104 2.873 2.353 4.976 5.476 4.893 2.54-.062 4.164-2.124 3.977-4.976-.187-3.082-1.27-5.747-3.311-7.995 1.208-1.52 2.145-3.082 3.456-4.248 1.978-1.791 4.081-3.436 6.33-4.872 1.166-.75 1.145-1.312.645-2.332-.583-1.166-1.458-1.27-2.353-.604-1.041.77-1.999 1.707-2.936 2.624-2.748 2.686-5.476 5.393-8.329 8.204-1.936-.916-4.081-.521-5.976.521-1.936 1.083-3.623 2.624-5.663 4.164-1.541-.979-3.79-1.249-6.538-.25-1.978.708-3.269 3.706-5.351 5.143-.146-2.207-.229-4.206-.375-6.226-.062-.729.167-1.145-.979-1.228-.895-.062-2.041.083-2.519.208-.104-.687-.479-11.389-.833-13.638-.25-1.603-.083-1.791-2.27-1.624-3.269.625-14.409.312-16.699.25-6.621-.208-33.148-.354-39.852-.333-.146-.583-.416-1.291-.521-2.02-.375-2.519-.083-4.289-2.665-4.019-2.186.229-7.329.125-9.12.271-.812-1.291-2.228-3.581-2.228-3.581s4.06.937 7.308.125c2.624-.645 3.186-2.499 3.04-3.998-.125-1.208-1.645-2.394-3.415-2.686-2.603-.541-6.33.187-8.849 1.957-2.124-2.707-.708-5.247-.708-5.247s2.457 1.312 4.248 1.582c2.519.396 5.601-1.312 6.475-2.811 1.687-2.915-5.559-4.914-8.578-3.706-.437.167-1.562.729-1.562.729s.5-4.914 1.707-6.913c.625-1.02.729-2.644.021-3.061-.708-.396-2.353 1.187-2.644 2.041-.875 2.665-1.541 5.434-1.811 8.204-.104 1.124-.083 2.061-.812 3.019-1.707 2.249-.5 5.518.875 8.183 1.603 3.123 2.707 5.455 3.019 6.538-.979.083-3.123.333-4.039.25-2.394-.208-2.665.229-2.624 1.874 0 .5.146 2.29.25 3.019-.875-.042-17.324.77-21.03.708-8.204-.125-30.733-1.104-33.71-.729-2.624.333-8.495-.083-8.87-.083-3.831-.062-3.248-.083-3.227 3.519 0 .812-.354 7.308-.229 8.204-3.04 0-3.29-.521-3.685 2.353-.125.895-.125 1.811-.167 2.707-.042.854-.062 1.687-.104 2.811-1.104-.583-1.874-.895-2.54-1.333-2.936-1.541-6.975-1.083-12.139 1.437-6.122-.729-10.411 1.77-13.326 7.079-.708 1.312-.625 2.27.562 3.79.708-1.166 1.374-2.082 1.874-3.082 1.166-2.394 2.957-4.143 5.497-4.831 1.582-.416 3.352-1.312 4.914.021-.146.687-.312 1.249-.354 1.832-.083 1.041-.187 2.103-.104 3.144.208 2.436 1.978 4.581 3.873 4.872 4.914.645 5.289-5.976 3.79-7.871-.895-1.145-2.603-2.228-3.498-3.436 4.393-2.582 7.808-.042 10.869 1.582-.021.312.021 4.706.021 4.706-.042 1.291 2.79 1.27 4.331 1.208l-.25 6.705c1.27-.167 10.681.729 14.596.521 6.85-.354 53.782-.187 58.217-.187 3.831 0 7.662-.042 11.473-.021 4.872.021 9.765.167 14.638.125 1.374 0 1.645.521 1.666 1.728.042 1.811.229 3.623.354 5.455-2.665 1.562-3.519 2.915-2.957 4.831.708 2.374 2.894 2.186 4.643 2.249 2.353.104 2.873-1.916 3.498-3.748-.895-1.104-.354-1.978-2.54-3.331-.458-2.082-.396-4.352-.229-6.517.187-2.27-.25-3.207-2.478-3.331-1.687-.083-30.379.5-34.73.479-4.56-.021-54.094-.333-60.82-.458-2.249-.042-3.04-.937-2.957-3.186.042-1.312.104-2.644.146-3.706 11.993-.146 23.799-.292 35.855-.437l.354-13.638 14.013-.312c6.33.229 12.659-.791 19.01-.521 1.374.062 6.913.021 6.934-.312.062-1.645.604-2.145-2.082-2.228-.937-.042-9.349.042-12.264-.021-4.393-.104-15.054.625-15.97.562-3.956-.312-7.891.167-11.868.104-1.832-.021-1.228 1.811-1.27 2.873-.083 2.457-.146 8.162-.104 11.119m48.16-35.688c-1.728 1.499-4.31 1.104-6.267.333 2.499-2.394 4.289-1.582 6.267-.333zm-5.143-10.244c4.289.083 3.998 1.916 3.436 2.29-.562.396-1.936.791-3.54.75-2.748-.083-3.498-1.353-3.498-1.353s.167-1.749 3.602-1.687zm-91.636 50.555c-.021.292-.271 2.582-2.103.958-2.707-2.374-.541-5.247-.541-5.247s2.769.854 2.644 4.289zm181.522 7.059c-2.165.354-3.56-4.622-1.249-9.744 1.936 2.894 3.415 9.391 1.249 9.744zm12.951-12.555c.25 1.624-.5 2.29-1.936 2.207-1.437-.083-2.041-1.083-2.02-2.561.042-2.769 1.811-4.956 1.811-4.956s1.645 2.02 2.145 5.309z" id="Shape" fill="#323232"/><path d="M392.979 176.084c-.062 1.582-1.395 2.832-2.977 2.769-1.582-.062-2.832-1.395-2.769-2.977.062-1.582 1.395-2.832 2.977-2.769 1.582.062 2.832 1.395 2.769 2.977M362.017 184.85c-.062 1.582-1.395 2.832-2.977 2.769-1.582-.062-2.832-1.395-2.769-2.977.062-1.582 1.395-2.832 2.977-2.769 1.582.062 2.811 1.395 2.769 2.977M401.89 176.25c-.062 1.582-1.395 2.832-2.977 2.769-1.582-.062-2.832-1.395-2.769-2.977.062-1.582 1.395-2.832 2.977-2.769 1.603.062 2.832 1.395 2.769 2.977" id="Path" fill="#323232"/><path d="M391.625 298.847l-.146-2.624c-.604-3.311-.458-3.519-1.936-5.705-1.083-1.603-2.873-2.707-2.894-2.707l.042-1.083c4.602-3.769 5.851-12.035 5.872-12.118l1.312.042c.25 8.932 3.102 10.411 4.726 11.702l-.187 1.104c-4.643.875-5.58 11.306-5.58 11.41l-1.208-.021zm-2.894-11.681c.396.25 1.374 1.437 2.103 2.79 1.083 1.999 1.041 1.416 1.582 3.748.187-.958.333-2.145.791-3.436.5-1.416.645-1.874 2.977-3.394-1.687-1.312-2.332-3.019-3.102-7.995-.666 2.686-1.041 5.268-4.352 8.287M376.488 298.285l-.167-2.832c-.645-3.56-1.145-3.914-2.728-6.267-1.166-1.728-3.665-3.706-3.685-3.727 0 0 2.977-2.353 4.956-5.539 1.728-2.811 2.499-7.059 2.519-7.1l2.061.083c.833 7.496 3.873 10.577 5.747 12.68 0 0-2.519 2.082-4.477 5.455-1.728 2.977-2.915 7.267-2.915 7.308l-1.312-.062zm-3.123-12.597c.437.271 1.478 1.562 2.27 3.019 1.166 2.165 1.166 2.165 1.916 4.102.208-1.041 2.228-5.768 4.726-7.412-1.811-1.395-3.29-3.956-4.102-9.328-.729 2.915-1.228 6.351-4.81 9.62M448.926 281.17s-1.499-5.788-3.207-8.287c-1.228-1.832-4.706-5.372-4.726-5.372 0 0 3.186-2.499 5.268-5.892 1.853-2.998 2.665-7.517 2.686-7.558l2.186.083c.895 7.975 4.123 11.244 6.122 13.492 0 0-1.874 2.27-4.123 5.955-2.27 3.644-4.206 7.579-4.206 7.579m-4.248-13.43c.458.292 1.562 1.645 2.415 3.207 1.249 2.29 1.249 2.29 2.041 4.373.208-1.104 2.374-6.122 5.039-7.891-1.936-1.499-3.498-4.206-4.373-9.911-.791 3.082-1.333 6.746-5.122 10.223" id="Shape" fill="#323232"/><path d="M398.663 325.791c-1.062-3.477-3.123-6.267-4.893-9.266-1.166-1.978-2.02-2.748-3.415-4.56 0 0 2.582-3.79 2.998-4.123 0 0-2.103-2.582-3.415-4.373-2.561-3.519-4.268-8.474-4.268-8.474s-3.331 5.018-5.268 8.225c-1.52-.604-2.415-.562-4.518-.645 0 0-11.015.312-17.99 13.555-.999 2.353-2.041 4.685-3.019 6.954-2.457-.104-8.1-1.645-8.016.521-.292 2.561-.021 5.372.187 8.016-3.061.083-5.83.146-8.745.229-.229-.583-1.458-9.182-1.645-12.889-.062-1.312.042-2.832-1.041-3.436-1.124-.645-10.119-.25-10.619-.791-.5-.521-.479-6.746-.666-9.703-.187-3.207-.208-14.617-.521-18.281-.062-.708.583-3.831-1.458-3.935-1.249-.062-6.351-.208-7.371-.083 0-5.122-.021-9.994.021-14.846l.229-7.704c.021-1.707.167-3.894-.042-5.601-.062-.541-3.873-.729-4.019-.229-.292 1.02.229 6.85.146 9.12-.187 4.497.333 10.327.167 14.825-.083 2.311-.396 7.433.146 7.766.562.333 6.267.271 9.245.75.187.916.458 12.472.875 17.386.333 3.998-.292 13.43.396 13.909.708.479 8.474.042 11.743-.104-.187 5.559 1.062 15.908 1.083 17.053.75.271 1.437.146 2.207.187 2.707.125 10.057-.146 10.057-.146s.354 9.495.083 12.993c-.104 1.228.916 1.02 2.311 1.187 1.499.187 2.519.312 3.352.25-.062 1.541.062 1.645.167 2.624.312 3.04.833 7.121 3.061 13.451 3.331 9.474 12.264 12.264 18.052 13.076 5.143.729 9.536-.458 13.93-2.873 9.037-5.892 12.805-16.907 13.097-22.966.437-9.474.687-18.906-2.624-27.047zm-48.931 21.342v-.666c-.062-3.415.042-6.829.146-10.244l.146-10.39 1.603.062c.583 0 1.187-.021 1.582.062v.021c.042.708.062 1.437.062 2.145l.541 19.177-4.081-.167zm32.419-39.728c.562-1.249.979-2.311 1.478-3.311.479-.979 1.062-1.936 1.478-2.707 1.145 2.311 2.353 4.706 3.436 6.913-1.312 1.895-2.603 3.79-3.998 5.809-1.208-1.791-2.499-3.685-3.977-5.851l1.582-.854zm-25.381 18.677l7.454.271-.083 2.124c-2.374.292-4.789.583-7.517.916l.146-3.311zm8.745 12.68c2.603-3.498.916-7.35.916-7.35s.999-1.645.895-4.352c-.104-2.519-1.291-3.873-1.291-3.873s1.041-2.165 2.561-3.165c3.602-2.374 6.621-1.437 7.725-.75 3.373 2.061 5.268 5.309 6.829 8.766 3.769 8.266 4.726 17.324 4.976 20.239.375 4.185-.958 8.079-2.811 11.785-.75 1.499-2.915 6.621-7.766 6.33-4.518-.25-7.704-1.666-9.411-5.955-1.458-3.665-2.582-7.475-3.831-11.202 2.186-.895 2.665-1.853 3.352-5.247-.021-2.853-.146-3.914-2.145-5.226zm-.999 7.1c-2.769.167-5.268.312-8.204.479l.167-4.581c3.436.062 5.872-.104 8.558.312-.208 1.541-.375 2.748-.521 3.79zm-8.849-9.578c.354-.895.104-2.041.416-2.79.562.021 1.208.021 1.853.021l4.102-.021c.666 0 1.333 0 1.936.042l-.125 3.144c-.875.021-7.017-.354-8.183-.396zm42.538 22.446c-.875 3.456-4.081 9.744-7.163 12.181-3.082 2.457-10.098 6.163-15.762 5.58-2.707-.271-8.787-2.374-11.931-6.142-3.331-3.977-5.539-7.1-6.892-13.326-.312-2.374-.354-4.789-.521-7.308 2.499-.25 5.726-.875 5.726-.875.437 1.603.833 3.165 1.291 4.706.625 2.186 1.395 4.352 1.957 6.538 2.977 11.473 14.679 8.599 16.47 7.995 3.248-1.083 7.85-5.185 8.787-14.179.979-9.536-.333-17.303-2.894-23.716-1.52-3.79-5.185-10.327-8.12-12.951-2.915-2.603-8.683-3.019-11.764-.479-1.853 1.52-3.311 3.394-4.539 6.33l-4.768-.167s5.58-14.492 12.618-15.699c2.228-.625 6.371-1.603 8.183-1.499-.979 1.145-2.082 2.54-2.873 3.498 1.166.895 3.04 3.29 4.935 5.309 2.249 2.374 4.039 5.309 4.893 6.309l3.144-6.559s3.935 4.164 6.934 10.557c4.664 10.036 4.039 26.839 2.29 33.897zM431.374 467.086c2.894.333 4.706 1.936 6.038 4.039.666 1.062.479 2.561-.437 3.477-2.894 2.873-7.683 4.331-11.098-.167-1.541-2.02-1.333-4.164.875-5.518 1.374-.895 3.082-1.249 4.622-1.832m3.248 6.288c-.479-1.707-2.374-3.436-3.914-3.207-.833.125-1.811.999-2.207 1.791-.479.958.333 1.458 1.312 1.832 1.687.625 3.144.333 4.81-.416M444.658 470.479c.937-2.748 2.915-4.164 5.247-5.018 1.166-.437 2.603.083 3.29 1.187 2.186 3.436 2.582 8.433-2.561 10.806-2.311 1.062-4.352.416-5.205-2.041-.541-1.562-.521-3.29-.77-4.935m6.85-1.832c-1.77.104-3.852 1.582-3.977 3.123-.062.833.583 1.978 1.27 2.54.833.666 1.478-.021 2.061-.895.979-1.478.999-2.977.645-4.768" id="Shape" fill="#323232"/><path d="M367.431 431.876c.999 2.936 1.978 5.872 2.957 8.808.146.416.375.937.229 1.27-.271.604-.729 1.437-1.249 1.541-.458.083-1.353-.583-1.582-1.104-.625-1.437-.979-2.998-1.437-4.456-.999 1.562-1.916 2.998-2.832 4.393-1.749-.729-1.666-1.77-1.124-2.853.562-1.104 1.291-2.145 1.874-3.248.333-.645.645-1.374.645-2.061 0-1.707.999-2.124 2.519-2.29M430.374 437.706c-1.124 2.894-2.249 5.788-3.373 8.662-.167.396-.312.958-.645 1.124-.604.292-1.499.645-1.936.396-.416-.229-.666-1.312-.5-1.853.458-1.499 1.166-2.936 1.749-4.352-1.77.562-3.394 1.062-4.976 1.582-.895-1.687-.146-2.436.979-2.915 1.145-.5 2.374-.812 3.519-1.291.666-.292 1.395-.645 1.811-1.166 1.062-1.353 2.103-1.041 3.373-.187M477.598 470.167c1.249 2.832 2.519 5.663 3.748 8.495.167.396.458.895.333 1.249-.229.625-.604 1.499-1.083 1.645-.437.125-1.395-.437-1.666-.958-.75-1.374-1.249-2.894-1.832-4.31-.854 1.645-1.645 3.165-2.394 4.643-1.811-.562-1.832-1.603-1.374-2.748l1.562-3.415c.271-.666.521-1.437.458-2.124-.208-1.666.729-2.186 2.249-2.478M501.73 471.416c-2.165 2.228-4.331 4.435-6.517 6.642-.312.312-.666.77-1.02.77-.666.021-1.624 0-1.936-.396-.292-.375-.104-1.458.271-1.895.999-1.208 2.228-2.228 3.331-3.311l-5.205-.521c-.167-1.895.812-2.29 2.041-2.29l3.748.187c.708 0 1.52-.042 2.145-.354 1.478-.812 2.311-.125 3.144 1.166M327.12 442.537c.916 2.957 1.853 5.913 2.748 8.87.125.416.354.958.187 1.27-.292.604-.77 1.437-1.27 1.52-.458.083-1.333-.604-1.541-1.145-.583-1.458-.916-3.019-1.333-4.497-1.041 1.541-1.978 2.957-2.915 4.331-1.749-.75-1.624-1.811-1.062-2.894l1.936-3.207c.333-.625.687-1.374.687-2.061.042-1.666 1.041-2.061 2.561-2.186M295.451 456.487c-1.582 2.686-3.144 5.351-4.726 8.016-.229.375-.458.895-.812.999-.645.187-1.582.396-1.978.083-.375-.292-.458-1.395-.208-1.916.687-1.416 1.624-2.707 2.436-4.019-1.832.271-3.519.521-5.164.75-.604-1.791.25-2.415 1.437-2.728 1.208-.312 2.457-.416 3.685-.729.687-.167 1.478-.416 1.978-.875 1.27-1.124 2.249-.645 3.352.416" id="Path" fill="#323232"/><path d="M448.76 319.586c-.5-.625-.895-1.437-1.041-2.228-.791-4.123-1.541-8.245-2.186-12.389-.479-3.04-.791-6.101-1.228-9.599-2.124.77-4.581 1.562-6.33 2.207 0 0 .062-2.519.167-3.706.229-2.457.333-4.935.458-7.392.062-1.166.062-1.582.125-3.102.354-.187.729-1.312 1.27-1.811 1.312-1.187 1.874-1.687 1.874-1.687s-1.166-2.353-2.748-4.831c-1.874-2.936-3.123-7.975-3.123-7.975s-3.144 6.351-4.581 8.37l-8.245-.625c-.396-.167-1.416.666-1.874 1.249-2.603 3.248-11.285 14.887-13.18 17.365-1.707 2.207-3.394 4.456-5.33 6.434-1.208 1.228-1.333 1.228.021 2.478 2.249 2.103 9.224 7.891 9.224 7.891 1.624-2.374 7.642-10.765 8.828-12.243.229 3.998.416 7.579.645 11.681-.833-1.02-1.791-2.186-1.791-2.186l-1.645 2.665 3.227 3.311s.083 2.478.083 3.373c.021 3.956-.208 7.933-.125 11.889.208 1.041.25 7.746-.437 23.716-.104 2.249-.104 9.432.333 11.639 0 0 17.219-.187 18.948-.937 0 0-.083-4.602-.187-6.829-.167-3.998-1.811-27.547-1.895-30.316 1.478-.354 2.748-.666 4.185-.999.958.916 1.874 2.27 3.769 1.916 3.873-.687 4.81-4.726 2.79-7.329zm-11.202 41.414l-13.284.333c-.083-.645-.187-1.145-.208-1.624l-.083-24.694c-.042-1.853-.25-19.739-.292-24.132 0-.604.021-1.208 0-1.791-.146-4.248-.541-13.638-.77-13.971-.416-.604-.895-1.208-1.499-1.562-.167-.083-.958.666-1.312 1.166-2.811 3.894-5.601 7.787-8.662 12.097-2.041-2.103-3.873-4.019-5.872-6.08 2.603-3.352 15.033-20.322 17.074-22.925 0 0 2.915-.375 6.455.541-.979.979-2.686 2.665-2.686 2.665s2.582 2.457 3.956 4.872c1.957 3.456 2.436 5.164 2.894 5.955 2.145-2.499 1.603-2.332 3.061-4.331-.479 3.894-.916 7.454-1.353 11.098-1.582.687-4.789 1.707-4.789 1.707l.708 3.123s2.748-1.228 3.894-1.791c.187.208-.042 13.367.208 19.801.208 5.414 1.228 21.009 1.374 23.383.167 2.707 1.104 11.827 1.27 13.701.062.729-.042 1.52-.083 2.457zm4.123-38.353l-4.06.979c-.062-2.519-.125-5.164-.187-7.808-.104-4.518.125-6.267-.083-10.786-.042-1.124.167-4.602.167-4.602s3.207-1.083 4.706-1.582c.979 7.017 1.916 13.784 2.832 20.53-2.186.416-2.853 2.041-3.373 3.269zm4.539 1.582c-1.353.396-2.457-.396-1.874-2.082.583-1.687 3.186-1.062 3.102.812-.021.458-.854 1.166-1.228 1.27z" fill="#323232"/><path d="M435.642 272.862c.812 1.562 2.457 4.747 3.311 6.413-1.562 2.415-3.727 5.622-5.226 7.954-1.291-2.644-2.145-4.456-3.54-5.83 1.895-2.624 3.81-6.226 5.455-8.537" id="Path" fill="#FFCB52"/><path d="M418.881 212.625c-.083 2.499-2.186 4.435-4.685 4.331-2.499-.083-4.435-2.186-4.352-4.664.083-2.499 2.186-4.435 4.685-4.352 2.499.104 4.435 2.186 4.352 4.685" id="Path" fill="#91D0FF"/><path d="M385.317 316.442c-.77-1.124-1.562-2.353-2.998-4.019-.833-.958-2.478-3.269-3.019-4.06.333-.187 1.874-2.311 3.102-3.894 1.458-1.895 2.603-4.102 2.832-4.518.708 1.416 1.666 2.79 2.728 4.102.666.833 2.665 3.623 2.665 3.623-.645.937-2.082 2.873-2.811 4.081-.895 1.541-1.811 3.665-2.499 4.685" fill="#FFCB52"/></g></g></svg>