<svg width="677" height="607" viewBox="0 0 677 607" xmlns="http://www.w3.org/2000/svg"><title>bot-contact</title><g fill="none"><g transform="translate(0 1)"><circle id="Oval" fill="#FFCB52" style="mix-blend-mode:multiply" cx="374.56" cy="302.44" r="302.44"/><circle id="Oval" fill="#D138FF" style="mix-blend-mode:multiply" cx="172.74" cy="369.326" r="172.74"/><circle id="Oval" fill="#6BFFC5" style="mix-blend-mode:multiply" cx="216.942" cy="479.832" r="126.21"/><path d="M397.825 578.125c139.408 0 252.421-113.013 252.421-252.421s-113.013-252.421-252.421-252.421-252.421 113.013-252.421 252.421 113.013 252.421 252.421 252.421z" fill="#fff"/></g><g fill="#1A1919"><path d="M325.284 431.5c2.4.075 4.521.045 6.62.254 8.861.945 13.868 6.344 12.999 15.026-2.406 24.002-17.588 32.336-39.048 32.219-8.78-.053-14.343-7.534-17.655-14.698-3.42-7.359 1.062-14.477 6.039-19.779 8.296-8.825 18.077-15.431 31.045-13.022m-24.487 29.47c10.258 4.58 19.357 2.96 26.968-5.282 4.085-4.443 2.529-8.301-3.415-9.446-11.015-2.135-19.67 3.242-23.554 14.728"/><path d="M434.967 415.257c-1.798 19.069-26.946 39.156-42.332 30.794-9.377-5.088-19.26-18.783-9.804-32.162 6.17-8.732 14.914-15.86 26.287-18.232 15.174-3.172 26.572 5.445 25.848 19.6m-13.095 6.499c.359-4.802-5.339-11.225-10.16-11.463-4.937-.236-16.197 9.974-15.202 15.108.718 3.655 3.996 8.682 7.174 9.651 7.663 2.267 17.611-5.796 18.188-13.295"/><path d="M516 493.87c-1.689 6.486-3.285 11.458-4.273 16.525-2.838 14.409-17.324 25.841-31.369 24.498-6.489-.607-17.908-12.084-19.845-19.933-2.021-8.097 2.124-18.81 9.085-23.982 10.031-7.429 22.178-7.635 33.549-7.976 4.354-.135 8.94 7.361 12.853 10.868m-13.752 2.926c-6.071.911-11.887.982-17.059 2.841-6.528 2.353-9.833 14.358-6.33 19.933 2.272 3.586 11.148 4.514 15.75.542 2.847-2.474 4.594-6.689 5.875-10.459 1.189-3.456 1.086-7.347 1.764-12.857"/><path d="M626.831 386.339c-1.172 13.779-18.62 30.615-32.771 31.634-9.085.642-21.463-10.151-19.93-18.935 2.203-12.649 5.971-25.259 19.35-31.428 8.143-3.748 16.727-3.542 24.157 1.15 6.01 3.782 10.279 9.596 9.194 17.578m-13.641.65c-1.358-3.023-1.941-7.251-4.128-8.34-2.212-1.122-6.594.025-8.98 1.672-3.562 2.439-6.853 5.806-9.065 9.509-2.508 4.161.352 13.394 4.1 14.904 5.571 2.211 9.764-.938 12.565-4.993 2.443-3.539 3.522-7.985 5.509-12.752"/><path d="M422.276 525c-12.151-14.485 3.54-23.896 2.263-35.582-9.162 6.238-18.075 12.581-27.315 18.421-2.753 1.742-6.361 2.523-9.644 2.764-1.538.122-4.415-1.95-4.563-3.281-.196-1.723 1.303-4.342 2.846-5.423 11.725-8.168 23.696-15.941 35.449-24.091 6.546-4.546 12.621-9.799 19.285-14.167 1.807-1.183 4.905-.349 7.403-.429-.123 2.171.173 4.461-.465 6.471-4.286 13.599-8.249 27.347-13.45 40.611-1.98 5.02-6.963 8.84-11.809 14.706"/><path d="M240.555 395c-15.413-1.529-21.689-10.254-20.388-23.968 1.332-14.042 14.884-24.075 28.266-20.189 6.089 1.778 10.74 8.847 15.815 13.725 1.12 1.077 1.257 3.163 1.887 4.771 4.105 10.184 1.558 17.414-8.834 21.653-5.69 2.315-12.044 2.948-16.745 4.008m13.178-11.453c.697-.854 1.371-1.699 2.048-2.547-1.352-4.211-2.965-8.366-3.966-12.64-1.19-5.034-4.877-6.159-8.683-5.186-2.987.76-7.34 3.137-7.78 5.455-.599 3.05 1.059 8.287 3.472 9.842 4.295 2.761 9.879 3.513 14.909 5.076"/><path d="M515.649 150.847c-9.348 5.431-18.5 10.1-26.835 15.877-4.019 2.785-7.411 3.455-9.575-.234-.968-1.63 1.178-6.614 3.322-8.258 5.989-4.549 12.816-8.01 19.138-12.179 4.316-2.85 8.458-5.998 12.418-9.299 6.857-5.705 10.353-5.205 13.563 3.57 2.564 7.014 3.664 14.566 5.525 21.833.82 3.212 1.774 6.422 2.97 9.497 2.27 5.841-.353 13.26-5.357 14.675-6.544 1.809-9.732.087-10.885-6.603-1.584-9.14-2.737-18.314-4.285-28.877"/><path d="M358.619 497c4.717 13.9 9.434 27.775 14.078 41.669.661 1.945 1.779 4.454 1.083 5.972-1.334 2.884-3.512 6.836-5.926 7.324-2.181.398-6.445-2.735-7.522-5.241-2.936-6.847-4.68-14.182-6.844-21.12l-13.468 20.795c-8.406-3.387-7.972-8.346-5.327-13.528 2.702-5.261 6.219-10.093 8.919-15.357 1.539-3.023 3.132-6.503 3.09-9.782-.12-8.01 4.617-10.014 11.917-10.733"/><path d="M294 232.673c-1.257 22.141-24.788 42.033-44.019 45.659-4.055.761-8.298 2.037-12.28 1.567-15.59-1.786-21.439-13.392-15.311-28.239 8.436-20.456 24.999-29.315 45.551-31.601 4.899-.55 10.494 2.916 15.418 5.286 3.731 1.767 6.886 4.685 10.641 7.328m-20.145.722c-16.295-2.443-24.813 1.301-32.085 14.99-3.104 5.822-3.591 12.912 1.06 17.602 2.325 2.351 8.818 2.55 12.589 1.27 15.486-5.235 21.422-16.844 18.435-33.862"/><path d="M523.665 375.995c-21.661.351-31.459-17.966-27.977-33.155 2.686-11.72 13.508-21.05 25.406-20.837 7.418.135 14.953-.154 22.278.932 14.995 2.25 26.557 24.961 19.509 36.322-4.737 7.61-12.018 11.538-19.88 14.015-6.112 1.936-12.865 1.883-19.335 2.722m29.073-22.461c-2.624-2.627-5.562-5.623-8.586-8.541-1.174-1.136-2.963-1.866-3.729-3.185-5.431-9.31-13.782-12.034-23.047-7.265-8.181 4.189-10.531 21.996-3.097 26.334 9.62 5.57 31.692 5.57 38.458-7.343"/><path d="M415.67 347.547c-1.63-7.136-.342-9.99 4.451-12.364 12.116-5.993 23.924-12.603 35.642-19.329 9.388-5.394 18.525-11.243 27.7-17.005 3.001-1.894 6.338-4.9 9.006-.798 1.61 2.481 1.748 6.465 1.33 9.592-.334 2.573-2.841 4.779-3.711 7.372-7.248 21.585-14.234 43.293-21.619 64.833-.926 2.7-3.736 4.748-5.747 7.153-8.215-7.993-6.972-15.837-4.086-24.175 4.816-13.904 9.258-27.943 14.152-42.92-19.411 9.735-35.97 22.596-57.118 27.642"/><path d="M447.032 263.799c2.842-12.225 9.838-30.603 27.345-34.504 6.269-1.369 12.759-3.135 18.426-1.85 4.967 1.115 9.833 5.781 13.2 10.07 6.305 8.009 5.113 16.738-3.303 26.909-9.169 11.121-21.878 17.305-35.356 21.166-9.956 2.847-21.015-9.716-20.312-21.793m48.955-19.568c-12.941-4.697-18.822-5.074-23.19-.36-5.484 5.888-5.585 13.362-5.049 21.013.408 5.784 3.354 6.795 8.163 5.683 12.031-2.839 20.219-13.348 20.076-26.336"/><path d="M429.913 286c-3.65-.984-5.625-1.371-7.466-2.083-1.793-.695-4.868-1.646-4.948-2.638-.593-9.434-.727-18.899-.873-28.366-.056-3.566.238-7.121.394-11.562-12.655 9.095-19.586 22.981-33.674 29.232-3.483-8.175.442-12.086 4.361-16.288 7.097-7.586 13.83-15.554 20.954-23.137 6.081-6.462 8.489-14.245 9.032-22.773.35-5.615 2.294-10.281 8.554-9.238 5.15.847 10.162 3.504 8.386 10.645-.82 3.353-2.19 6.669-2.395 10.045-1.041 18.498-2.895 37.018-.327 55.588.425 3.157-1.195 6.591-2 10.575"/><path d="M337.255 207c-7.8-1.846-13.607-2.233-18.534-4.572-7.482-3.561-11.388-9.592-10.627-18.905.715-8.904 4.945-14.044 12.987-15.407 17.873-3.069 35.931-4.756 50.642 9.231 8.631 8.187 6.457 18.806-4.923 22.681-10.109 3.456-20.844 4.987-29.545 6.972m20.438-23.659c-10.951-8.602-27.123-7.766-35.822 1.365 15.674 11.666 24.561 11.475 35.822-1.365"/><path d="M221.975 467.717c-6.98 4.481-14.443 5.643-22.638 1.045-.715-3.943-.765-7.315 4.774-9.204 16.325-5.498 30.447-14.632 42.629-26.879 2.208-2.235 5.743-3.154 8.683-4.679 1.254 3.336 3.571 6.713 3.571 10.054.028 16.689 0 33.436-1.429 50.044-.332 3.89-5.475 9.023-9.546 10.547-4.774 1.761-5.732-3.394-5.576-7.54.472-12.434.921-24.862 1.446-38.706-8.348 5.871-14.963 10.834-21.915 15.318z"/><path d="M339 390.166c-5.903 2.531-9.955 4.272-13.626 5.834-6.833-6.593-.887-12.272-.806-18.005.093-6.503-1.69-13.067-2.859-21.045-9.439 11.758-17.959 22.379-26.323 32.783-10.784-5.573-10.284-7.882-3.499-15.031 8.551-8.952 17.272-18.193 21.976-30.177 1.778-4.525 3.808-9.14 6.673-13.003 1.53-2.062 5.15-3.697 7.698-3.509 1.752.121 4.443 3.534 4.71 5.733 2.28 18.843 4.114 37.764 6.058 56.418"/><path d="M240.068 211c-3.678-4.173-5.724-6.519-7.815-8.876 4.951-14.549 17.557-22.47 28.807-34.176-10.511-.388-19.2-.606-27.888-1.064-8.037-.436-8.037-.556-8.173-11.418 10.247.078 20.474.33 30.689.204 5.397-.101 10.822-.651 16.17-1.352 3.985-.528 9.077-3.511 10.864 1.757.995 2.975-.845 7.999-3.114 10.736-7.877 9.583-16.528 18.532-24.819 27.791-1.849 2.067-3.255 4.553-5.129 6.578-2.829 3.156-5.893 6.069-9.593 9.82"/><path d="M355.887 249.365c-8.898 1.756-17.765 3.697-26.716 5.156-4.053.654-8.336.858-12.355.233-1.596-.255-3.891-3.361-3.813-5.091.056-1.722 2.431-4.429 4.233-4.825 16.408-3.793 32.883-7.237 49.385-10.603 5.716-1.178 8.695 2.171 6.82 7.947-5.438 16.727-10.672 33.515-17.103 49.83-1.891 4.777-7.513 8.022-11.412 11.989-1.165-.454-2.328-.943-3.485-1.411-.173-3.756-1.546-8.014-.328-11.254 5.046-13.375 10.881-26.432 16.422-39.605l-1.646-2.365"/><path d="M568.01 289.828c.56-18.352 18.186-31.462 34.078-25.277 10.177 3.943 12.925 11.611 9.533 22.065-3.241 10.059-7.201 17.909-18.484 21.415-12.66 3.94-25.54-4.535-25.127-18.203m24.735-10.843l-2.859-.432c-1.845 3.828-4.587 7.506-5.292 11.53-.591 3.61-1.053 8.89 4.863 9.753 4.138.603 8.873-4.924 7.936-9.963-.702-3.806-3.046-7.262-4.648-10.888"/><path d="M403 346.821c-.652 15.755-7.067 26.121-19.522 31.866-7.769 3.586-14.823-.811-20.659-5.511-6.19-4.99-8.803-14.972-5.145-20.474 5.424-8.239 11.714-15.846 21.447-19.975 11.934-5.042 23.366 1.351 23.879 14.095m-18.068.94c-11.817 2.88-16.229 7.558-13.597 14.536 1.719 4.579 5.407 7.29 10.638 5.889 7.012-1.886 8.109-9.19 2.959-20.425"/><path d="M425.746 138.773c-11.525 4.268-21.982 13.518-38.746 10.978 3.529-3.675 5.353-6.71 8.041-8.126 10.308-5.4 20.909-9.948 29.053-19.009 6.874-7.645 14.57-5.508 18.191 4.315 1.655 4.493 2.47 9.295 3.727 13.941 2.607 9.715 5.245 19.435 7.988 29.567-11.219 6.482-16.971 4.432-21.082-8.735-2.334-7.484-4.688-14.962-7.172-22.929"/><path d="M527.21 403.286c1.282 3.896 3.873 7.873 3.626 11.644-.93 13.595.773 26.839 2.817 40.195.924 6.125 4.04 8.165 10.313 7.639.019.914.034 1.84.034 2.76-4.402 1.854-8.683 4.669-13.256 5.338-6.143.903-9.495-2.71-9.952-9.162-.725-9.943-1.907-19.875-2.951-30.41-8.733 8.723-13.715 20.073-25.47 24.191-6.401-9.207-5.645-8.454 1.436-15.701 8.89-9.126 16.361-19.617 24.445-29.471 1.997-2.451 4.066-4.855 6.104-7.308.947.103 1.907.194 2.853.286"/><path d="M572.704 199.022c11.952.505 18.374 10.759 13.833 21.788-5.357 13.099-16.805 19.178-28.907 23.406-9.63 3.376-18.63-4.624-18.63-14.79-.008-15.909 16.832-31.084 33.704-30.404m-1.023 10.643c-16.35 5.094-19.781 10.84-13.641 21.846 14.137-3.861 17.763-9.424 13.641-21.846"/><path d="M200.483 286c5.944 13.429 11.9 26.812 17.773 40.226.82 1.896 2.161 4.289 1.618 5.88-1.044 2.986-2.828 7.139-5.178 7.806-2.101.616-6.609-2.102-7.918-4.52-3.543-6.543-5.936-13.708-8.704-20.398-4.047 7.783-7.74 14.923-11.382 21.952-8.611-2.63-8.651-7.62-6.524-12.999 2.183-5.478 5.203-10.645 7.398-16.121 1.247-3.159 2.488-6.783 2.141-10.027-.854-8.004 3.648-10.431 10.777-11.798"/><path d="M310 290.156c-10.197 10.441-20.327 20.838-30.53 31.181-1.424 1.453-3.138 3.562-4.797 3.629-3.113.118-7.605.017-9.078-1.89-1.337-1.711-.481-6.868 1.261-8.963 4.732-5.645 10.43-10.478 15.595-15.507-8.651-.867-16.56-1.658-24.372-2.429-.744-8.902 3.829-10.767 9.568-10.767 5.837 0 11.685.889 17.539.889 3.351 0 7.135-.21 9.999-1.719 7.053-3.719 10.925-.477 14.815 5.576M379 111.156c-10.197 10.441-20.327 20.838-30.53 31.181-1.424 1.453-3.138 3.562-4.797 3.629-3.113.118-7.605.017-9.078-1.89-1.337-1.711-.481-6.868 1.261-8.963 4.732-5.645 10.43-10.478 15.595-15.507-8.651-.867-16.56-1.658-24.372-2.429-.744-8.902 3.829-10.767 9.568-10.767 5.837 0 11.685.889 17.539.889 3.351 0 7.135-.21 9.999-1.719 7.053-3.719 10.925-.477 14.815 5.576"/></g></g></svg>