<svg width="242" height="228" viewBox="0 0 242 228" xmlns="http://www.w3.org/2000/svg"><title>bot-arms</title><g fill-rule="nonzero" fill="none"><path d="M78.4 143.9c.6-3.6 5.1-6.2 7.7-8.3 3.9-3.1 7.8-6.1 11.8-9.2l-7.3-6.1c-5.5 7-2.1 15.8 5.6 19.2 3.6 1.5 6.8-2.4 6.1-5.7-1.7-8.2-13.2-6.4-19.1-5.1-6.1 1.3-3.9 10.7 2.2 9.4 1.8-.4 3.4-.7 5.2-.8h1.6c2 .5 2.2.1.6-1.2l6.1-5.7c-2.3-1-1.6-3.2-.3-4.8 3.6-4.6-3.3-9.2-7.3-6.1-8.3 6.5-20.6 12.9-22.5 24.2-1 5.9 8.6 6.2 9.6.2M110.6 129.2c-3.7-2.3-5-6-11.1-8-2.5-.8-3 7.6-4.7 9.3-2.1 1.9-1.8 4.7-.3 6.8M106.9 140.5c.8-.2 1.6-.4 2.5-.6M94.6 137.2c1.6 2.2 3.4 4.3 5.3 6.3 1.9 1.9 4.1 4.5 6.6 5.6 2.5 1.1 5.1.3 6.9-1.7 1.4-1.5 1.6-4.1 3.4-5.3 2.2-1.5 3.3-4 2-6.5-1.1-2.1-1.1-2.1-5.7-4.5-1.8-.9-1.3-3.5-2.4-1.8M112.6 143.2l3.1 24.8c3.1-.7 6.2-1.5 9.4-2.2l-.3-1.1c-1.8-5.9-11.2-3.7-9.4 2.2.1.4.2.8.3 1.1 1.9 6 10.1 3.9 9.4-2.2l-3.1-24.8c-.8-6.2-10.1-3.9-9.4 2.2M108.2 151.4c3.8 5.1 6.8 10.6 9.2 16.5 1.5 3.6 6.4 3 8.3.3.9-1.2 1.2-2.3 1.2-3.8-.1-6.2-9.8-6.6-9.6-.4l.3-1 8.3.3c-2.7-6.6-6.3-12.7-10.6-18.5-1.6-2.1-5-1.9-6.8-.3-2.1 2.1-1.8 4.9-.3 6.9M117.6 150.8c2.3 5.6 3.1 11.3 2.8 17.3l8.3-3.1c-4.1-3.6-4.9-9.7-9.4-13-1.4-1-3.4-.9-4.9-.2-5.2 2.8-4 10.1-2.9 14.9 1.6 7.6 4 14.6 4.3 22.5.2 5.6 7.2 6.6 9.4 1.6 2.9-6.4 4.1-13.3 5.2-20.2l-9.5.9c.9 7.2-.5 14.3-3.9 20.7l6.6-1.5-1.2-.9c-5-3.7-10.1 4.4-5.2 8.1l1.2.9c2 1.5 5.5.7 6.6-1.5 4.7-8.8 6.4-18.1 5.2-28.1-.7-5.9-8.7-3.9-9.5.9-1 6.1-2.2 12-4.7 17.6l9.4 1.6c-.2-5.4-.8-10.7-2.1-15.9-1.1-4.5-4.4-11.2-2.7-15.8l-2.3 2.8.7-.4-4.9-.2c1.4 1.1 2.4 4.6 3.3 6.1 1.2 2 2.5 3.8 4.2 5.3 3 2.7 8.1 1.4 8.3-3.1.3-7.8-1.1-15-4-22.2-2.2-5.4-10.6-.8-8.3 4.9M75.2 189.6c.4-3.8-2.5-6.4-6.1-6.8l-.4 9.6 3.4.3-4.6-5c-.9 6.3.2 12.5 2.7 18.3 2.5 5.7 10.9 1.1 8.5-4.5-1.9-4.3-2.2-8.8-1.5-13.4.4-2.7-2.3-4.8-4.6-5l-3.4-.3c-6.2-.6-6.5 9-.4 9.6.2 0 .5 0 .7.1l-2.4-.7-.8-.7c-.2-.8-.4-1.6-.6-2.5 0 .2 0 .5-.1.7-.6 6.1 9 6.4 9.6.3M63.5 191.6c1.6 5.2 7.6 17.7 14.2 10 .2-.2.8-.5.9-.8-.2.6-4.1-1.4-4.7-.5-.4.7 1.1 7.7 1.3 8.5 1.3 6 6.9 8.6 12.2 10.2l.3-9.3c-4.1.5-7.3-1.9-8.9-5.4-2.6 1.9-5.2 3.7-7.8 5.5 10.2 12.5 27.4 20 41.5 8.9 3.5-2.8.7-7.9-3.1-8.3-2.2-.2-4.4-.3-6.6-.4-6.2 0-6.6 9.6-.4 9.6 2.2 0 4.4.1 6.6.4-1-2.8-2.1-5.6-3.1-8.3-9.8 7.7-21.5-.5-27.9-8.4-3.6-4.4-10 .8-7.8 5.5 3.6 7.7 11.4 11.3 19.6 10.3 4.9-.6 4.6-8 .3-9.3-2.9-.9-5.2-1.3-5.9-4.5-.5-2.4-.4-4.8-1.2-7.2-.9-3-2.7-6-6.2-6.3-2.1-.2-4.4 1-5.8 2.6-2.3 2.7 5.6 3.9 4.8 1.1-.6-2.2-2.6-3.9-3.3-6.1-1.4-5.9-10.8-3.8-9 2.2M92.6 220c7.9.8 13.6-.5 19.1-6.4 5.6-6 11.6-11.8 14.6-19.7 2.2-5.8-7-8.7-9.2-2.9-2.1 5.6-6.6 9.8-10.6 14.1-1.6 1.8-3.3 4.3-5.6 5.1-2.4.9-5.4.4-7.9.2-6.2-.6-6.5 9-.4 9.6M120.4 191.3c1.3 8.3-8 16.1-12.8 21.8-4 4.7 2.5 11.8 6.5 7 7.7-9 17.7-18.1 15.6-31.1-.9-6-10.3-3.8-9.3 2.3M142.8 119.2l-.6-.8 9-2.1c-1.7-2.5-3.5-4.5-5.9-6.4l-.3 8.3c6.7-3.5 10.2-11.4 14.1-17.5 1.8-2.8 3.8-7.9 6.6-9.8 2.5-1.7 4.6-1.6 6.6-4.4 1.8-2.5.3-6.4-2.6-7.2-2.7-.7-4.9-.9-7.5.3-1.6.7-2.4 2.5-2.5 4.1-.1 1.8.3 3.1 1.5 4.4 1.9 2 2.3 2.1 3.4 4.9 1.5 4 5.9 7.1 6.7 11.1 1.1 6.1 10.5 3.9 9.4-2.2-.9-4.8-4.6-7-6.6-11.1-.9-1.8-1.1-4-2.1-5.8-1-1.8-2.6-2.5-4-3.8l1.3 3.5.1-.7-2.5 4.1.1.4-2.6-7.2c-.1.2-4 1.5-5.1 2.5-2.3 2-3.8 4.9-5.4 7.5l-6.4 10c-1.9 3-3.6 6.7-6.8 8.4-3.5 1.8-3 6.1-.3 8.3 1 .8 1.9 1.8 2.6 2.9 2.4 3.6 9.2 3.1 9-2.1-.1-4.4-2.1-7.1-6.1-8.7-5.9-2.4-8.8 6.8-3.1 9.1M176.5 90.2c0 1.9-.8 15.7-2.1 16.9 1.2-.4 10.2-24.1 11.4-23.7-4.4-1.9-11.5.1-12.5-3.2-1-3.3-9.1 8-11.8 10.7-2.6 2.6-3.3 5.9-5.4 8.9-2.7 4-6.8 7.3-10.2 10.7-4.3 4.4 2.2 11.5 6.5 7 3.3-3.3 6.7-6.5 9.7-10.1 2.4-2.8 3.3-7.1 5.8-9.5l-8-2.4c2.3 7.7 6.4 17.3 15 19.6 9.8 2.6 9.7-11.4 9.7-17.5 0-6.2-2.8-16.4-2.8-10.2M163.6 108.8c6.2 11.5 6.6 24.6 6.8 37.4l9.5-.9c-2.2-6.9-3.2-13.7-3.1-21 0-6-.2-11.6-2.7-17.2-2-4.4-8.9-2.5-9 2.1-.3 8.4 0 16.9.1 25.3.1 7.8-.5 16.1.7 23.8 1 6.1 10.3 3.9 9.4-2.2-1.2-7.4-.4-15.6-.5-23.1-.1-7.8-.4-15.6-.1-23.4l-9 2.1c2.5 5.5 1.4 11.7 1.7 17.6.3 6.2 1.4 12.3 3.3 18.2 1.6 4.8 9.6 4.9 9.5-.9-.2-14.5-.9-29.3-7.9-42.3-3.2-5.5-11.7-1-8.7 4.5M169.7 203.4l10.7.4c6.2.2 6.6-9.4.4-9.6l-10.7-.4c-6.3-.2-6.6 9.4-.4 9.6M177.2 119.3c6.2.2 6.6-9.4.4-9.6-6.3-.2-6.6 9.4-.4 9.6M180.1 201.8c6.2.2 6.6-9.4.4-9.6-6.3-.2-6.6 9.4-.4 9.6M175.4 119.2c-2.4 26.4-4.5 52.9-.1 79.2.5 2.8 3.3 3.8 5.8 3.6 9.6-1 6.1-15.5 5.1-21.4-1.6-9.4-4.8-18.5-11.8-25.3-2.4-2.4-7.2-1.9-8.1 1.8-1.6 6.2-2.3 12.4-1.9 18.7.4 6 9.5 6.7 9.6.4.1-7.9-.5-15.7-1.6-23.5-.9-6.1-10.2-3.9-9.4 2.2 1 6.9 1.4 13.9 1.3 20.9l9.6.4c-.4-5.5 0-10.8 1.4-16.2l-8.1 1.8c4.4 4.3 6.9 9.5 8.3 15.4.6 2.6 1.1 5.3 1.5 7.9l.6 4.8.2 1.6c-.4 1.6-.1 1.9.9 1l5.8 3.6c-4.3-25.4-3.4-51.5-1.1-76.9.8-6.1-7.4-6.1-8 0M162.9 177.8c.8 6.7 1.1 13.3 1.2 20.1 0 2.9 2.8 5.8 5.9 4.9 7.7-2.4 8.9-14 9.3-20.9.4-6.2-9.3-6.5-9.6-.4-.1 2.3-.4 4.5-.9 6.7-.2.7-1.8 5.4-.9 5.1 2 1.6 3.9 3.2 5.9 4.9 0-7.6-.5-15.1-1.4-22.6-.8-6.2-10.2-3.9-9.5 2.2M166.9 203.3c6.2.2 6.6-9.4.4-9.6-6.2-.2-6.6 9.4-.4 9.6M175.4 114.8c-.5-2.2-1.3-4.4-2.3-6.4-.9-1.8-3.4-3-5.3-2.4-2.2.6-3.4 2.3-3.7 4.5-.3 2.2-.4 4.4-.4 6.7 0 2.5 1.9 5 4.6 5 2.5 0 5-1.9 5-4.6 0-2.2.1-4.5.4-6.7l-9 2.1c.2.4.4.8.6 1.3.4.8 0-.1.1.3.2.8.5 1.6.7 2.5.5 2.5 3.3 4.3 5.8 3.6 2.5-.9 4.1-3.3 3.5-5.9" id="Path" fill="#91D0FF"/><path d="M119.4 140s6.8 4.5 9.5 17.9c.7 3.8 2.1 12 2.6 18.1 1 13.6-1.3 19.3-2.6 24.7-1.3 5.6-5.1 10.7-8.5 14.4-24.6 26-43.4.1-43.4.1s9.4 4.6 19.6 4.3c10.2-.3 14.9-3.8 20.7-10.3 5.8-6.5 10.8-21.2 8.3-38.6-3.4-24.4-6.2-30.6-6.2-30.6" id="Path" opacity=".51" fill="#4D70B5"/><path d="M172.3 79.379l8.5 90.095-.7 27.853-14.5 4.737 23 2.653-.3-10.137-7.1-63.379 5.5-39.695-1.2-10.232-5.2-1.611z" id="Path" opacity=".51" fill="#4D70B5"/><path d="M240.9 127.5c-.5 1.2-3.5 5.7-4.2 8.9-1 4.3-1 7.1-1.7 11.5-.1.7.1 3.5-1.1 3.5-3.6-.1-4.7-1.2-8.5-1.8-1.5-.2-.8-2.2-.4-3.8 1.4-5.6 2.7-19.4 4.1-20.9.9-1 1.7-.1 2.3.1 1.6.3 2.4.4 6.2.2 2.4-.4 3.8 1.1 3.3 2.3M229.2 105.9c-1.5-.1-2.6-4.8-2.6-6.9 0-3-.5-6-.9-8.9-.6-3.8-1.5-7.5-2.2-11.3-.5-2.4 1.9-2.8 4.2-3.4 2.2-.6 3.3-3.3 4.3-1.1.6 1.2 1 4.9 1.2 5.9 1.7 7.4 1.8 12 3.3 19.5.2.9 1.7 5.1.7 5.4-1 .4-1.8.1-4 .5s-2.5.4-4 .3M222.3 167.7c-.7.8-2.6 4.9-7.3 0-5.1-4.3-10.5-8.3-15.7-12.4-.5-.4-1.4-.6-1.4-1.6 0-.9 2.4-1.2 3.7-2.6 1.5-1.8 1.9-4 4.4-1.8 1.1 1 5 4.6 7.6 6.8.8.7 1.7 1.3 2.6 1.8 1.4.7 3.3 1.7 4 2.7l.7 3.5c.7 1.5 2.1 2.8 1.4 3.6" id="Path" fill="#91D0FF"/><path d="M233.4 120.6c-3.4-.1-6.1-2.8-5.9-6 .2-3.7 2.4-5.7 7.8-5.7 2.6 0 4.8 2.9 4.6 5.9-.1 3.3-3 6-6.5 5.8m0-8.7c-4.2.6-3.4 5.8-.3 5.7 5.4-.2 3.4-6.2.3-5.7M232.6 159.3c-.2 5.2-2.7 6.2-6 6.3-3.6.1-5-2.3-4.6-7.2.2-2.9 2.5-4.7 5.6-4.5 4.3.3 5.3 1.4 5 5.4m-5.4 3.3c3.8.1 4.1-5.7 1.2-5.8-4.2-.1-4.9 5.7-1.2 5.8" id="Shape" fill="#323232"/><path d="M219.4 32.7c.3.3 1.7 11.6 2 17 .3 4.8.8 4.7 4.6 4.9 1.9.1 2.7-.7 2.5-2.4l-.4-5.2-1.4-16.1-1.6-16.6-.8-10c-.2-2.2-.8-3.4-2.6-3.3-1.6 0-2.9-.2-4.3.4-.9.4-.3 3.5-.4 4.6" fill="#91D0FF"/><path d="M224 59.3c-2.3 0-5.7 3.7-5.8 6.3-.1 3.5 2.2 6.5 5.2 6.7 4.2.3 7.1-2.2 7.3-6.4.1-3.2-3.5-6.6-6.7-6.6zm3 8.2c-.4.7-2.4 1.1-3.4.7-.9-.3-1.9-1.7-2-2.8-.3-1.8.1-2.8 3-2.7 2.8.1 3.7 2.3 2.5 4.5 0 .1 0 .2-.1.3zM101.8 117.5c-2.2-.9-3.5-.8-6.6-.9 0 0-16 .5-26.2 19.7-1.5 3.4-3 6.8-4.4 10.1-3.6-.1-11.8-2.4-11.7.8-.4 3.7 0 7.8.3 11.7-4.5.1-8.5.2-12.7.3-.3-.8-2.1-13.4-2.4-18.7-.1-1.9.1-4.1-1.5-5-1.6-.9-14.7-.4-15.4-1.1-.7-.8-.7-9.8-1-14.1-.3-4.7-.3-21.3-.8-26.6-.1-1 .9-5.6-2.1-5.7-1.8-.1-9.2-.3-10.7-.1v-21.6l.3-11.2c0-2.5.2-5.7-.1-8.1-.1-.8-5.6-1.1-5.9-.3-.4 1.5.3 9.9.2 13.3-.3 6.5.5 15 .2 21.6.2 3-.3 10.5.5 11 .8.4 9.1.4 13.4 1.1.3 1.3.7 18.1 1.3 25.3.5 5.8-.4 19.5.6 20.2 1 .7 12.3.1 17.1-.2-.3 8.1 1.5 23.1 1.6 24.8 1.1.4 2.1.2 3.2.3 3.9.2 14.6-.2 14.6-.2s.5 13.8.1 18.9c-.1 1.8 1.3 1.5 3.4 1.7 2.2.3 3.7.5 4.9.4-.1 2.2.1 2.4.2 3.8.4 4.4 1.2 10.4 4.4 19.6 4.8 13.8 17.8 17.8 26.3 19 7.5 1.1 13.9-.7 20.3-4.2 13.1-8.6 18.6-24.6 19-33.4.7-13.8 1-27.5-3.8-39.3-1.5-5.1-4.5-9.1-7.1-13.5-1.7-2.9-2.9-4-5-6.6m-59.1 51.1v-1c-.1-5 .1-9.9.2-14.9l.2-15.1 2.3.1c.9 0 1.7 0 2.3.1.1 1 .1 2.1.1 3.1l.8 27.9-5.9-.2zm10.2-30.6l10.9.4-.1 3.1c-3.5.4-7 .8-10.9 1.3l.1-4.8zm12.8 18.4c3.8-5.1 1.3-10.7 1.3-10.7s1.4-2.4 1.3-6.3c-.1-3.7-1.9-5.6-1.9-5.6s1.5-3.2 3.7-4.6c5.2-3.5 9.6-2.1 11.2-1.1 4.9 3 7.7 7.7 9.9 12.8 5.5 12 6.9 25.2 7.2 29.4.5 6.1-1.4 11.8-4.1 17.1-1.1 2.2-4.2 9.6-11.3 9.2-6.6-.4-11.2-2.4-13.7-8.7-2.1-5.3-3.7-10.9-5.6-16.3 3.2-1.3 3.9-2.7 4.9-7.6.1-4.1 0-5.7-2.9-7.6zm-1.5 10.3c-4 .2-7.7.4-11.9.7l.2-6.7c5 .1 8.5-.1 12.4.5l-.7 5.5zm-12.9-13.9c.5-1.3.2-3 .6-4.1h11.5l-.2 4.6c-1.2.1-10.2-.4-11.9-.5zm48.4-32s5.7 6.1 10.1 15.4c6.8 14.6 5.9 39 3.4 49.3-1.3 5-5.9 14.2-10.4 17.7-4.5 3.6-14.7 9-22.9 8.1-3.9-.4-12.8-3.5-17.4-8.9-4.9-5.8-8.1-10.3-10-19.4-.5-3.5-.5-7-.7-10.6 3.6-.4 8.3-1.3 8.3-1.3.6 2.3 1.2 4.6 1.9 6.9l2.9 9.5c4.3 16.7 21.4 12.5 24 11.6 4.7-1.6 11.4-7.5 12.8-20.6 1.4-13.9-.5-25.2-4.2-34.5-2.2-5.5-7.5-15-11.8-18.8-4.2-3.8-12.6-4.4-17.1-.7-2.7 2.2-4.8 4.9-6.6 9.2l-6.9-.3s8.1-21.1 18.3-22.8c3.2-.9 9.3-2.3 11.9-2.2l10.742 8.862 3.658 3.538zM176 77.1l-12-.9c-.6-.2-2.1 1-2.7 1.8-3.8 4.7-16.4 21.7-19.2 25.2-2.5 3.2-4.9 6.5-7.7 9.4-1.8 1.8-1.9 1.8 0 3.6 3.3 3.1 13.4 11.5 13.4 11.5 2.4-3.5 11.1-15.7 12.8-17.8.3 5.8.6 11 .9 17-1.2-1.5-2.6-3.2-2.6-3.2l-2.4 3.9 4.7 4.8s.1 3.6.1 4.9c0 5.8-.3 11.5-.2 17.3.3 1.5.3 11.3-.6 34.5-.1 3.3-.2 13.7.5 16.9 0 0 25-.3 27.5-1.4 0 0-.1-6.7-.3-9.9-.3-5.8-2.6-40.1-2.8-44.1l6.1-1.5c1.4 1.3 2.7 3.3 5.5 2.8 5.7-1 7-6.9 4.1-10.7-.7-.9-1.3-2.1-1.5-3.2-1.1-6-2.2-12-3.2-18-.7-4.4-1.1-8.9-1.8-14-3.1 1.1-6.7 2.3-9.2 3.2 0 0 .1-3.7.3-5.4.3-3.6.5-7.2.7-10.8.1-1.7.3-11.9.4-14.1m-3.3 5.7c-.7 5.7-1.7 20.9-2.3 26.2-2.3 1-7 2.5-7 2.5l1 4.5s4-1.8 5.7-2.6c.3.3-.1 19.4.3 28.8.3 7.9 1.8 30.5 2 34 .2 3.9 1.6 17.2 1.9 19.9.1 1.1-.1 2.3-.1 3.6l-19.3.5c-.1-1-.3-1.7-.3-2.4l-.1-35.9c-.1-2.7-.4-28.7-.4-35.1v-2.6c-.2-6.2-.8-19.8-1.1-20.3-.6-.9-1.3-1.8-2.2-2.3-.2-.1-1.4 1-1.9 1.7-4.1 5.7-8.1 11.3-12.6 17.6-3-3.1-5.6-5.8-8.5-8.8 3.8-4.9 21.9-29.6 24.8-33.3 0 0 4.2-.5 9.4.8m18.1 64.4c-2.1.5-3.9.9-5.9 1.4-.1-3.7-.2-7.5-.3-11.4-.2-6.6.2-9.1-.1-15.7-.1-1.6.2-6.7.2-6.7s4.7-1.6 6.8-2.3c1.4 10.2 2.8 20 4.1 29.9-3.1.6-4 3-4.8 4.8zm6.6 2.3c-2 .6-3.6-.6-2.7-3 .8-2.5 4.6-1.6 4.5 1.2 0 .6-1.2 1.6-1.8 1.8z" fill="#323232"/></g></svg>