<svg xmlns="http://www.w3.org/2000/svg" width="800" height="294" viewBox="0 0 800 294"><path d="M366.6 238c-8.8 4.9-20.3 2.8-29.1-2.8-11.8-7.6-16-19.8-17.2-31.2-2.4-22.6 3.8-43.6 23.9-57.8 8.4-4.1 14.4-3 17.2-2.6 4.6.6 9.1 4.4 10.7 6 4.9 5.2 9.4 12.8 11.2 18.1 13.4 29.5-2.3 62.2-16.7 70.3m-10.8-76.4c-7.2-1.1-11.6 3-15.7 9-7.1 10.5-6.6 24-6.7 33.6-.1 7.5 5.1 18.9 15.1 21.1 1 .2 2 .3 2.9.4 16 1.5 23.5-16.8 24-29.4.7-19.4-9.8-34.4-19.6-34.7" fill="#91D0FF"/><path d="M355.3 195.9c-9.4-.7-7.8-12.2-3.8-20.1 2.2-4.4 6.6-5.8 10.3-3.9 4 2 5.8 5.1 5.1 12.8-1.5 8.7-4.8 11.7-11.6 11.2" fill="#323232"/><path d="M487.8 266.7c-.3-4.1-.7-8.2-1.1-12.3l-3.2-38.1-3.7-39.4c-.7-7.9-1.2-15.8-1.8-23.7-.4-5.1-1.9-8-6.1-7.9-3.7 0-6.8-.5-10.2 1-2.2.8-.8 8.3-.9 10.9-13.2-8.6-37.7-9.6-46.4 4.9-5.3 8.9-9.8 18.1-10.6 28.1-.7 8.7 0 18.2 2.9 26.3 3.6 10.1 12.3 17.2 23 19.6 11.1 2.5 21.7.6 29.8-8.8 2-2.4 4.3-4.5 6.6-6.8.7.8 4 27.4 4.7 40.4.8 11.3 1.9 11.1 11 11.7 4.4.2 6.3-1.7 6-5.9zm-26.2-73.8c-.7 4.7-3.9 25.1-18.6 27.2-7.5.1-12.8 0-17.3-5.8-2.4-3.1-5.9-5.9-5.3-21.6.6-15.7 9.6-27.5 19.9-27.2 17 .6 22.9 16.2 21.3 27.4z" fill="#91D0FF"/><path d="M450.6 187.2c-.2 4.5-1.8 8.8-6.1 10-2.6.7-6.6-.6-8.7-2-3.2-2-3.9-7.2-2.9-11.2 2.2-8.6 6.2-9.5 10.5-9.3 6.2.3 7.4 8 7.2 12.5" fill="#323232"/><path d="M410.1 247.7c-1.8-3.1-6.1-5.8-9.8-6.4-4.8-.9-10 .4-15.1.8-10.2.8-20.4 2.4-30.6 2.3-9.1-.1-27.9-6.8-38.3-12.5-5.2-3.5-25-17.6-30-21-7-4.9-14.6-3.2-20.5.8-3.9 2.7-6.4 6.4-4.3 12.5 3 8.6 9.1 14.3 14.8 20.9 13.1 15.1 45.5 29.7 60.7 31.9 16.5.2 33.2 1.5 49-4.8 8-3.2 16.3-5.9 22.2-13.1 3.3-3.7 3.8-8.2 1.9-11.4zm-136.5-31.4c3.9-.2 9.3 3.8 9.5 4.8-3.2 2.1-6.5 4.3-10.2 6.7-1.1-3.3-1.5-11.4.7-11.5zm5.8 17.2l10.3-8.1s3.9 4.1 5.6 5c-4 3.9-6.5 6.4-10 9.8-.9-.6-5.9-6.7-5.9-6.7zm20.5 19.5c-3.9-3-6.8-5.3-10.8-8.4 3.6-3.9 11.5-10.7 11.5-10.7s6.5 4.5 9 5.7c-2.8 5.3-5.4 7.5-9.7 13.4zm19.5 8.6c-.4.7-9.1-3.2-11.3-4.7l9-13.8s5.2 1.6 8.4 3.5c-2 4.4-3.7 10.8-6.1 15zm9.7 3.7c3-11 4.7-15.5 4.7-15.5s9.2 1.7 10.8 2.3c-1.1 4.7-2.3 9.5-3.7 15.6l-11.8-2.4zm24.2 3l1.1-15.3 8.5-.4s1 10.8 1.6 14.8c-2 .4-11.2.9-11.2.9zm31.5-5.3c-3.9.8-7.2 1.4-11.1 2.3-.3-4.7-.6-8.6-.9-12.9 2.3-.4 4.4-.8 6.5-1.2.9-.2 1.9-.3 2.9-.5.7 3.5 1.5 7.2 2.6 12.3zm10.1-2.6c-.1-.4-.2-.8-.2-1.2-.3-1.6-.7-3.3-1-5-.4-1.7-.7-3.4-1.1-5.4 0 0 9.4-.1 10.2 3 .6 3.3-2.8 6-7.9 8.6z" fill="#323232"/><path d="M224.8 189.5c-5.6 0-10 .1-15.6 0-.6 0-3.9.1-4.5 0-2.9-.2-.2-9.1-.2-9.1 1-4.5 3.4-3.2 5.5-3.1 8 .5 16 .9 24.1 1.2 1 0 2.5-.2 3.1-.9 2.8-3.5 5.7-7 7.9-10.9 4.1-7.3 6.8-13.5 9.3-18.4 1.2-2.3 3.3-9.4 4.8-8.6 9.3 4.8 5.3 11.6 2.6 15.8-2.1 3.2-3.8 6.7-5.6 10.1-2.2 4.3-4.4 8.7-6.8 13.5 8.5 1.5 16.2 1.6 23.6-2.7 6.2-3.6 7.1-2.2 10.3 4.8.5 1.1 2.4 3.9 1.3 5-1.5 1.5-28.3 12.8-41.6 19.9-9.2 4.9-18.3 10.1-26.8 16.1-4.7 3.3-8.4 4.7-14.5 9.1-3 3.2-4.8 1.2-7.4-2.7-1.7-2.6-3.5-3.4-1.3-5.5 2.3-2.1 37.9-20.8 56.7-32.9.1-.2-16.6-.7-24.9-.7M173 52.7c-5.9.6-16 1.5-16.6 1.6-.6.1-1.2-.9-.9-1.4.8-1.5 6.9-9.3 10.2-14.3-9.3 2.6-19.4 6.3-27.8 8.6-2.4.5-2.1-.5-3.6-3.8-.6-1.3-.9-3-1.4-4-1.3-3-1.5-3.6 1.7-4.5 7.4-2.2 14.8-4.3 22.2-6.4 1.4-.4 2.8-.8 4.1-1.5 7-3.4 13.3-7.3 20.2-10.7 1-.5 5.9-3 7.3-2.6 1 .3 3.4 6 3.9 6.8 1.9 1-8.2 9.4-15.4 18.5.2.3 16.8-4.1 23.9-4.4.2.3 2.4 4.5 2.5 4.8 1.7 3.3 1.2 2.3-8.3 9.3-5.2 3.2-9.5 8-14.1 12.1-5.2 4.6-18.9 19.4-20.3 19.5-1.4.1-4.6-3.2-6.6-5.1-1.4-1.4-.8-2.8.7-4.1 4.2-3.8 8.3-7.8 12.3-11.7 2.2-2.3 4-4.5 6-6.7M255.1 134.4c-1.3 1.4-8 4.7-12.1 7.1-8.2 4.8-16.4 9.4-24.5 14.2-3.7 2.2-7.3 4.7-10.9 7.1-.9.6-7 5.5-8.5 4.9-1.7-.7-3.2-4.5-4.1-6.6-.3-.7.7-2.3 1.5-3 2.3-1.8 4.8-3.3 7.8-5.4-6.3-1.1-8.6-5.2-9.5-10-.8-4.5 1.7-7.8 5-10.9 8-7.6 17.2-13.5 26.6-19.1 3.7-2.2 7-5.2 10.5-7.9 3.1-2.4 3.9-2.4 5.9 1 .9 1.6 1.1 2.6 2.1 5.3 1 2.8-.5 3.4-3.2 4.3-4.3 1.5-8.2 4.4-12.1 6.9-3.5 2.3-7 4.7-10.2 7.5-3.4 3-8.5 8.2-5.9 11.8 2.6 3.6 9.6-.3 13.7-2.9 6.5-4.1 12.8-8.4 19.3-12.3 3.4-2.1 5.3-1.2 7.2 2.5.6 1.8 2.6 4.1 1.4 5.5M219.1 65.6c5.4 3.3 7.8 10.4 7.4 16.9-.5 8.9-6 15-11.9 19.2-11.8 8.3-25.3 11.4-39.3 4.7-4.8-3.4-6.1-7.1-6.8-8.7-1.1-2.7-.4-6.4 0-7.8 1.4-4.3 4.2-9.2 6.5-11.8 12.1-16.5 35.1-17.9 44.1-12.5m-38.9 29.6c1.7 4.3 5.2 5.5 9.8 5.9 8 .7 15.3-3.8 20.7-6.7 4.2-2.2 8.8-8.7 7-14.8-.2-.6-.4-1.2-.7-1.7-4.1-9.3-16.6-7.8-23.7-4.2-11 5.5-16 16-13.1 21.5" fill="#91D0FF"/><path d="M155.1 272.6c18.5-1 37.1-2.6 55.6-3.9 10.4-.8 20.8-1.7 31.2-2.3 4.9-.3 11.7 2.1 11.8-1.3.1-1.9.5-10.7-.9-11-3.5-.9-7.4.1-11.5.5-10.3 1-51.3 6.6-61.8 7.8-.2-2.4 0-9-.9-10.7-.7-1.4 1.1-4.3-4.1-4.5-1 0-14-1.6-21.9-1.3-3.5.1-14.7-11.9-18.1-15.5-2.5-2.7-4.9-6.3-5.6-10-1-5.3 1.8-13.7 1.8-13.7s9.2.9 13.3 2.1c7.5 2.1 12.9 3.5 20.4 5.5 7.1 1.9 14.1 2.1 21.1-.6 7.2-2.7 10.4-9.8 10.3-16.2-.5-20.4-23.4-17-31.4-14.8-9.5 2.6-23.9 6.7-33.5 9-1.5.4-6.9-8.7-10.3-12.8-3.2-4-7.1-10.4-5.5-16 7.8 4.5 15.7 7.7 24.7 7.4 10.3-.4 18-8.8 17.8-20.8-.2-9.7-7.6-15.9-17.9-15.3-11.1.6-20.8 4.7-28.9 12.5-5.4-4.6-11.1-8.3-15.3-13.3-6.4-7.6-12.3-15.7-17.4-24.3-2.7-4.5-4.7-4.4-8.4-2.5-4.2 2.2-4.6 5.5-2.2 9 2.8 4 6.1 7.7 9.4 11.3 9.6 10.6 19.3 21 29.4 32-3.3 7.3-2 15.6 1.8 22.8 3.9 7.4 9.4 13.9 14.9 21.8-3.6 5.8-4.6 14.5-1.1 25 2.5 7.6 13.3 12.6 18.4 20.6-7.9.5-15.2.7-22.5 1.3-2.6.2-4.1-.7-4.4 3.7-.3 3.4.2 7.8.7 9.6-2.5.4-41.1 1.6-49.3 2.8-5.8.9-6.5.2-5.9 8.6l10.6 3c.9-4.6 51.7-1.6 66-2.6m49.5-81.2c1.2 8.2-16.8 13.5-35.2 4.5 10.5-7.2 34-12.7 35.2-4.5zm-45-49.7c5.9-.9 8.2 2 7.9 7.4-.3 5.5-4 7.8-9.3 7.6-10-.3-17.9-7.1-17.9-7.1s7.4-6.1 19.3-7.9zM607.8 250.1l-2.2-2.1c-11.4-10.6-22.3-21.8-33.3-33l-33.7-33.4 5.3-5.1c1.8-2 3.7-3.9 5.2-5l.1.1c2.5 2.1 4.9 4.3 7.3 6.6l64.8 59-13.5 12.9zm-47-89.8l24.6-23.7 6.7 7c-6.6 8.7-13.3 17.6-20.8 27.6l-10.5-10.9zm89.6 37.2c-8.2 9.6-15.7 18.3-24.5 28.5l-14.5-15.1c11.1-11.2 18.3-19.6 28.2-27.2 4.4 5.7 7.9 10 10.8 13.8zm-59.6-1.3c-1.8-4-6.3-6.8-7.9-10.2 1.9-1.8 3.9-3.9 6-6 4.2-4.3 8.6-9.1 12.9-13.6 2.1-2.2 4.2-4.3 6.2-6.3l10 10.4c-2.6 3-23.3 22-27.2 25.7zm-30.5 24s32.4 28.9 43 40.9c3.7 4.2 6.2.2 11.2-3.8 5.4-4.3 9-7.3 11.4-10.2l9.9-9.2c7.1-9.1 15.3-21.6 15.3-21.6l9.8-7.5c4-10 2.4-14.7-6.7-27.7-9.4-8.9-13.3-11.9-24-9.5-3.2-19.6-21.2-26.3-21.2-26.3s-2.2-8.5-11.5-16.7c-8.6-7.7-16.9-8-16.9-8l-10.5 10.3-15.6 15.1-9.6 11c-8.1 7.8-31.1 21.5-23.7 28.1 7.5 9.1 17.7 17.1 27 24.9" fill="#323232"/><path d="M570.2 250.4c-.6 15.3-13.4 27.2-28.7 26.6-15.3-.6-27.2-13.4-26.6-28.7.6-15.3 13.4-27.2 28.7-26.6 15.2.5 27.2 13.4 26.6 28.7" fill="#91D0FF"/><path d="M30.1 276.4c-10.2-.7-8.4-13.2-4.1-21.8 2.4-4.8 7.1-6.2 11.2-4.2 4.3 2.2 6.3 5.6 5.5 13.9-1.6 9.4-5.2 12.7-12.6 12.1M0 102.4l1.3 36.2.9 91.8c-.7 4.8 1.2 39.9 1.2 44.3 0 19.5-3.1 19.3 16.9 19 2 0 32.8-2.3 46.5-.5 15.7 2 133.7-3.2 176.7-3.9 19.5-.3 105.6 4 110.2 3.8l118.8-1.1c.6-3.9-.8 3.2 0 0 35.1.2 174.2-.7 208.9-1.8 12-.4 70.4-2 87.5 1.3 11.5.9 10.6-.2 11.9-8.8 1.8-12.1 3.8-69.9 4.3-73.6l2.1-97.9c1.8-15.8 9.7-77 11.2-92.4.6-6.1 2.1-12 .8-17.2-.2-2.1-12.2-1.6-14.8-1.5-4.7.2-1.5 10.4-1.9 17.7-.9 15.6-2.3 31.1-3.4 46.6-2 27.7-4.4 55.4-5.9 83.1l-4 29.3c-1.4 21.3 2.2 97.4-4.1 98.7-14 2.8-42.5-2.3-64.8-.6l-13.5.5-51.7 2c-35.5 1.4-300-.4-307.4-.4-30.5 0-186.6 3.6-226.7 3.4-27.6-.1-55.3-2.4-84.7-3.8 1.9-15.4-2.1-56.5-3-69.8-1-13.4 0-27 .2-41.3" fill="#323232"/><path d="M717.5 141.7c2.1-2.1 12.8-9.2 17.3-15.6 6-8.6 8.7-14.6 14.1-23.6.8-1.4 3-7.8 5.7-6.6 7.8 3.6 9.1 7 16.9 11.6 3.1 1.8-.4 5.6-2.6 8.7-8.1 11-23.6 39.9-28.1 41.9-2.9 1.2-3.8-1.4-5.1-2.2-3.2-2-4.8-3-13.3-6-5.5-1.6-7-6.1-4.9-8.2M723.4 199.6c3.3 1.5 1.3 12.8-.6 17.4-2.7 6.5-4.5 13.5-6.1 20.4-2.1 8.8-3.7 17.8-5.5 26.6-1.2 5.7-6.8 4.4-12.3 3.6-5.2-.8-10.3 4.2-10.5-1.5-.1-3.2 2.4-11.6 2.8-13.9 3-17.8 7.1-27.9 10.4-45.6.4-2.2.9-12.7 3.5-12.5 2.6.2 4.1 1.3 9.3 2.5 5.2 1.1 5.8 1.4 9 3" fill="#91D0FF"/><path d="M727.5 163.5c7.3 3.4 10.7 11.6 7.4 18.6-3.8 7.9-10.4 10.3-22.2 5.3-5.7-2.4-7.8-10.8-4.8-17.1 3.4-7.2 12.3-10.3 19.6-6.8m-7.9 19.1c9.8 2.4 12.7-9.5 5.8-12.1-11.8-4.6-13 10.4-5.8 12.1" fill="#323232"/><path fill="#FFCB52" d="M651.4 78.8l22.7-27.5 7.8-27.6 14.7 31.3 13.5 28.7-30.7 47.1z"/><path d="M678.4 148.8s-7.6-29.3-16.2-42c-6.3-9.3-23.8-27.2-23.9-27.3 0 0 16.1-12.7 26.7-29.9 9.4-15.2 13.5-38 13.6-38.3l11.1.4c4.5 40.4 20.9 57 31 68.4 0 0-9.5 11.5-20.9 30.2-11.5 18.6-21.4 38.5-21.4 38.5m-21.5-68.1c2.3 1.4 7.9 8.4 12.2 16.3 6.3 11.7 6.3 11.7 10.4 22.1 1.1-5.6 12-31.1 25.5-40-9.8-7.6-17.7-21.4-22.2-50.3-3.9 15.8-6.6 34.3-25.9 51.9" fill="#323232"/></svg>