<svg xmlns="http://www.w3.org/2000/svg" width="379" height="50" viewBox="0 -1.5 379 50" enable-background="new 0 -1.5 379 50"><style type="text/css"><![CDATA[
	.st0{fill:#E40038;}
	.st1{fill:#6E6E6E;}
]]></style><path class="st0" d="M113.6 24.9v-.9c0-.3-.2-.5-.5-.5h-6.8c-.5 0-1.1.1-1.4.2.3-.2.7-.6 1-1.2l7.1-12.3c.2-.3.3-.6.3-.9v-.9c0-.3-.2-.5-.5-.5h-8.9c-.3 0-.6.2-.6.5v.9c0 .3.3.5.6.5h6c.6 0 1.1-.1 1.5-.2-.3.3-.7.7-1 1.1l-7.2 12.4c-.1.2-.2.4-.2.7v1.1c0 .3.2.5.5.5h9.5c.4 0 .6-.2.6-.5m11.5-5.8c0-4.9-2.2-6.4-4.7-6.4-2.8 0-4.8 2.4-4.8 6.4 0 4.3 2 6.5 5.6 6.5 1.5 0 2.3-.3 3-.6.3-.1.5-.4.3-.7l-.2-.7c-.1-.3-.3-.4-.7-.3-.8.2-1.5.4-2.5.4-2.4 0-3.3-1.4-3.4-4.1h6.7c.5 0 .7-.2.7-.5m-2.1-1.2h-5.1c.3-3.1 1.8-3.6 2.6-3.6 1.8.1 2.4 1.9 2.5 3.6m14.8 7v-9c0-2-1.3-3.3-3.2-3.3-1.4 0-2.5.5-3.6 1.8l-.3-1.3c-.1-.3-.2-.4-.6-.4h-.6c-.3 0-.5.2-.5.5v11.6c0 .3.3.5.5.5h1c.3 0 .6-.2.6-.5v-7.2c0-1.8 1.3-3.3 3-3.3 1.2 0 1.6.6 1.6 2v8.5c0 .3.3.5.6.5h1c.3.1.5-.1.5-.4m9.5-.2l-.1-.5c-.1-.3-.3-.5-.6-.4-.3 0-.6.1-.8.1-.7 0-.9-.3-.9-1v-8.4h1.5c.3 0 .5-.3.5-.6v-.6c0-.3-.2-.6-.5-.6h-1.5v-3.2c0-.4-.4-.4-.7-.3l-1 .3c-.2.1-.4.3-.4.6v2.6h-1.4c-.3 0-.5.3-.5.6v.6c0 .3.2.6.5.6h1.4v8.6c0 1.7.8 2.5 2.6 2.5.6 0 1.1-.1 1.4-.2.4-.1.5-.4.5-.7m9.3-11.1c.1-.5-.5-.9-1.4-.9-1.2 0-2.2.7-2.9 1.9l-.4-1.4c-.1-.3-.3-.4-.5-.4h-.6c-.3 0-.6.2-.6.5v11.6c0 .3.3.5.6.5h1c.3 0 .6-.2.6-.5v-6.8c0-2.3 1-3.2 1.8-3.2.5 0 1.1.2 1.5.3.4.1.7-.1.8-.5l.1-1.1zm11.1 11.3v-11.6c0-.3-.3-.5-.5-.5h-1c-.3 0-.6.2-.6.5v6.4c0 2.8-1.3 4.1-3.2 4.1-1 0-1.6-.6-1.6-1.8v-8.6c0-.3-.3-.5-.6-.5h-1c-.3 0-.5.2-.5.5v8.9c0 2.2 1.2 3.3 3.1 3.3 2.3 0 3.2-1.2 3.8-1.9l.3 1.4c.1.3.3.4.5.4h.6c.4-.1.7-.3.7-.6m19.1 0v-9.5c0-2.2-1.7-2.7-2.9-2.7-1.4 0-2.5.7-3.6 1.9-.2-1.2-1.3-1.9-2.7-1.9s-2.6.9-3.3 1.8l-.3-1.3c-.1-.3-.2-.4-.6-.4h-.6c-.3 0-.6.2-.6.5v11.6c0 .3.3.5.6.5h1c.3 0 .6-.2.6-.5v-7.2c0-1.8 1.3-3.2 2.9-3.2.8 0 1.2.4 1.2 1.2v9.2c0 .3.3.5.6.5h1c.3 0 .6-.2.6-.5v-7.2c0-1.8 1.3-3.2 2.9-3.2.8 0 1.2.4 1.2 1.2v9.2c0 .3.3.5.6.5h1c.1 0 .4-.2.4-.5m-176.2.6h-1c-.3 0-.6-.3-.6-.6v-8h-6.8v8c0 .3-.3.5-.6.5h-1c-.3 0-.6-.2-.6-.5v-16.8c.1-.3.3-.6.6-.6h1c.3 0 .6.2.6.5v6.9h6.8v-6.8c0-.3.3-.6.6-.6h1c.3 0 .6.2.6.5v16.9c0 .3-.3.6-.6.6m13.5-5.9h-6.8c.1 2.7 1 4.2 3.5 4.2 1 0 1.7-.2 2.5-.4.4-.1.6.1.7.4l.2.7c.1.3 0 .6-.3.7-.7.3-1.6.6-3.1.6-3.7 0-5.7-2.3-5.7-6.7 0-4 2-6.5 4.9-6.5 2.5 0 4.8 1.5 4.8 6.6-.2.1-.4.4-.7.4m-4.2-5.4c-.9 0-2.4.5-2.7 3.7h5.2c0-1.8-.7-3.7-2.5-3.7m11.6 11.1c-.5.2-1 .3-1.6.3-1.7 0-2.4-.8-2.4-2.3v-16.2c0-.3.3-.5.6-.5h1c.3 0 .6.2.6.5v15.7c0 .7.1 1 .7 1 .2 0 .5-.1.9-.2.3-.1.5 0 .6.3l.2.7c-.2.4-.3.6-.6.7m17.1.2h-1c-.3 0-.6-.2-.6-.5v-9.4c0-.8-.4-1.3-1.2-1.3-1.6 0-2.9 1.4-2.9 3.2v7.4c0 .3-.3.5-.6.5h-1c-.3 0-.6-.2-.6-.5v-9.4c0-.8-.4-1.3-1.3-1.3-1.6 0-2.9 1.4-2.9 3.2v7.4c0 .3-.3.5-.6.5h-1c-.3 0-.6-.2-.6-.5v-11.7c0-.3.3-.5.6-.5h.6c.4 0 .5.1.6.4l.3 1.3c.8-.9 2-1.8 3.4-1.8s2.5.7 2.8 2c1.1-1.3 2.3-2 3.6-2 1.2 0 2.9.5 2.9 2.8v9.7c0 .2-.2.5-.5.5m13.2 0h-1c-.3 0-.6-.2-.6-.5v-8.7c0-1.4-.5-2-1.7-2-1.7 0-3.2 1.5-3.2 3.3v7.4c0 .3-.3.5-.6.5h-1c-.3 0-.6-.2-.6-.5v-17.9c0-.3.3-.5.6-.5h1c.3 0 .6.2.6.5v7.2c1.2-1.3 2.3-1.8 3.7-1.8 2 0 3.3 1.3 3.3 3.3v9.2c.1.2-.2.5-.5.5m9 .1c-3.1 0-5.2-2.5-5.2-6.6s2-6.6 5.2-6.6c3.1 0 5.1 2.5 5.1 6.6 0 4.2-2 6.6-5.1 6.6m-.1-11.4c-1.9 0-2.9 1.6-2.9 4.8 0 3.3 1 4.8 2.9 4.8s2.9-1.5 2.9-4.8c0-3.2-1-4.8-2.9-4.8m12.4 11.1c-.5.2-1 .3-1.6.3-1.7 0-2.4-.8-2.4-2.3v-16.2c0-.3.3-.5.6-.5h1c.3 0 .6.2.6.5v15.7c0 .7.1 1 .7 1 .2 0 .5-.1.9-.2.3-.1.5 0 .6.3l.2.7c-.2.4-.3.6-.6.7m7.2.1c-.4.1-.9.2-1.5.2-1.8 0-2.7-.8-2.7-2.5v-8.8h-1.5c-.3 0-.5-.3-.5-.6v-.6c0-.3.2-.6.5-.6h1.5v-2.6c0-.3.2-.5.4-.6l1-.3c.3-.1.7-.1.7.3v3.3h1.5c.3 0 .5.3.5.6v.6c0 .3-.2.6-.5.6h-1.5v8.5c0 .7.3 1 1 1l.8-.1c.3-.1.5.1.6.4l.1.6c.1.2 0 .5-.4.6m9.5.1h-7.1c-.4 0-.6-.3-.6-.8v-.6c0-.2.1-.5.2-.6l5.2-8.3c.2-.4.4-.6.6-.8-.2.1-.6.1-.8.1h-4.3c-.3 0-.5-.3-.5-.6v-.6c0-.3.2-.6.5-.6h6.6c.3 0 .5.3.5.6v.8c0 .3 0 .4-.2.6l-4.9 8c-.2.4-.6.9-.8 1.2l1-.1h4.5c.3 0 .5.2.5.5v.8c.2.1-.1.4-.4.4m113.8-.6v-9.5c0-2.2-1.7-2.7-2.9-2.7-1.4 0-2.5.7-3.6 1.9-.2-1.2-1.3-1.9-2.7-1.9-1.4 0-2.6.9-3.3 1.8l-.3-1.3c-.1-.3-.2-.4-.6-.4h-.6c-.3 0-.6.2-.6.5v11.6c0 .3.3.5.6.5h1c.3 0 .6-.2.6-.5v-7.2c0-1.8 1.3-3.2 2.9-3.2.8 0 1.2.4 1.2 1.2v9.2c0 .3.3.5.6.5h1c.3 0 .6-.2.6-.5v-7.2c0-1.8 1.3-3.2 2.9-3.2.8 0 1.2.4 1.2 1.2v9.2c0 .3.3.5.6.5h1c.1 0 .4-.2.4-.5m26.8 0v-9c0-2-1.3-3.3-3.2-3.3-1.4 0-2.5.5-3.6 1.8l-.3-1.3c-.1-.3-.2-.4-.6-.4h-.6c-.3 0-.5.2-.5.5v11.6c0 .3.3.5.5.5h1c.3 0 .6-.2.6-.5v-7.2c0-1.8 1.3-3.3 3-3.3 1.2 0 1.6.6 1.6 2v8.5c0 .3.3.5.6.5h1c.3.1.5-.1.5-.4m11.7-.3l-.2-.8c-.1-.3-.3-.5-.7-.4-.5.1-1.1.2-1.8.2-2 0-3-1.5-3-4.6 0-2.8 1.2-4.5 2.8-4.5.7 0 1.4.2 1.8.4.4.2.6-.1.7-.3l.3-.8c.1-.3-.1-.5-.4-.7-.5-.2-1.3-.4-2.2-.4-2.9 0-5.1 2.6-5.1 6.3 0 4.2 2.1 6.6 5.1 6.6.9 0 1.7-.1 2.4-.3.2-.2.3-.5.3-.7m11.9.3v-9c0-2-1.3-3.3-3.2-3.3-1.3 0-2.5.5-3.6 1.8v-7c0-.3-.3-.5-.5-.5h-1c-.3 0-.6.2-.6.5v17.5c0 .3.3.5.6.5h1c.3 0 .5-.2.5-.5v-7.2c0-1.8 1.4-3.3 3.1-3.3 1.2 0 1.7.6 1.7 2v8.5c0 .3.3.5.6.5h.9c.2 0 .5-.2.5-.5m13.1-5.8c0-4.9-2.2-6.4-4.7-6.4-2.8 0-4.8 2.4-4.8 6.4 0 4.3 2 6.5 5.6 6.5 1.5 0 2.3-.3 3-.6.3-.1.4-.4.3-.7l-.2-.7c-.1-.3-.3-.4-.7-.3-.8.2-1.5.4-2.5.4-2.4 0-3.3-1.4-3.4-4.1h6.7c.4 0 .7-.2.7-.5m-2.2-1.2h-5.1c.3-3.1 1.8-3.6 2.6-3.6 1.8.1 2.5 1.9 2.5 3.6m14.9 7v-9c0-2-1.3-3.3-3.2-3.3-1.4 0-2.5.5-3.6 1.8l-.3-1.3c-.1-.3-.2-.4-.6-.4h-.6c-.3 0-.6.2-.6.5v11.6c0 .3.3.5.6.5h1c.3 0 .6-.2.6-.5v-7.2c0-1.8 1.3-3.3 3-3.3 1.2 0 1.6.6 1.6 2v8.5c0 .3.3.5.6.5h1c.2.1.5-.1.5-.4m-68.5-16.3c0-.3-.2-.5-.5-.5h-1.1c-.3 0-.5.2-.5.5v1.2c0 .3.2.5.5.5h1.1c.3 0 .5-.2.5-.5v-1.2zm4.5 0c0-.3-.2-.5-.5-.5h-1.1c-.3 0-.5.2-.5.5v1.2c0 .3.2.5.5.5h1.1c.3 0 .5-.2.5-.5v-1.2zm.7 4.2h-1c-.3 0-.6.2-.6.5v6.4c0 2.8-1.3 4.1-3.2 4.1-1 0-1.6-.6-1.6-1.8v-8.6c0-.3-.3-.5-.5-.5l-2.8.2c-.3 0-.4.3-.4.5v.4c0 .4.1.5.4.6l1.2.3v7.4c0 2.2 1.2 3.3 3.1 3.3 2.3 0 3.2-1.2 3.8-1.9l.3 1.4c.1.3.3.4.5.4h.6c.3 0 .6-.2.6-.5v-11.7c.2-.3-.1-.5-.4-.5"/><path class="st1" d="M6.8 39.7c0-3.5-1.2-5.3-4.2-5.3h-2.3c-.1 0-.3.1-.3.3v10.1c0 .2.2.3.3.3h2.3c3.1.1 4.2-1.7 4.2-5.4m-1.4.2c0 3.6-1.2 4.1-2.8 4.1h-1.3v-8.5h1.3c.7 0 1.5.2 1.9.8.6.6.9 1.5.9 3.6m9.3 1.4c0-3-1.4-3.9-2.9-3.9-1.7 0-2.9 1.5-2.9 3.9 0 2.6 1.2 4 3.4 4 .9 0 1.4-.2 1.9-.4.2-.1.3-.2.2-.4l-.1-.4c-.1-.2-.2-.3-.4-.2-.5.1-.9.3-1.5.3-1.5 0-2-.9-2.1-2.5h4.1c.1-.1.3-.2.3-.4m-1.4-.7h-3.1c.2-1.9 1.1-2.2 1.6-2.2 1.1 0 1.5 1.1 1.5 2.2m9.3 4.3v-7.1c0-.2-.2-.3-.3-.3h-.6c-.2 0-.3.1-.3.3v3.9c0 1.7-.8 2.5-2 2.5-.6 0-1-.3-1-1.1v-5.3c0-.2-.2-.3-.3-.3h-.6c-.2 0-.3.1-.3.3v5.5c0 1.4.7 2 1.9 2 1.4 0 2-.8 2.4-1.2l.2.8c.1.2.2.3.3.3h.4s.2-.2.2-.3m5.9-.2l-.1-.3c0-.2-.2-.3-.3-.3-.2 0-.4.1-.5.1-.4 0-.6-.2-.6-.6v-5.2h.9c.2 0 .3-.2.3-.3v-.4c0-.2-.1-.3-.3-.3h-.9v-2c0-.3-.2-.2-.4-.2l-.6.2c-.1 0-.2.2-.2.4v1.6h-.9c-.2 0-.3.2-.3.3v.4c0 .2.1.3.3.3h.9v5.3c0 1 .5 1.5 1.6 1.5.3 0 .7 0 .9-.1.2 0 .2-.2.2-.4m6.2-1.6c0-2.4-3.3-2.4-3.3-3.7 0-.6.4-1 1.1-1 .5 0 1 .2 1.3.3.2.1.3 0 .4-.2l.1-.4c.1-.2 0-.4-.1-.4-.4-.2-.9-.3-1.7-.3-1.5 0-2.5.9-2.5 2.1 0 2.2 3.3 2.2 3.3 3.6 0 .7-.4 1-1.2 1-.6 0-1.3-.2-1.8-.4-.2-.1-.4 0-.4.2v.5c-.1.2 0 .3.2.4.6.3 1.5.5 2.1.5 1.6 0 2.5-.9 2.5-2.2m6.7 1.6l-.1-.5c0-.2-.2-.3-.4-.2-.3.1-.7.1-1.1.1-1.2 0-1.9-.9-1.9-2.8 0-1.7.7-2.8 1.7-2.8.5 0 .8.1 1.1.2.2.1.4 0 .4-.2l.2-.5c.1-.2 0-.3-.2-.4-.3-.1-.8-.3-1.4-.3-1.8 0-3.1 1.6-3.1 3.9 0 2.6 1.3 4 3.1 4 .5 0 1 0 1.5-.2.2 0 .3-.2.2-.3m7.5.2v-5.5c0-1.2-.8-2-2-2-.8 0-1.5.3-2.2 1.1v-4.3c0-.2-.2-.3-.3-.3h-.6c-.2 0-.3.1-.3.3v10.8c0 .2.2.3.3.3h.6c.2 0 .3-.1.3-.3v-4.6c0-1.1.9-2 1.9-2 .7 0 1 .4 1 1.2v5.2c0 .2.2.3.3.3h.6c.3.1.4-.1.4-.2m8.2-3.6c0-3-1.4-3.9-2.9-3.9-1.7 0-2.9 1.5-2.9 3.9 0 2.6 1.2 4 3.4 4 .9 0 1.4-.2 1.9-.4.2-.1.3-.2.2-.4l-.1-.4c-.1-.2-.2-.3-.4-.2-.5.1-.9.3-1.5.3-1.5 0-2-.9-2.1-2.5h4.1c.2-.1.3-.2.3-.4m-1.3-.7h-3.1c.2-1.9 1.1-2.2 1.6-2.2 1.1 0 1.5 1.1 1.5 2.2m7.9 2.5c0-2.4-3.3-2.4-3.3-3.7 0-.6.4-1 1.1-1 .5 0 1 .2 1.3.3.2.1.3 0 .4-.2l.1-.4c.1-.2 0-.4-.1-.4-.4-.2-.9-.3-1.7-.3-1.5-.1-2.5.8-2.5 2 0 2.2 3.3 2.2 3.3 3.6 0 .7-.4 1-1.2 1-.6 0-1.3-.2-1.8-.4-.2-.1-.4 0-.4.2l-.1.6c-.1.2 0 .3.2.4.6.3 1.5.5 2.1.5 1.6 0 2.6-.9 2.6-2.2m11.9-7.9v-.5c0-.2-.2-.3-.3-.3h-4.8c-.2 0-.3.1-.3.3v10.1c0 .2.2.3.3.3h.6c.2 0 .3-.1.3-.3v-4.8h3.4c.2 0 .3-.1.3-.4v-.5c0-.2-.1-.3-.3-.3h-3.4v-3.3h3.8c.3.1.4-.1.4-.3m7.4 6.1c0-2.5-1.2-4-3.1-4s-3.1 1.5-3.1 4 1.2 4 3.1 4 3.1-1.5 3.1-4m-1.3 0c0 2-.6 2.9-1.7 2.9s-1.7-.9-1.7-2.9c0-1.9.6-2.9 1.7-2.9s1.7 1 1.7 2.9m7.7-3.4c.1-.3-.3-.6-.8-.6-.7 0-1.4.4-1.8 1.2l-.2-.9c0-.2-.2-.2-.3-.2h-.4c-.2 0-.3.1-.3.3v7.1c0 .2.2.3.3.3h.6c.2 0 .3-.1.3-.3v-4.2c0-1.4.6-2 1.1-2 .3 0 .7.1.9.2.3.1.4-.1.5-.3l.1-.6zm6.1 5.2c0-2.4-3.3-2.4-3.3-3.7 0-.6.4-1 1.1-1 .5 0 1 .2 1.3.3.2.1.3 0 .4-.2l.1-.4c.1-.2 0-.4-.1-.4-.4-.2-.9-.3-1.7-.3-1.5 0-2.5.9-2.5 2.1 0 2.2 3.3 2.2 3.3 3.6 0 .7-.4 1-1.2 1-.6 0-1.3-.2-1.8-.4-.2-.1-.4 0-.4.2l-.1.5c-.1.2 0 .3.2.4.6.3 1.5.5 2.1.5 1.6 0 2.6-.9 2.6-2.2m6.7 1.6l-.1-.5c0-.2-.2-.3-.4-.2-.3.1-.7.1-1.1.1-1.2 0-1.9-.9-1.9-2.8 0-1.7.7-2.8 1.7-2.8.5 0 .8.1 1.1.2.2.1.4 0 .4-.2l.2-.5c.1-.2 0-.3-.2-.4-.3-.1-.8-.3-1.4-.3-1.8 0-3.1 1.6-3.1 3.9 0 2.6 1.3 4 3.1 4 .5 0 1 0 1.5-.2.1 0 .2-.2.2-.3m7.4.2v-5.5c0-1.2-.8-2-2-2-.8 0-1.5.3-2.2 1.1v-4.3c0-.2-.2-.3-.3-.3h-.6c-.2 0-.3.1-.3.3v10.8c0 .2.2.3.3.3h.6c.2 0 .3-.1.3-.3v-4.6c0-1.1.9-2 1.9-2 .7 0 1 .4 1 1.2v5.2c0 .2.2.3.3.3h.6c.3.1.4-.1.4-.2m8.5 0v-7.1c0-.2-.2-.3-.3-.3h-.6c-.2 0-.3.1-.3.3v3.9c0 1.7-.8 2.5-2 2.5-.6 0-1-.3-1-1.1v-5.3c0-.2-.2-.3-.3-.3h-.6c-.2 0-.3.1-.3.3v5.5c0 1.4.7 2 1.9 2 1.4 0 2-.8 2.4-1.2l.2.8c.1.2.2.3.3.3h.4s.2-.2.2-.3m8.4 0v-5.5c0-1.2-.8-2-2-2-.8 0-1.5.3-2.2 1.1l-.2-.8c0-.2-.1-.3-.4-.3h-.4c-.2 0-.3.1-.3.3v7.1c0 .2.2.3.3.3h.6c.2 0 .3-.1.3-.3v-4.4c0-1.1.8-2 1.9-2 .7 0 1 .4 1 1.2v5.2c0 .2.2.3.3.3h.6c.4.1.5-.1.5-.2m8.7 1c0-1.3-.9-2.1-2.4-2.1h-1.3c-.7 0-.9-.1-.9-.5 0-.2.1-.4.3-.6.3.1.5.1.8.1 1.7 0 2.8-1 2.8-2.8 0-.6-.2-1.1-.6-1.6h.6c.2 0 .3-.1.3-.3v-.4c0-.2-.1-.3-.3-.3h-1.8c-.3 0-.6-.1-1-.1-1.7 0-2.8 1-2.8 2.8 0 1.1.5 1.9 1.2 2.3-.4.4-.7.8-.7 1.4 0 .9.7 1.2 1.7 1.2h1.5c.9 0 1.3.4 1.3 1.1 0 .8-.9 1.2-1.8 1.2-.8 0-1.7-.1-1.8-1 0-.2-.2-.3-.3-.3h-.7c-.2 0-.3.1-.3.3 0 1.7 1.6 2.2 3.1 2.2 1.5-.1 3.1-.8 3.1-2.6m-1.9-5.8c0 1.5-.7 1.8-1.5 1.8s-1.5-.3-1.5-1.8.7-1.8 1.5-1.8 1.5.3 1.5 1.8m8.3 3c0-2.4-3.3-2.4-3.3-3.7 0-.6.4-1 1.1-1 .5 0 1 .2 1.3.3.2.1.3 0 .4-.2l.1-.4c.1-.2 0-.4-.1-.4-.4-.2-.9-.3-1.7-.3-1.5 0-2.5.9-2.5 2.1 0 2.2 3.3 2.2 3.3 3.6 0 .7-.4 1-1.2 1-.6 0-1.3-.2-1.8-.4-.2-.1-.4 0-.4.2l-.1.5c-.1.2 0 .3.2.4.6.3 1.5.5 2.1.5 1.7 0 2.6-.9 2.6-2.2m6.8 1.7v-.4c0-.2-.1-.3-.3-.3h-3.3c.1-.2.3-.5.5-.7l3-4.8c.1-.1.1-.2.1-.4v-.5c0-.2-.1-.3-.3-.3h-4c-.2 0-.3.2-.3.3v.4c0 .2.1.3.3.3h3.1c-.1.1-.2.3-.4.5l-3.1 5c-.1.1-.1.2-.1.4v.4c0 .3.1.5.4.5h4.3l.1-.4m7.4-3.5c0-3-1.4-3.9-2.9-3.9-1.7 0-2.9 1.5-2.9 3.9 0 2.6 1.2 4 3.4 4 .9 0 1.4-.2 1.9-.4.2-.1.3-.2.2-.4l-.1-.4c-.1-.2-.2-.3-.4-.2-.5.1-.9.3-1.5.3-1.5 0-2-.9-2.1-2.5h4.1c.2-.1.3-.2.3-.4m-1.3-.7h-3.1c.2-1.9 1.1-2.2 1.6-2.2 1.1 0 1.5 1.1 1.5 2.2m9.3 4.3v-5.5c0-1.2-.8-2-2-2-.8 0-1.5.3-2.2 1.1l-.2-.8c0-.2-.1-.3-.4-.3h-.4c-.2 0-.3.1-.3.3v7.1c0 .2.2.3.3.3h.6c.2 0 .3-.1.3-.3v-4.4c0-1.1.8-2 1.9-2 .7 0 1 .4 1 1.2v5.2c0 .2.2.3.3.3h.6c.3.1.5-.1.5-.2m5.9-.2l-.1-.3c0-.2-.2-.3-.3-.3-.2 0-.4.1-.5.1-.4 0-.6-.2-.6-.6v-5.2h.9c.2 0 .3-.2.3-.3v-.4c0-.2-.1-.3-.3-.3h-.9v-2c0-.3-.2-.2-.4-.2l-.6.2c-.1 0-.2.2-.2.4v1.6h-.9c-.2 0-.3.2-.3.3v.4c0 .2.1.3.3.3h.9v5.3c0 1 .5 1.5 1.6 1.5.3 0 .7 0 .9-.1.2 0 .3-.2.2-.4m6-6.8c.1-.3-.3-.6-.8-.6-.7 0-1.4.4-1.8 1.2l-.2-.9c0-.2-.2-.2-.3-.2h-.4c-.2 0-.3.1-.3.3v7.1c0 .2.2.3.3.3h.6c.2 0 .3-.1.3-.3v-4.2c0-1.4.6-2 1.1-2 .3 0 .7.1.9.2.3.1.4-.1.5-.3l.1-.6zm6.9 7v-7.1c0-.2-.2-.3-.3-.3h-.6c-.2 0-.3.1-.3.3v3.9c0 1.7-.8 2.5-2 2.5-.6 0-1-.3-1-1.1v-5.3c0-.2-.2-.3-.3-.3h-.6c-.2 0-.3.1-.3.3v5.5c0 1.4.7 2 1.9 2 1.4 0 2-.8 2.4-1.2l.2.8c0 .2.2.3.3.3h.4s.2-.2.2-.3m11.9 0v-5.9c0-1.4-1-1.7-1.8-1.7s-1.5.4-2.2 1.2c-.1-.7-.8-1.2-1.7-1.2-.9 0-1.6.6-2 1.1l-.2-.8c0-.2-.1-.3-.4-.3h-.4c-.2 0-.3.1-.3.3v7.1c0 .2.2.3.3.3h.6c.2 0 .3-.1.3-.3v-4.3c0-1.1.8-1.9 1.8-1.9.5 0 .8.3.8.8v5.6c0 .2.2.3.3.3h.6c.2 0 .3-.1.3-.3v-4.5c0-1.1.8-1.9 1.8-1.9.5 0 .7.3.7.8v5.6c0 .2.2.3.3.3h.6c.4 0 .6-.2.6-.3m9.9-10.5c0-.2 0-.4-.2-.4-.3-.1-.8-.3-1.1-.3-1 0-1.8.5-1.8 1.8v1.9h-.9c-.2 0-.3.2-.3.3v.4c0 .2.1.3.3.3h.9v6.4c0 .2.2.3.3.3h.6c.2 0 .3-.1.3-.3v-6.4h1.2c.2 0 .3-.2.3-.3v-.4c0-.2-.1-.3-.3-.3h-1.2v-1.8c0-.6.2-.8.6-.8.2 0 .5.1.7.2.2 0 .3 0 .4-.2l.2-.4zm6.6.8c0-.4-.4-.8-.8-.8-.5 0-.8.3-.8.8 0 .4.4.8.8.8.4-.1.8-.4.8-.8m-2.8 0c0-.4-.3-.8-.8-.8-.4 0-.7.3-.7.8 0 .4.4.8.8.8.4-.1.7-.4.7-.8m3.4 9.7v-7.1c0-.2-.2-.3-.3-.3h-.6c-.2 0-.3.1-.3.3v3.9c0 1.7-.8 2.5-2 2.5-.6 0-1-.3-1-1.1v-5.3c0-.2-.2-.3-.3-.3h-.6c-.2 0-.3.1-.3.3v5.5c0 1.4.7 2 1.9 2 1.4 0 2-.8 2.4-1.2l.2.8c0 .2.2.3.3.3h.4c.1 0 .2-.2.2-.3m6.9-7c.1-.3-.3-.6-.8-.6-.7 0-1.4.4-1.8 1.2l-.2-.9c0-.2-.2-.2-.3-.2h-.4c-.2 0-.3.1-.3.3v7.1c0 .2.2.3.3.3h.6c.2 0 .3-.1.3-.3v-4.2c0-1.4.6-2 1.1-2 .3 0 .7.1.9.2.3.1.4-.1.5-.3l.1-.6zm12.1 6.4v-5c0-.2-.2-.3-.3-.3h-2.7c-.2 0-.3.2-.3.3v.6c0 .2.1.3.3.3h1.7v3.6c-.4.1-.9.2-1.3.2-1.9 0-3.1-1.2-3.1-4.2 0-2.9.9-4.3 2.9-4.3.8 0 1.4.2 1.9.5.2.1.3 0 .4-.1l.3-.6c.1-.2 0-.3-.2-.4-.7-.3-1.5-.6-2.4-.6-2.8 0-4.4 2-4.4 5.4 0 3.7 1.5 5.5 4.2 5.5.9 0 1.8-.1 2.4-.4.5 0 .6-.2.6-.5m8.3-3c0-3-1.4-3.9-2.9-3.9-1.7 0-2.9 1.5-2.9 3.9 0 2.6 1.2 4 3.4 4 .9 0 1.4-.2 1.9-.4.2-.1.3-.2.2-.4l-.1-.4c-.1-.2-.2-.3-.4-.2-.5.1-.9.3-1.5.3-1.5 0-2-.9-2.1-2.5h4.1c.2-.1.3-.2.3-.4m-1.3-.7h-3.1c.2-1.9 1.1-2.2 1.6-2.2 1 0 1.4 1.1 1.5 2.2m7.8 2.5c0-2.4-3.3-2.4-3.3-3.7 0-.6.4-1 1.1-1 .5 0 1 .2 1.3.3.2.1.3 0 .4-.2l.1-.4c.1-.2 0-.4-.1-.4-.4-.2-.9-.3-1.7-.3-1.5 0-2.5.9-2.5 2.1 0 2.2 3.3 2.2 3.3 3.6 0 .7-.4 1-1.2 1-.6 0-1.3-.2-1.8-.4-.2-.1-.4 0-.4.2l-.1.5c-.1.2 0 .3.2.4.6.3 1.5.5 2.1.5 1.7 0 2.6-.9 2.6-2.2m7.9 1.8v-7.1c0-.2-.2-.3-.3-.3h-.6c-.2 0-.3.1-.3.3v3.9c0 1.7-.8 2.5-2 2.5-.6 0-1-.3-1-1.1v-5.3c0-.2-.2-.3-.3-.3h-.6c-.2 0-.3.1-.3.3v5.5c0 1.4.7 2 1.9 2 1.4 0 2-.8 2.4-1.2l.2.8c0 .2.2.3.3.3h.4s.2-.2.2-.3m8.4 0v-5.5c0-1.2-.8-2-2-2-.8 0-1.5.3-2.2 1.1l-.2-.8c0-.2-.1-.3-.4-.3h-.4c-.2 0-.3.1-.3.3v7.1c0 .2.2.3.3.3h.6c.2 0 .3-.1.3-.3v-4.4c0-1.1.8-2 1.9-2 .7 0 1 .4 1 1.2v5.2c0 .2.2.3.3.3h.6c.4.1.5-.1.5-.2m8.2 0v-10.8c0-.2-.2-.3-.3-.3h-.6c-.2 0-.3.1-.3.3v4.4c-.4-.8-1-1.1-1.8-1.1-.7 0-1.4.3-1.8.9-.5.7-.8 1.5-.8 3.1 0 2.6.9 3.9 2.5 3.9.8 0 1.4-.3 1.9-1.1l.1.7c0 .2.2.3.4.3h.3c.2 0 .4-.2.4-.3m-1.3-3.6c0 1.9-.5 2.8-1.6 2.8-1 0-1.5-.8-1.5-2.9 0-1.2.2-1.9.4-2.3.2-.4.6-.6 1.1-.6 1.1.1 1.6 1.1 1.6 3m9.7 3.6v-5.5c0-1.2-.8-2-2-2-.8 0-1.5.3-2.2 1.1v-4.3c0-.2-.2-.3-.3-.3h-.6c-.2 0-.3.1-.3.3v10.8c0 .2.2.3.3.3h.6c.2 0 .3-.1.3-.3v-4.6c0-1.1.9-2 1.9-2 .7 0 1 .4 1 1.2v5.2c0 .2.2.3.3.3h.6c.3.1.4-.1.4-.2m8.2-3.6c0-3-1.4-3.9-2.9-3.9-1.7 0-2.9 1.5-2.9 3.9 0 2.6 1.2 4 3.4 4 .9 0 1.4-.2 1.9-.4.2-.1.3-.2.2-.4l-.1-.4c-.1-.2-.2-.3-.4-.2-.5.1-.9.3-1.5.3-1.5 0-2-.9-2.1-2.5h4.1c.2-.1.3-.2.3-.4m-1.3-.7h-3.1c.2-1.9 1.1-2.2 1.6-2.2 1.1 0 1.5 1.1 1.5 2.2m5.5-6c0-.5-.4-.9-.9-.9s-.9.4-.9.9.4.9.9.9.9-.3.9-.9m-.3 10.3v-7.1c0-.2-.2-.3-.3-.3h-.6c-.2 0-.3.1-.3.3v7.1c0 .2.2.3.3.3h.6c.1 0 .3-.2.3-.3m6-.2l-.1-.3c0-.2-.2-.3-.3-.3-.2 0-.4.1-.5.1-.4 0-.6-.2-.6-.6v-5.2h.9c.2 0 .3-.2.3-.3v-.4c0-.2-.1-.3-.3-.3h-.9v-2c0-.3-.2-.2-.4-.2l-.6.2c-.1 0-.2.2-.2.4v1.6h-.9c-.2 0-.3.2-.3.3v.4c0 .2.1.3.3.3h.9v5.3c0 1 .5 1.5 1.6 1.5.3 0 .7 0 .9-.1.2 0 .2-.2.2-.4m11.1.2v-7.1c0-.2-.2-.3-.3-.3h-.6c-.2 0-.3.1-.3.3v3.9c0 1.7-.8 2.5-2 2.5-.6 0-1-.3-1-1.1v-5.3c0-.2-.2-.3-.3-.3h-.6c-.2 0-.3.1-.3.3v5.5c0 1.4.7 2 1.9 2 1.4 0 2-.8 2.4-1.2l.2.8c0 .2.2.3.3.3h.4c.1 0 .2-.2.2-.3m8.5 0v-5.5c0-1.2-.8-2-2-2-.8 0-1.5.3-2.2 1.1l-.2-.8c0-.2-.1-.3-.4-.3h-.4c-.2 0-.3.1-.3.3v7.1c0 .2.2.3.3.3h.6c.2 0 .3-.1.3-.3v-4.4c0-1.1.8-2 1.9-2 .7 0 1 .4 1 1.2v5.2c0 .2.2.3.3.3h.6c.3.1.5-.1.5-.2m8.1 0v-10.8c0-.2-.2-.3-.3-.3h-.6c-.2 0-.3.1-.3.3v4.4c-.4-.8-1-1.1-1.8-1.1-.7 0-1.4.3-1.8.9-.5.7-.8 1.5-.8 3.1 0 2.6.9 3.9 2.5 3.9.8 0 1.4-.3 1.9-1.1l.1.7c0 .2.2.3.4.3h.3c.2 0 .4-.2.4-.3m-1.2-3.6c0 1.9-.5 2.8-1.6 2.8-1 0-1.5-.8-1.5-2.9 0-1.2.2-1.9.4-2.3s.6-.6 1.1-.6c1 .1 1.6 1.1 1.6 3m14.9.6v-7.2c0-.2-.2-.3-.3-.3h-.6c-.2 0-.3.1-.3.3v7.1c0 1.9-.9 2.3-2.1 2.3-1.5 0-2-.9-2-2.5v-6.9c0-.2-.2-.3-.3-.3h-.6c-.2 0-.3.1-.3.3v7.2c0 2 1 3.3 3.3 3.3 2 .1 3.2-1.1 3.2-3.3m12.2 3v-5.9c0-1.4-1-1.7-1.8-1.7s-1.5.4-2.2 1.2c-.1-.7-.8-1.2-1.7-1.2-.9 0-1.6.6-2 1.1l-.2-.8c0-.2-.1-.3-.4-.3h-.4c-.2 0-.3.1-.3.3v7.1c0 .2.2.3.3.3h.6c.2 0 .3-.1.3-.3v-4.3c0-1.1.8-1.9 1.8-1.9.5 0 .8.3.8.8v5.6c0 .2.2.3.3.3h.6c.2 0 .3-.1.3-.3v-4.5c0-1.1.8-1.9 1.8-1.9.5 0 .7.3.7.8v5.6c0 .2.2.3.3.3h.6c.5 0 .6-.2.6-.3m12-7.1c0-.2-.1-.4-.3-.4h-.7c-.2 0-.4.1-.4.3l-1 5.1c-.1.5-.2 1.2-.2 1.7-.1-.5-.1-1.2-.3-1.7l-1.2-5.1c0-.2-.2-.3-.4-.3h-.9c-.2 0-.3.1-.4.3l-1.1 5.1-.3 1.7c0-.5-.1-1.1-.2-1.7l-1-5.1c0-.2-.2-.3-.4-.3h-.8c-.2 0-.3.1-.3.4l1.6 7.1c0 .2.1.3.3.3h1.2c.2 0 .3-.1.4-.3l1.1-4.9c.1-.5.2-1.1.2-1.7.1.6.1 1.2.2 1.7l1.1 4.9c0 .2.1.3.3.3h1.2c.2 0 .3-.1.4-.3l1.9-7.1zm7.3 3.5c0-3-1.4-3.9-2.9-3.9-1.7 0-2.9 1.5-2.9 3.9 0 2.6 1.2 4 3.4 4 .9 0 1.4-.2 1.9-.4.2-.1.3-.2.2-.4l-.1-.4c-.1-.2-.2-.3-.4-.2-.5.1-.9.3-1.5.3-1.5 0-2-.9-2.1-2.5h4.1c.1-.1.3-.2.3-.4m-1.3-.7h-3.1c.2-1.9 1.1-2.2 1.6-2.2 1 0 1.4 1.1 1.5 2.2m6.1 4.1l-.1-.4c0-.2-.2-.3-.4-.2-.2 0-.4.1-.5.1-.4 0-.4-.2-.4-.6v-9.5c0-.2-.2-.3-.3-.3h-.6c-.2 0-.3.1-.3.3v9.8c0 .9.5 1.4 1.5 1.4.4 0 .7-.1 1-.2.1-.1.2-.2.1-.4m4.9 0l-.1-.3c0-.2-.2-.3-.3-.3-.2 0-.4.1-.5.1-.4 0-.6-.2-.6-.6v-5.2h.9c.2 0 .3-.2.3-.3v-.4c0-.2-.1-.3-.3-.3h-.9v-2c0-.3-.2-.2-.4-.2l-.6.2c-.1 0-.2.2-.2.4v1.6h-.9c-.2 0-.3.2-.3.3v.4c0 .2.1.3.3.3h.9v5.3c0 1 .5 1.5 1.6 1.5.3 0 .7 0 .9-.1.2 0 .2-.2.2-.4"/></svg>
