<svg xmlns="http://www.w3.org/2000/svg" xmlns:xlink="http://www.w3.org/1999/xlink" width="143" height="155.9" viewBox="0 0 143 155.9"><path d="M50.8 92c.2-1 1.3-1.7 2-2.2l3.1-2.4-1.9-1.6c-1.4 1.9-.6 4.2 1.5 5.1.9.4 1.8-.6 1.6-1.5-.4-2.2-3.5-1.7-5.1-1.4-1.6.3-1 2.8.6 2.5.5-.1.9-.2 1.4-.2h.4c.5.1.6 0 .2-.3l1.6-1.5c-.6-.3-.4-.9-.1-1.3.9-1.2-.9-2.5-1.9-1.6-2.2 1.7-5.5 3.4-6 6.4-.2 1.5 2.3 1.6 2.6 0m4.3-1.8c.4.6.9 1.1 1.4 1.7.5.5 1.1 1.2 1.7 1.5.7.3 1.4.1 1.8-.4.4-.4.4-1.1.9-1.4.6-.4.9-1.1.5-1.7-.3-.6-1.2-.9-1.7-.5-.4.3-.8.6-1.1 1l-.3.6c-.1.2-.3.4.1.2.2 0 .4-.1.7-.1h-.2l.6.2c-1-.6-1.8-1.7-2.5-2.7-.4-.6-1.3-.5-1.8-.1-.6.4-.5 1.2-.1 1.7m4.8 1.6l.8 6.6 2.5-.6-.1-.3c-.5-1.6-3-1-2.5.6l.1.3c.5 1.6 2.7 1 2.5-.6-.3-2.2-.6-4.4-.8-6.6-.2-1.6-2.7-1-2.5.6m-1.2 2.2c1 1.3 1.8 2.8 2.4 4.4.4 1 1.7.8 2.2.1.2-.3.3-.6.3-1 0-1.6-2.6-1.7-2.6-.1l.1-.3 2.2.1c-.7-1.8-1.7-3.4-2.8-4.9-.4-.6-1.3-.5-1.8-.1-.5.5-.4 1.3 0 1.8m2.5-.2c.6 1.5.8 3 .8 4.6l2.2-.8c-1.1-1-1.3-2.6-2.5-3.5-.4-.3-.9-.3-1.3 0-1.4.7-1.1 2.7-.8 4 .4 2 1.1 3.9 1.1 6 .1 1.5 1.9 1.7 2.5.4.8-1.7 1.1-3.5 1.4-5.4-.8.1-1.7.2-2.5.2.2 1.9-.1 3.8-1 5.5l1.8-.4c-.1-.1-.2-.2-.3-.2-1.3-1-2.7 1.2-1.4 2.2.1.1.2.2.3.2.5.4 1.5.2 1.8-.4 1.3-2.3 1.7-4.8 1.4-7.5-.2-1.6-2.3-1-2.5.2-.3 1.6-.6 3.2-1.3 4.7l2.5.4c-.1-1.4-.2-2.8-.6-4.2-.3-1.2-1.2-3-.7-4.2l-.6.7.2-.1h-1.3c.4.3.6 1.2.9 1.6.3.5.7 1 1.1 1.4.8.7 2.2.4 2.2-.8.1-2.1-.3-4-1.1-5.9-.7-1.4-2.9-.2-2.3 1.3m-11.2 10.3c.1-1-.7-1.7-1.6-1.8l-.1 2.6.9.1-1.2-1.3c-.2 1.7 0 3.3.7 4.9.7 1.5 2.9.3 2.3-1.2-.5-1.1-.6-2.3-.4-3.6.1-.7-.6-1.3-1.2-1.3l-.9-.1c-1.6-.2-1.7 2.4-.1 2.6h.2l-.6-.2-.2-.2c-.1-.2-.1-.4-.2-.7v.2c-.4 1.6 2.2 1.7 2.4 0m-3.2.6c.4 1.4 2 4.7 3.8 2.7.1-.1.2-.1.2-.2-.1.2-1.1-.4-1.2-.1-.1.2.3 2.1.3 2.2.3 1.6 1.8 2.3 3.2 2.7l.1-2.5c-1.1.1-1.9-.5-2.4-1.4l-2.1 1.5c2.7 3.3 7.3 5.3 11 2.4.9-.7.2-2.1-.8-2.2-.6-.1-1.2-.1-1.8-.1-1.6 0-1.7 2.5-.1 2.6.6 0 1.2 0 1.8.1l-.8-2.2c-2.6 2-5.7-.1-7.4-2.2-1-1.2-2.7.2-2.1 1.5 1 2 3 3 5.2 2.7 1.3-.2 1.2-2.1.1-2.5-.8-.2-1.4-.3-1.6-1.2-.1-.6-.1-1.3-.3-1.9-.2-.8-.7-1.6-1.6-1.7-.6 0-1.2.3-1.5.7-.6.7 1.5 1 1.3.3l-.9-1.6c-.3-1.8-2.8-1.2-2.4.4m7.8 7.5c2.1.2 3.6-.1 5.1-1.7 1.5-1.6 3.1-3.1 3.9-5.2.6-1.5-1.9-2.3-2.4-.8-.6 1.5-1.8 2.6-2.8 3.7-.4.5-.9 1.1-1.5 1.4-.6.2-1.4.1-2.1 0-1.8-.1-1.9 2.5-.2 2.6m7.4-7.6c.4 2.2-2.1 4.3-3.4 5.8-1.1 1.2.7 3.1 1.7 1.9 2-2.4 4.7-4.8 4.1-8.3-.2-1.6-2.7-1-2.4.6m5.9-19.2l-.2-.2 2.4-.6c-.5-.7-.9-1.2-1.6-1.7l-.1 2.2c1.8-.9 2.7-3 3.8-4.7.5-.7 1-2.1 1.8-2.6.7-.5 1.2-.4 1.8-1.2.5-.7.1-1.7-.7-1.9-.7-.2-1.3-.2-2 .1-.4.2-.6.7-.7 1.1 0 .5.1.8.4 1.2.5.5.6.6.9 1.3.4 1.1 1.6 1.9 1.8 2.9.3 1.6 2.8 1 2.5-.6-.2-1.3-1.2-1.9-1.7-2.9-.2-.5-.3-1.1-.6-1.5s-.7-.7-1.1-1l.3.9v-.2c-.2.4-.4.7-.7 1.1v.1l-.7-1.9c0 .1-1.1.4-1.4.7-.6.5-1 1.3-1.4 2l-1.7 2.7c-.5.8-1 1.8-1.8 2.2-.9.5-.8 1.6-.1 2.2.3.2.5.5.7.8.6 1 2.4.8 2.4-.6 0-1.2-.6-1.9-1.6-2.3-1.4-.6-2.2 1.8-.7 2.4m8.6-5.8c0 .5.1 2.3-.2 2.6l.9-.3c-1.2.1-2-2.4-2.3-3.3-.3-.9-1.4-1.4-2.1-.6-.7.7-.9 1.6-1.4 2.4-.7 1-1.8 1.9-2.7 2.8-1.2 1.2.6 3 1.7 1.9.9-.9 1.8-1.7 2.6-2.7.6-.7.9-1.9 1.5-2.5l-2.1-.6c.6 2 1.7 4.6 4 5.2 2.6.7 2.6-3 2.6-4.7 0-1.7-2.5-1.8-2.5-.2m-3.1 3.1c1.6 3.1 1.7 6.5 1.8 9.9.8-.1 1.7-.2 2.5-.2-.6-1.8-.8-3.6-.8-5.6 0-1.6-.1-3.1-.7-4.6-.5-1.2-2.4-.7-2.4.6-.1 2.2 0 4.5 0 6.7 0 2.1-.1 4.3.2 6.3.3 1.6 2.7 1 2.5-.6-.3-2-.1-4.1-.1-6.1 0-2.1-.1-4.1 0-6.2l-2.4.6c.7 1.5.4 3.1.4 4.7.1 1.7.4 3.3.9 4.8.4 1.3 2.5 1.3 2.5-.2-.1-3.9-.2-7.8-2.1-11.2-.8-1.6-3-.4-2.3 1.1m1.6 25.1l2.9.1c1.6.1 1.7-2.5.1-2.6l-2.9-.1c-1.6 0-1.7 2.6-.1 2.6m2-22.3c1.6.1 1.7-2.5.1-2.6-1.6-.1-1.7 2.5-.1 2.6m.8 21.9c1.6.1 1.7-2.5.1-2.6-1.6 0-1.7 2.5-.1 2.6m-1.2-22c-.6 7-1.2 14.1 0 21.1.1.7.9 1 1.5.9 2.5-.3 1.6-4.1 1.4-5.7-.4-2.5-1.3-4.9-3.1-6.7-.6-.6-1.9-.5-2.2.5-.4 1.6-.6 3.3-.5 5 .1 1.6 2.5 1.8 2.6.1 0-2.1-.1-4.2-.4-6.2-.2-1.6-2.7-1-2.5.6.3 1.8.4 3.7.4 5.5l2.6.1c-.1-1.5 0-2.9.4-4.3-.7.2-1.4.3-2.2.5 1.2 1.1 1.8 2.5 2.2 4.1.2.7.3 1.4.4 2.1.1.4.1.8.2 1.3v.4c-.1.4 0 .5.2.3.5.3 1 .6 1.5 1-1.1-6.8-.5-13.6.1-20.4.1-1.7-2.5-1.8-2.6-.2m-3.3 15.6c.2 1.8.3 3.5.3 5.3 0 .8.7 1.6 1.6 1.3 2-.6 2.4-3.7 2.5-5.5.1-1.6-2.5-1.7-2.6-.1 0 .6-.1 1.2-.2 1.8 0 .2-.5 1.4-.3 1.4.5.4 1 .9 1.6 1.3 0-2-.1-4-.4-6-.2-1.7-2.7-1.1-2.5.5m1 6.8c1.6.1 1.7-2.5.1-2.6-1.6 0-1.7 2.5-.1 2.6m2.3-23.5c-.1-.6-.3-1.2-.6-1.7-.2-.5-.9-.8-1.4-.6-.6.2-.9.6-1 1.2-.1.6-.1 1.2-.1 1.8 0 .7.5 1.3 1.2 1.3s1.3-.5 1.3-1.2c0-.6 0-1.2.1-1.8l-2.4.6.2.3v.1c.1.2.1.4.2.7.1.7.9 1.1 1.5 1 .7-.4 1.1-1 1-1.7" fill="#5AB1BC"/><g opacity=".51"><defs><path id="a" d="M64.575 114.318l-14.19-.524.857-23.184 14.19.524z"/></defs><clipPath id="b"><use xlink:href="#a" overflow="visible"/></clipPath><path d="M61.7 91s1.8 1.2 2.5 4.8c.2 1 .6 3.2.7 4.8.3 3.6-.3 5.1-.7 6.6-.4 1.5-1.3 2.8-2.3 3.8-6.5 6.9-11.5 0-11.5 0s2.5 1.2 5.2 1.1c2.7-.1 4-1 5.5-2.7 1.5-1.7 2.9-5.6 2.2-10.3-.9-6.5-1.6-8.1-1.6-8.1" clip-path="url(#b)" fill="#337384"/></g><g opacity=".51"><defs><path id="c" d="M80.087 108.111l-6.096-.227 1.145-30.778 6.096.227z"/></defs><clipPath id="d"><use xlink:href="#c" overflow="visible"/></clipPath><path clip-path="url(#d)" fill="#337384" d="M76.3 78.3l1.7 20.6-.2 7.3-3.8 1.2 6.1.7-.1-2.6-1.9-16.6 1.4-10.4v-1.2l-1.7 2.4z"/></g><g opacity=".21"><defs><path id="e" d="M96.897 134.355l-74.448-2.757 2.742-74.048 74.448 2.757z"/></defs><clipPath id="f"><use xlink:href="#e" overflow="visible"/></clipPath><g clip-path="url(#f)"><defs><path id="g" d="M96.897 134.355l-74.448-2.757 2.742-74.048 74.448 2.757z"/></defs><clipPath><use xlink:href="#g" overflow="visible"/></clipPath></g></g><path fill="#E8E83F" d="M54.3 78.2l1.9-3.7 1.5 3.6-2.3 3.9zm5.2.4l2.4-3 .8 2.4.4.7-1.1 1.3-.7 2.3-.7-2.2zm21.9-7.5l1.8-2.1.6-2.1 1.1 2.4 1 2.2-2.3 3.6z"/><path d="M31.8 35.1c.1 1.1-.2 2-.2 3-.1 1 0 1.9 0 3 .5 0 1.1-.1 1.7-.1h10.9v-2.7c0-.4-.2-1.1.5-1.1 1.5 0 3.1.2 4.6.4.4 0 4.5.1 6.2.2h4.7c1 0 .8.2.8.9 0 .1-2.1.1-2.7.1l-7.3-.3-5.4-.2-.1 3.7-13.9.2c0 .4 0 .9-.1 1.4 0 .9.3 1.2 1.1 1.2 2.6 0 21.7.2 23.5.2 1.7 0 12.8-.2 13.4-.2.9 0 1 .4 1 1.3-.1.8-.1 1.7.1 2.5.8.5.6.9 1 1.3-.2.7-.4 1.5-1.4 1.4-.7 0-1.5 0-1.8-.9-.2-.7.1-1.3 1.1-1.9-.1-.7-.1-1.4-.1-2.1 0-.5-.1-.7-.6-.7h-10.1c-1.7 0-19.9-.1-22.5.1-1.5.1-5.1-.3-5.6-.2l.1-2.6c-.6 0-1.7 0-1.7-.5v-1.8c-1.2-.6-2.5-1.6-4.2-.6.3.5 1 .9 1.3 1.3.6.7.4 3.3-1.5 3-.7-.1-1.4-.9-1.5-1.9v-1.2c0-.2.1-.4.1-.7-.6-.5-1.3-.2-1.9 0-1 .3-1.7.9-2.1 1.9-.2.4-.4.7-.7 1.2-.5-.6-.5-1-.2-1.5 1.1-2 2.8-3 5.2-2.7 2-1 3.6-1.2 4.7-.6.3.2.5.3 1 .5v-1.1c0-.3 0-.7.1-1 .2-1.1.3-.9 1.4-.9-.1-.3.1-.8.1-1.2 0-1.4-.2-1.4 1.2-1.4.1 0 2.4.2 3.4 0 1.2-.1 9.9.2 13 .3 1.4 0 7.8-.3 8.1-.3 0-.3-.1-1-.1-1.2 0-.6.1-.8 1-.7l1.6-.1c-.1-.4-.5-1.3-1.2-2.5-.5-1-1-2.3-.3-3.2.3-.4.3-.7.3-1.2.1-1.1.4-2.1.7-3.2.1-.3.7-.9 1-.8.3.2.2.8 0 1.2-.5.8-.7 2.7-.7 2.7l.6-.3c1.2-.5 4 .3 3.3 1.4-.3.6-1.5 1.2-2.5 1.1-.7-.1-1.6-.6-1.6-.6s-.6 1 .3 2c1-.7 2.4-1 3.4-.8.7.1 1.3.6 1.3 1 .1.6-.2 1.3-1.2 1.5-1.3.3-2.8-.1-2.8-.1s.5.9.9 1.4l3.5-.1c1-.1.9.6 1 1.6 0 .3.1.6.2.8l15.4.1c.9 0 5.2.1 6.4-.1.8-.1.8 0 .9.6.1.9.3 3 .3 3.3.2 0 .6-.1 1-.1s.4.2.4.5c.1.8.1 1.6.1 2.4.8-.6 1.3-1.7 2.1-2 1.1-.4 1.9-.3 2.5.1.8-.6 1.4-1.2 2.2-1.6.7-.4 1.6-.6 2.3-.2 1.1-1.1 2.2-2.1 3.2-3.2.4-.4.7-.7 1.1-1 .4-.3.7-.2.9.2.2.4.2.6-.2.9-.9.6-1.7 1.2-2.4 1.9-.5.5-.9 1.1-1.3 1.6.8.9 1.2 1.9 1.3 3.1.1 1.1-.6 1.9-1.5 1.9-1.2 0-2.1-.8-2.1-1.9 0-1 .3-1.8.7-2.7-.6-.2-1.2.3-1.6.6-.4.4-1.3.9-1.3 1.1l.9 3.6c.2.9.6 3.3-1.5 3.4-.6 0-1.4-.3-1.6-1.1-.3-.7-.3-1.5-.1-2.3l.5-2.2c.1-.4.2-1.4.2-1.4s-.9-.3-1.4-.2c-.4.1-.7.3-1 .6-.4.4-1.6 1.6-1.6 1.9 0 .8-.1 2.2-.1 2.3 0 .6-.3.4-.5.4-.2.1-.8.1-1.1.1l.8 6.6c0 .4.2.9.1 1.2 0 .1-.9.1-1.1.1-.3 0-.1-.7-.1-1.3l-.3-3.3c-.2-2-.3-4-.4-5.9-.1-.9 0-1-1-1-2 .1-12.8.2-14.8.1 0 .6.1 1.8-.1 1.9-.2.1-1.3-.1-2-.1-.8 0-1.6 0-2.4-.1l-1-.1c-1.9 0-14.9.6-16.6.5-.3 0-1.5 0-1.5-.2 0-1.2.1-1.5 0-2.5.3-1 .3-1.6.8-.9.3.4.2 2.2.4 2.4.1.1 1.1.1 1.4.1 1.4-.1 2.9-.2 4.3-.2h5.6c1.7 0 9.4-.1 10.1-.1v-1.3c0-.5.2-.5.9-.5.8.1 3.9.2 4.6.1.9 0 4.7-.2 5.8-.2l3.4-.1c.7 0 1.3-.1 1.8-.1-.1-1.5.2-5-.3-5.1-1-.2-3.1.2-4.8 0l.2 1.7c.1.5.2 1.5.1 1.9-.1.4-7 .3-9.6.2-1.3 0-4.3-.4-4.5-.3 0 .7.1 1.9-.1 2.6 0 .2-4.3.1-4.7 0l-.1-3.4.6-.3c1.2.2.5-.6.4.3 0 .2.1 1.5.2 2.6.8 0 1.8.1 2.7.1l-.1-2.1c0-.4.3-.6.9-.6 1.1 0 6.3.1 6.9.2 2.1.2 6.1 0 6.3 0l-.2-2.9-3.5.7c-2.6-.1-22.1 0-22.7 0-2.2 0-13.8-.3-16.7-.2-2 0-4 .2-6.2.3m63.3 6.6c-.9 2-.4 3.9.5 3.8.8-.2.2-2.7-.5-3.8m3.9-1.2c0 .6.2 1 .8 1 .6 0 .8-.2.7-.9-.2-1.3-.8-2.1-.8-2.1s-.6.9-.7 2m-74.6.6s-.8 1.1.2 2c.7.6.8-.3.8-.4.1-1.3-1-1.6-1-1.6m36-11.8c.7-.1 1.5.4 2.1-.2-.7-.2-1.4-.4-2.1.2m16.3 45c.5-.8 1.8-3.2 1.8-3.2s.5 1.9 1.2 3.1c.6 1 1.1 1.9 1.1 1.9l-.7.7c-.2.2-.4.6-.5.7v1.2l-.2 2.9c0 .5-.1 1.4-.1 1.4.7-.2 1.6-.6 2.4-.8.2 1.4.3 2.5.5 3.7l.8 4.8c.1.3.2.6.4.9.8 1 .4 2.6-1.1 2.8-.7.1-1.1-.4-1.5-.7-.6.1-1.1.3-1.6.4 0 1.1.7 10.2.7 11.7 0 .9.1 2.6.1 2.6-.7.3-7.3.4-7.3.4-.2-.9-.2-3.6-.1-4.5.3-6.2.3-8.8.2-9.2 0-1.5.1-3.1 0-4.6v-1.3l-1.2-1.3.6-1s.4.5.7.8c-.1-1.6-.2-3-.3-4.5-.5.6-2.8 3.8-3.4 4.7 0 0-2.7-2.2-3.6-3-.5-.5-.5-.5 0-1 .7-.8 1.4-1.6 2.1-2.5.7-1 4.1-5.5 5.1-6.7.2-.2.6-.5.7-.5l3.2.1zm.7 6.3c-.2-.3-.4-1-1.1-2.3-.5-.9-1.5-1.9-1.5-1.9s.7-.6 1-1c-1.4-.4-2.5-.2-2.5-.2-.8 1-5.6 7.6-6.6 8.9l2.3 2.3c1.2-1.7 2.3-3.2 3.3-4.7.1-.2.4-.5.5-.4.2.1.4.4.6.6.1.1.2 3.8.3 5.4v.7c0 1.7.1 8.6.1 9.3v9.5c0 .2 0 .4.1.6l5.1-.1c0-.4.1-.7 0-1-.1-.7-.4-4.2-.5-5.3-.1-.9-.4-6.9-.5-9l-.1-7.6c-.4.2-1.5.7-1.5.7l-.3-1.2s1.2-.4 1.9-.7c.2-1.4.3-2.8.5-4.3-.4.8-.2.7-1.1 1.7m3.5 2.7l-1.8.6s-.1 1.4-.1 1.8c.1 1.7 0 2.4 0 4.2l.1 3c.5-.1 1-.2 1.6-.4.2-.5.5-1.1 1.3-1.3-.4-2.6-.7-5.2-1.1-7.9m10 31.2c-.1-.4-.1-.8-.2-1.4l-3 .2c-1.2.1-2.4.2-3.7.3-.4 0-.8.2-1.3.2-.3 0-.7 0-.9-.2-.3-.3-.2-.6.2-.8.2-.1.5-.1.8-.1l5.2-.3 2-.1c.4 0 .6-.2.6-.6l-.1-1.6c-.2-2-.3-4-.5-6.1v-2.6c0-.6 0-1.1.5-1.5.5.1.6.3.6.9-.1 1.3-.1 2.6-.2 4 0 .4 0 .8.1 1.2.1 1.5.2 2.9.4 4.4.1 1.4.3 2.7.5 4.1l.6 4.3c.3 2.2.7 4.3 1.2 6.5.3 1.5.8 3 1.4 4.4l1.6 3.7c.1.4.4.9-.1 1.2-.3.2-.8-.3-1-.8-.3-.7-.7-1.5-1.1-2.2l-.6-1.8c-.1-.3-.2-.4-.6-.4l-6.2.9c-1.1.2-2.3.4-3.4.5-.2 0-.6.3-.9-.4-.2-.5.6-.5.7-.5.4-.1.9-.2 1.3-.2 1.4-.2 2.7-.4 4-.7l3.8-.6c.3 0 .6-.1.9-.2l-.5-1.5c-1.1.1-2.2.2-3.2.4l-1.3.3-6.3 1c-.4.1-.9 0-1.3 0-.1 0-.2-.1-.3-.2-.1-.1-.1-.3 0-.4.1-.1.2-.2.3-.2.9-.2 1.7-.4 2.6-.4 2.4-.1 4.6-.6 6.9-1 .7-.1 1.5-.3 2.3-.5-.2-.9-.4-1.9-.7-2.9l-6 1c-1.6.2-3.1.4-4.6.8-.6.1-1.7.5-1.7-.3.1-.5.5-.4.8-.5l4.5-.9c1.9-.3 3.9-.5 5.9-.8.4 0 .7-.1 1.2-.1-.1-.9-.3-1.8-.4-2.8-4.2.5-8.2 1.1-12.2 2.1-.3-.2-.7.4-1-.6 0-.5.3-.6.7-.7l5.5-.9 5.1-.8 1.8-.4c-.1-.4-.1-.9-.2-1.4-.1-.6-.4-.9-1-.8l-8.1 1.1-1.7.4c-.3 0-.7-.2-.8-.4-.1-.3.1-.7.5-.7l5-.7c1.6-.6 3.6-.7 5.6-.9m-59.1 5c-.4 1.8-.7 5.1-1.1 5.1-.4 0-1-.1-1.1-.4-.1-.3.2-1 .3-1.5.2-1.2.4-2.4.6-3.5.2-1.5 1-13.6.9-15.6l-.3-4.1c0-1.1-.1-7-.2-8.8 0-.6.1-6.2.1-7l-.1-1.5c0-.3.1-.5.5-.5s.6.3.6.6v2.3l.2 8.5c0 1.1 0 2.2.1 3.2l.3 6.6v6c1.6-.1 3.2-.2 4.8-.2 1 0 1.9 0 2.9.1.3 0 .9-.2 1 .4.1.6-.1.8-1.4.7-.9-.2-6.4.1-7 0l-.1 2.5h3.2c1.4-.1 2.8-.2 4.2-.2.3 0 .8 0 .7.5 0 .4-.4.5-.8.5-1.1 0-4.5.2-5 .3-.8 0-1.5 0-2.3.1-.1.7-.1 1.4-.2 2.2l3.2-.3 2.8-.3c.7-.1 1.4-.2 2.1-.2.2 0 1-.3 1 .4 0 .6-.6.4-.7.5l-8.6.9-.3 1.8c1.8-.1 3.4-.3 5-.4 1.5-.2 3-.4 4.5-.5.4 0 1.2-.4 1.4.1.3.8 0 .7-.8.9-2.3.2-7.7.5-10.4.8"/><path d="M87.7 55.4c0-.3-.2-1.1.1-1.2.4-.2.7-.1 1.1-.1.5 0 .6.3.7.9l.2 2.7.4 4.4c.1 1.4.2 2.9.4 4.3l.1 1.4c0 .5-.2.7-.7.6-1-.1-1.1 0-1.2-1.3-.1-1.5-.4-4.4-.5-4.5l-.7.8c-.9 1-2.1 1.3-3.3 1-1.3-.5-2.3-1.2-2.7-2.4-.3-.9-.4-2-.3-2.9.1-1.1.6-2.2 1.2-3.2.9-1.6 3.7-1.5 5.2-.5m-53-.3c.5-.9.9-1.5 1.3-2.4l.4-.7c.3-.4 1.4.8 1.4.8.6.6.2.8 0 1.1l-2.3 3.6c-.1.2-.2.4-.1.5.3.7.6 1.5 1 2.2.8 1.3 1.5 2.2 2 3 .3.4 1.2 1.3.9 1.5-1.6 1-2.3-.2-2.7-1-.3-.6-.7-1.2-1.1-1.7-.5-.7-1-1.4-1.5-2.2-1 1.2-1.6 2.4-1.6 3.9 0 1.3-.3 1.3-1.6 1.2-.2 0-.8 0-.9-.2-.1-.4.5-5.5.5-8.1 0-1.8 0-3.7-.2-5.5-.1-1 0-1.7-.2-3-.2-.7.2-.9 1.1-.9.5 0 .8-.2 1 .3.1.5-.1 7.7.2 11.6.2-.2 1.7-2.7 2.4-4m25.6 3.8c.4-1 1.2-2.6 1.2-2.7 0-.1.2-.1.3 0 .2.2.8 1.9 1.3 2.8.4-1.7.7-3.5 1.1-5 .1-.4.3-.3.9-.2.3 0 .6.1.7.1.6.1.7.1.6.6l-.9 4c-.1.3-.1.5-.1.8l-.1 4.1c0 .2 0 1.2-.2 1.4-.1.1-1.2 0-1.4 0-.3.2-.7-2.1-1.5-4-.1 0-.8 2.9-1.4 4.1h-1c-.7 0-.5 0-.7-2.1 0-1.1-.4-2.2-.6-3.2-.3-1.2-1.4-4.6-1.3-4.8.1-.2.9-.4 1.4-.6.3-.1.5.1.6.5.2 1 .5 2 .7 2.9.1.4.2.8.4 1.3" fill="#5AB1BC"/><path d="M55.8 70.8c-.8-.6-1.6-1-2.2-1.9-.4-.6-.2-1.1.1-1.5.5-.6 1.3-1 2.2-.7l3.8 1.4c1.3.3 3.5.5 4.5.3 1.1-.3 2.2-.7 3.3-1.1.5-.2 1.1-.5 1.6-.5.4 0 1 .1 1.2.4.3.3.4.8.1 1.3-.4.9-1.3 1.5-2 2-1.5 1.1-3.4 1.5-5.2 1.9-1.7.3-5.6-.4-7.4-1.6m2.7.2c.3-.8.5-1.1.7-1.7-.3-.1-1.1-.4-1.1-.4s-.7 1-.9 1.5c.4.2.8.4 1.3.6m1 .2c.3.1 1.3.3 1.4.2l.2-1.8c-.4-.1-1-.1-1-.1s-.3.8-.6 1.7m8.5-1.5c-.3-.5-.5-.9-.6-1.3-.3.1-.6.3-1 .4l.5 1.4 1.1-.5m-12.2-1.7c0-.1-.8-.4-1.2-.2-.2.1 0 .9.3 1.3.3-.5.6-.8.9-1.1m.8 2l.8-1.3c-.2-.1-.7-.4-.7-.4l-.9 1.2c0-.1.7.5.8.5m11.9-2.1c.2.4.4.7.6 1.2l.6-1.1-1.2-.1z"/><path d="M40.6 64.5c-.1-.3 0-1.6 0-2.5 0-1.7 0-3.3-.1-5 0-.8-.1-1.5-.2-2.3 0-.2-.2-1.6 0-1.7.3-.2 1-.1 1.4-.1.1 0 .3.3.3.5.1.5.1 1 .2 1.7.7-.9 1.6-.9 2.4-.6.8.3 1.1.9 1.3 1.7.5 1.9.6 3.8.6 5.8 0 .8.2 1.5.3 2.3.1.7 0 .8-.7.8-.3 0-.5-.1-1-.1-.5-.1-.5-.4-.4-.9.1-.8 0-1.6 0-2.5 0-.7-.1-1.5-.3-2.2-.2-.8-.5-2-1.3-1.9-.8.1-.8 1.5-.7 2.4.1 1.4.2 2.7.2 4.1 0 .7-.3.9-1 .9-.4-.2-.9 0-1-.4m35.2-7.5c-1.1-.1-1.5 1-1.5 1.9-.1 1.4-.2 4.4-.4 4.6-.2.2-.4.1-.9.1-.7 0-.9-.4-.9-1 .1-1.8.2-3.5.2-5.3l-.1-2.8c0-.2.3-.5.5-.5.5-.2 1.2-.4 1.4-.1.2.2.2.7.2 1.3.3-.3.3-.4.7-.6 1.6-.7 3.5-.1 4 1.3.2.6.2 1.3.2 2l.2 4.7c0 .3-.1.7-.2 1-.1.1-.3.3-.5.3-.4.1-.8.1-1.2.1-.6.1-.8-.2-.8-.8.1-1 .3-2 .3-3.1-.1-1.2-.1-3.1-1.2-3.1m-21.5 7.9c-1 .6-2.3.3-3.3-.3-1.3-.8-1.8-2.2-1.9-3.5-.3-2.5.4-4.9 2.7-6.5.9-.5 1.6-.3 1.9-.3.5.1 1 .5 1.2.7.5.6 1.1 1.4 1.3 2 1.5 3.3-.2 7-1.9 7.9m-1.2-8.5c-.8-.1-1.3.3-1.8 1-.8 1.2-.7 2.7-.8 3.8 0 .8.6 2.1 1.7 2.4h.3c1.8.2 2.6-1.9 2.7-3.3.2-2.2-1-3.9-2.1-3.9m40.9 31.2c-.1.3-.9 1.5-1.1 2.4-.3 1.1-.3 1.9-.4 3.1 0 .2 0 .9-.3.9-1 0-1.2-.3-2.2-.5-.4-.1-.2-.6-.1-1 .4-1.5.7-5.1 1.1-5.5.2-.3.5 0 .6 0 .4.1.6.1 1.6 0 .5-.1.9.3.8.6m-3.1-5.7c-.4 0-.7-1.3-.7-1.8 0-.8-.1-1.6-.2-2.4l-.6-3c-.1-.6.5-.7 1.1-.9.6-.1.9-.9 1.1-.3.1.3.3 1.3.3 1.6.5 2 .5 3.2.9 5.2.1.2.5 1.4.2 1.4l-1.1.1c-.6.1-.6.1-1 .1m-20.4-27.8c.4.3.3 1.7.3 1.8l-.2 3c0 1 .1 1.9.2 2.9v.8c0 .4 0 .8-.2 1-.3.2-1.4.4-1.5-.3-.2-.6-.1-1.1-.1-1.6v-4c0-1-.3-2-.2-3-.1-.8 1.5-.7 1.7-.6" fill="#5AB1BC"/><path d="M72.5 146c1.4.2 2 1.3 1.5 2.5s-1.2 2.2-2.6 2.5c-.8.2-1.5 0-1.8-.6-.5-.7-.6-1.6-.1-2.2.5-.6.9-1.1 1.5-1.6.5-.2 1.1-.4 1.5-.6m0 1.4c-.5.2-1 .4-1.3.6-.4.4-.2.9-.1 1.4.1.4.5.5.7.4.3-.2.7-.5.8-.9.1-.4 0-.8-.1-1.5m28.9-1.3c-.1 1.8-2 3.5-3.6 3.8-.3.1-.7.2-1 .1-1.3-.1-1.8-1.1-1.3-2.3.7-1.7 2.1-2.4 3.7-2.6.4 0 .9.2 1.3.4l.9.6m-1.7.1c-1.3-.2-2 .1-2.6 1.2-.3.5-.3 1.1.1 1.4.2.2.7.2 1 .1 1.3-.4 1.8-1.3 1.5-2.7m34.5 4.8c-1.8 0-2.6-1.5-2.3-2.7.2-1 1.1-1.7 2.1-1.7.6 0 1.2 0 1.8.1 1.2.2 2.2 2.1 1.6 3-.4.6-1 .9-1.6 1.2-.6 0-1.1 0-1.6.1m2.4-1.9l-.7-.7-.3-.3c-.4-.8-1.1-1-1.9-.6-.7.3-.9 1.8-.3 2.2.8.5 2.6.5 3.2-.6"/><path d="M89 98.3c-.2.2-.7 1.3-1.9 0l-4.2-3.3c-.1-.1-.4-.2-.4-.4 0-.3.6-.3 1-.7.4-.5.5-1.1 1.2-.5.3.3 1.3 1.2 2 1.8.2.2.4.4.7.5.4.2.9.4 1.1.7l.2.9c.1.5.5.8.3 1" fill="#5AB1BC"/><path d="M126 148.1c-.1-.6 0-.8.4-1 1-.5 2-1 2.9-1.6.8-.4 1.5-.9 2.3-1.4.2-.2.5-.4.7-.1.1.2.1.5.1.8 0 .2-.2.4-.3.6-.6 1.8-1.2 3.6-1.8 5.3-.1.2-.3.4-.5.6-.7-.7-.6-1.3-.3-2 .4-1.1.8-2.3 1.2-3.5-1.6.8-2.9 1.9-4.7 2.3m-11.9.6c.2-1 .8-2.5 2.2-2.8.5-.1 1-.3 1.5-.2.4.1.8.5 1.1.8.5.7.4 1.4-.3 2.2-.8.9-1.8 1.4-2.9 1.7-.8.3-1.7-.7-1.6-1.7m4-1.6c-1.1-.4-1.5-.4-1.9 0-.5.5-.5 1.1-.4 1.7 0 .5.3.6.7.5.9-.3 1.6-1.2 1.6-2.2m-74.5-.6h-.9c-.8-.2-1.5-1-1.5-1.6 0-.8.5-1.5 1.5-1.9 1.1-.4 2.2-.3 3.2.2.5.2 1.2 1.2 1 1.6-.2.5-.6 1-1 1.2-.7.4-1.5.5-2.3.7v-.2zm-1.1-2c.8.9 1.8 1.2 2.7.7.2-.1.6-.5.5-.6-.1-.3-.3-.7-.6-.8-.8-.3-2 0-2.6.7m7.8 1.2c.7 0 1.3.7 1.4 1.3.1 1.4-1.5 3.3-2.9 3.3-.6 0-1.4-.5-1.8-1-.4-.5-.5-1.3.1-2 .8-1 1.9-1.5 3.2-1.6m.3 2l-.4-.3c-.8-.5-2-.1-2.3.7-.2.6 0 .9.6 1 1.1.2 1.5-.1 2.1-1.4m7.4-22.4c-.1 1.5-.9 2.5-2.3 2.8-1 .2-2.2-.6-2.3-1.6-.1-1.8 1.7-3.4 3.4-3.1.8.2 1.3 1 1.2 1.9m-1 .4c0-.9-.5-1.3-1.3-.8-.3.2-.7.4-.9.7-.2.3-.3.7-.2 1 .1.2.5.5.8.5.9.1 1.6-.6 1.6-1.4m-16.4 12.1c1.4 0 2.2 1.4 1.7 2.7-.3.8-.8 1.4-1.6 1.8-1.1.5-2.7-.5-2.7-1.8 0-1.5.9-2.7 2.6-2.7m-.2 3.6c.2-.2.6-.4.7-.6.3-.5.4-1.1 0-1.6-.1-.2-.4-.3-.6-.3-.5.1-1.1 1.1-1 1.6.1.4.2.9.9.9m16.2 5.1c.5.3 1.1.4 1.5.8.6.6.4 1.4-.4 2-.7.5-1.5 1-2.4 1.3-.8.3-1.5-.1-2.1-.7-.6-.6-.5-1.4.1-1.9.9-.8 1.9-1.6 3.3-1.5m.5 1.8c-.7-.8-1.5-.4-2.2-.2-.7.2-.6.8-.7 1.3 1.3.6 2-.1 2.9-1.1m-54.9.5c.2-.6.4-1.3.8-1.8.3-.4 1-.6 1.5-.6 1.2 0 2.1 1.1 1.8 2.2-.2.9-.6 1.7-1.4 2.3-.6.4-1.2.4-1.7-.1-.5-.4-.9-1.1-1-2m1.4-1c0 .5-.1 1 0 1.5s.8.7 1 .3c.2-.4.4-1 .3-1.4-.1-.4-.6-.7-1.3-.4m108.6 3.3c-.3-.1-.5-.1-.6-.2-.1-.1-.4-.1-.4-.2 0-.8-.1-1.6-.1-2.3v-1c-1 .7-1.6 1.9-2.8 2.4-.3-.7 0-1 .4-1.3l1.7-1.9c.5-.5.7-1.2.7-1.9 0-.5.2-.8.7-.8.4.1.8.3.7.9-.1.3-.2.5-.2.8-.1 1.5-.2 3 0 4.6.1.3 0 .6-.1.9m-7.2-7.1c-.6-.2-1.1-.2-1.5-.4-.6-.3-.9-.8-.9-1.5.1-.7.4-1.1 1.1-1.2 1.5-.2 2.9-.4 4.1.7.7.7.5 1.5-.4 1.8-.8.3-1.7.4-2.4.6m1.6-1.9c-.9-.7-2.2-.6-2.9.1 1.3.9 2 .9 2.9-.1m10-2.7c-.8 0-1.5-.6-1.7-1.4-.2-.7 0-1.4.6-1.9 1.1-.8 2.7-.9 3.7-.3.8.6.8 1.3.2 2.1-1.1 1.3-1.8 1.5-2.8 1.5m1.8-1.8c-.1-.2-.2-.5-.2-.7.1-.6-.3-.6-.7-.6-.8.1-1.5 1.1-1.2 1.9.1.2.3.3.5.4.9.1 1.3-.5 1.6-1m7.1 6.5c-1.1-.1-1.9-1.2-1.5-2.1.6-1.6 3.1-2.2 4.2-1.2.8.7.8 1.2.3 2.1-.8 1.2-2.1 1.1-3 1.2m-.4-1.1c.6.4 1.2.2 1.8 0 .8-.3 0-1 .5-1.4-.9-.4-1.9.2-2.3 1.4m-74.7-12.3h.5c.7.1 1.1.5 1.1 1.2-.2 2-1.5 2.7-3.2 2.7-.7 0-1.2-.6-1.5-1.2-.3-.6.1-1.2.5-1.6.7-.8 1.5-1.3 2.6-1.1m-2 2.4c.8.4 1.6.2 2.2-.4.3-.4.2-.7-.3-.8-.9-.2-1.6.3-1.9 1.2m44 13.1c.7 0 1.5 1.3 1.3 1.9-.4 1.2-1.3 2.1-2.4 2.7-1.5.7-2.3-.5-2.2-1.7.1-1.3 2.1-2.8 3.3-2.9m0 1.3c-1.3-.2-2.2 1.2-2 2.3.3 0 .6 0 .8-.2.5-.3.9-.6 1.2-1 .1-.1-.1-.5-.2-.8l.2-.3m-9.9-1.2c0 .8-.9 1.8-1.8 2.1-.3.1-.6.1-.8.2-1 .1-2.1-.8-2.1-1.8 0-.3.1-.7.3-.9.9-1 2.3-1.2 3.7-.8.8.2.8.7.7 1.2m-1.2-.2c-1-.5-2 0-2 1 1.3.1 1.6 0 2-1m-51.9-6.6c.7.1 1.3-.1 1.6.7.3.7 0 1.3-.4 1.8-.6.8-1.6 1-2.5 1.1-.5 0-1.5-.9-1.7-1.5-.2-.7.2-1 .6-1.4.8-.5 1.6-.8 2.4-.7m-1.6 2.1c1.3.3 1.5.1 1.7-1-.8-.1-1.2.1-1.7 1m33.9-.6c.3.9 0 1.8-.5 2.5-.4.5-.9 1-1.5 1.3-.6.4-1.2.1-1.6-.3-.7-.5-.7-1.6-.3-2.3.8-1.3 2.3-2.1 3.9-1.2m-2.4 2.9c1.2-.4 1.4-1.1.9-2.4-1 .4-1.4 1.5-.9 2.4m-1.5-12.6c-.1 1.6-2.2 3.2-3.5 2.5-.8-.4-1.6-1.5-.8-2.6.5-.7 1.2-1.3 2.1-1.5 1.3-.3 2.3.4 2.2 1.6m-1.1.5c0-.4-.4-.9-.8-.9s-1.3.8-1.2 1.2c.1.3.3.7.6.8.6.2 1.4-.4 1.4-1.1m51.5 5.8c0-1.3 1.2-2.5 2.8-2.5.6 0 1.2.7 1.7 1.1.1.1 0 .6-.1.8-.3.5-.7.9-1.1 1.3-.5.5-1.1.8-1.7.8-1.2.1-1.8-.7-1.6-1.5m1.8.9c.4-.4.8-.6 1-.9.1-.3-.1-.7-.1-1.1-.5-.1-.8.1-1.1.6-.4.5.1.8.2 1.4m-33.5-3.7c-.1-1.6 1.6-2.8 3-3 .5-.1 1.6 1 1.7 1.5.1.4 0 .5-.5.7-.2.1-.4.3-.4.5-.4 1-1.3 1.5-2.1 1.9-.9.3-1.8-.6-1.7-1.6m2.8-1.9l-.4.1c-.6.2-1.3 1-1.3 1.6 0 .2.1.5.3.6.1.1.4 0 .6-.1.7-.5 1-1.4.8-2.2m-45.7 10.3c1.2.1 1.6 1 1.2 2.1-.4 1.1-1.1 1.8-2.2 2.2-.7.2-1.2.1-1.7-.4-.5-.6-.5-.9-.2-1.6.4-.8 1-1.5 1.8-1.9.4-.2.8-.3 1.1-.4m.1 2.1c0-.6-.2-1-.6-1-.4 0-.8.6-.8 1.2 0 .5.1.8.6.9.4.1.8-.5.8-1.1m31.3-9.7l-.4 1.4c-.2 1.2-1.4 2.1-2.6 2-.5 0-1.5-1-1.6-1.6-.2-.7.2-1.5.8-2 .8-.6 1.8-.6 2.8-.7.3 0 .6.6 1 .9m-1.2.3c-.5.1-1 .1-1.4.2-.5.2-.8 1.2-.5 1.6.2.3.9.4 1.3 0 .2-.2.4-.5.5-.9.1-.2.1-.5.1-.9m56.8 4.2c-.7.5-1.2.9-1.8 1.3-.6.4-1.2.5-1.9.1-.1-.3-.1-.6.4-.8 1.3-.5 2.5-1.2 3.5-2.2.2-.2.5-.3.7-.4.1.3.3.6.3.8 0 1.4 0 2.8-.1 4.1 0 .3-.5.7-.8.9-.4.1-.5-.3-.5-.6.2-1 .2-2.1.2-3.2m-77-7.3c-.3-.2-.8-.3-1.2-.6-.3-.3-.5-.6-.3-1.1.4-1.2 1.1-2.2 2.3-2.6.7-.2 1.4-.3 1.9.3.2.2.5.7.4 1-.3 1.5-1.2 2.5-2.6 3-.1-.1-.2-.1-.5 0m-.2-1.6c.8.5 1.2.4 1.7-.1.5-.6.5-1.1 0-1.8-1.5.4-1.8.6-1.7 1.9m20.4-3c-.1 1.4-1.1 2.4-2.5 2.3-.9 0-1.8-1.1-1.7-2.2.1-1.3 1.2-2.2 2.6-2.1 1.1.1 1.8 1.2 1.6 2m-1.7-.6c-.6 0-1.2.4-1.2 1s.5.7.9.8c.5.1 1.2-.4 1.2-.8s-.5-.9-.9-1m39.4 6.8c-.1 1.4-2.1 2.9-3.3 2.4-.6-.2-1-.9-1-1.5.1-1.2 1.1-2.4 2.3-2.6 1-.2 2 .7 2 1.7m-1.9-.6c-.4.3-.7.5-1 .8-.4.3-.4.8-.2 1.2.3.4.9.3 1.2 0 .2-.2.3-.7.3-1 0-.3-.1-.6-.3-1m-83.7 11.9c-.1 1.1-.7 2-1.6 2.6-.7.5-1.6.2-2.1-.6-.5-.9-.3-2.1.5-2.8.2-.2.4-.3.5-.5.5-.7 1.3-.5 2-.4.6.1.5.8.6 1.3.2.1.1.3.1.4m-2 2l.5-.6c.5-.5.6-1.1.4-1.7-.1-.4-.5-.6-.8-.3-.7.9-1.1 1.7-.1 2.6m51.7-6.4c1 .1 1.7.6 1.8 1.5 0 .2 0 .4-.1.5-.7.8-1.3 1.7-2.5 2-.8.2-1.5-.1-1.9-1.3-.3-1 .5-2.2 1.7-2.6.3 0 .7 0 1-.1m.2 1.4c-1.1-.1-1.6 0-1.8.6-.2.6.1 1 .7.9 1.2-.2 1.3-.3 1.1-1.5m1 5.7l-1.5 1.6-.3-.1c0-.2-.2-.4-.1-.6.2-.4.4-.7.7-1 .8-.8 1.7-1.5 2.2-2.6.9.1.9.1.8 1-.2 1-.3 2-.4 3 0 .2 0 .5.2.7.3.4.1.6-.3.8-.3.1-.7.2-1 .2-.4 0-.7-.2-.6-.7.1-.8.3-1.6.4-2.3-.1.1-.1 0-.1 0m1.7-18c-.1 1.1-1.5 2.5-2.7 2.6-.7.1-1.8-.8-1.6-1.6.2-1 .5-2.1 1.6-2.6.7-.3 1.4-.3 2 .1.4.3.8.8.7 1.5m-1.1 0c-.1-.2-.2-.6-.3-.7-.2-.1-.5 0-.7.1-.3.2-.6.5-.7.8-.2.3 0 1.1.3 1.2.5.2.8-.1 1-.4.1-.2.2-.6.4-1m22.1 12.9c-.4-.3-.5-.6-.1-.9.3-.3.7-.5 1-.7 1-.6 2-1.2 2.7-2.2.4-.6.6-.6 1.2-.3-.2 1.2-.3 2.3-.5 3.4 0 .2-.1.4 0 .5.4.8-.1 1.4-.8 1.9-.7-1.2-.1-2.5-.5-3.7l-3 2m-14.4-15.7c.1.6.2 1.3.2 1.9.1.8.1 1.5.3 2.3.2.7-.1 1.1-.4 1.6-.8-.2-.9-.3-.9-1.1v-2.5h-.2c-.5.6-1 1.2-1.6 1.8-.2.2-.4.4-.7.6-.2.1-.4 0-.6-.1-.1 0 0-.4.1-.5.5-.6 1-1.1 1.4-1.7l1.2-1.8c.2-.3.6-.4.9-.6.1.1.2.1.3.1m-52.3 5.3c-.1 1.1-1.5 2.9-2.6 3.2-.5.1-1.1-.2-1.4-.9-.5-.9-.1-2 .7-2.5.6-.4 1.3-.8 2-1 .9-.2 1.4.2 1.3 1.2m-1.2-.1c-1.2 0-1.8.6-1.7 1.9 1.1.2 1.7-.5 1.7-1.9m68.3 5.3l-1.1.5c-.6-.5-.1-1-.1-1.5s-.1-1.1-.2-1.7c-.8 1-1.5 1.8-2.2 2.7-.9-.5-.8-.6-.3-1.2.7-.7 1.4-1.5 1.8-2.5.1-.4.3-.8.5-1.1.1-.2.4-.3.6-.3.1 0 .4.3.4.5.3 1.6.5 3.1.6 4.6m-53.8-17.5c.4 0 .8 0 1.2.1.1 0 .4.2.4.4.1.4.2.9 0 1.3-.4 1-.9 1.9-2.1 2.3-.7.2-1.2.2-1.7-.3-.4-.4-.6-1.4-.3-1.8.4-.6 1-1.1 1.5-1.6.2-.2.6-.2.9-.4h.1zm-1.3 3c.8.4 1.2-.2 1.7-.6.3-.3.3-.7.1-1.1-.3-.4-.7-.3-1.1-.1-.8.4-.9 1-.7 1.8m46.9 10.9c.1-1.1.8-1.9 2-2.2l.5-.1c1-.2 1.7.6 1.5 1.6-.2.9-.6 1.5-1.3 2-.5.4-1.2.7-1.8.4-.6-.4-.9-1-.9-1.7m2.6-1.3c-.9.2-1.6.7-1.5 1.3 0 .2.2.5.4.7.1.1.5-.1.6-.2.6-.5.7-1.1.5-1.8m-1.9 7.8c-.3.2-.5.4-.7.6-1.1-.8-.5-2.3-1.2-3.2l-3.2 2.2c-.5.3-.7 0-1.1-.3l1-.9c1-.8 1.9-1.6 2.9-2.3.5-.4 1.1-.3 1.3.3.3 1 .6 2 .8 3 .1.3.1.4.2.6m-56.3-5.3c-1.1-.1-1.7-1-1.5-2 .2-.9.8-1.6 1.6-2.1.4-.3 1.4-.3 1.7 0 .4.4.4.9.3 1.5-.2.8-.3 1.6-1.1 2.1l-1 .5m.4-3.1c-1 .6-1 .7-.8 1.6.6.3 1 0 1.2-.5.2-.4.1-.8-.4-1.1m30.7 6.2c-1-1.2.3-1.9.2-2.9-.8.5-1.5 1-2.2 1.5-.2.1-.5.2-.8.2-.1 0-.4-.2-.4-.3 0-.1.1-.4.2-.4 1-.7 2-1.3 2.9-2 .5-.4 1-.8 1.6-1.2.1-.1.4 0 .6 0v.5l-1.1 3.3c-.2.5-.6.8-1 1.3m-43.8 3.3c0 1.1-.5 1.7-1 2.3-.2.2-.7.3-1 .2-1-.2-1.4-1.2-1.3-2.1.1-1 .5-1.7 1.4-2.2.8-.4 1.7.1 1.8 1 0 .3.1.6.1.8m-1.4-1c-.9.5-.9 1-.9 1.7 0 .4.2.6.6.6.5 0 .6-.3.6-.6 0-.6-.2-1.1-.3-1.7m85 3.3c-.3-.3-.5-.5-.6-.7.4-1.2 1.4-1.9 2.4-2.8-.9 0-1.6 0-2.3-.1-.7 0-.7 0-.7-.9h2.5l1.3-.1c.3 0 .7-.3.9.1.1.2-.1.7-.3.9l-2 2.3c-.2.2-.3.4-.4.5l-.8.8m-34.6 1.7c1.1.9.6 1.9.4 2.8-.1.6-.2 1.2-.1 1.7.1.4 0 .7-.3.9-.2.1-.5.3-.7.2-.2-.1-.3-.4-.3-.6l.3-2.1c-.7.4-1.4.8-2.2 1.2-.2.1-.4 0-.7 0 .1-.2.2-.4.3-.5.6-.6 1.2-1.1 1.7-1.6.3-.3.5-.8.8-1.2.4-.3.6-.6.8-.8m44.1 1.4l-2.2.4c-.3.1-.7.1-1 0-.1 0-.3-.3-.3-.4 0-.1.2-.4.4-.4l4.1-.9c.5-.1.7.2.6.7-.5 1.4-.9 2.8-1.4 4.1-.2.4-.6.7-.9 1l-.3-.1c0-.3-.1-.7 0-.9.4-1.1.9-2.2 1.4-3.3-.3 0-.4-.1-.4-.2m-70.1-10.9c0 .6-.1 1-.6 1.5-1.1.9-1.8.8-2.4-.4-.6-1.3.1-2.9 1.5-3.2.8-.2 1.2.1 1.3.9.1.3.1.8.2 1.2m-1.9.6c.9-.3 1-.6.4-1.8-.7.7-.8 1.1-.4 1.8m77.6-2.9c0-1.5 1.5-2.6 2.8-2.1.8.3 1.1 1 .8 1.8-.3.8-.6 1.5-1.5 1.8-1 .3-2.1-.4-2.1-1.5m2.1-.9h-.2c-.2.3-.4.6-.4.9 0 .3-.1.7.4.8.3 0 .7-.4.7-.8-.2-.3-.4-.6-.5-.9m-73.5-10.3c-.6 1-.5 2.1-.4 3.2.1.5 0 .9-.4 1.1-1.2-.4-1.1-1.3-1-2.3-.9.3-1.3 1.4-2.6 1.1.2-.4.3-.7.5-.9l2.1-1.8c.2-.2.4-.4.5-.6.6-.6.6-.7 1.3.2m54.5 11.7c-.1 1.3-.6 2.2-1.6 2.7-.6.3-1.2-.1-1.7-.5s-.7-1.3-.4-1.7c.4-.7 1-1.3 1.8-1.7.9-.4 1.8.2 1.9 1.2m-1.5.1c-1 .2-1.3.6-1.1 1.2.1.4.4.6.9.5.5-.1.6-.7.2-1.7m19.8 6.3c-1 .4-1.8 1.1-3.2.9.3-.3.4-.6.7-.7.9-.4 1.7-.8 2.4-1.6.6-.6 1.2-.5 1.5.4l.3 1.2c.2.8.4 1.6.7 2.5-.9.5-1.4.4-1.7-.7-.3-.7-.5-1.3-.7-2m-90.9-11.8c.1-1.1.9-2 2-2.2.9-.1 1.7.5 1.7 1.4 0 1.1-.5 1.9-1.4 2.4-1.3.8-2.3 0-2.3-1.6m1.6-1.1c-.2.4-.4.8-.5 1.2 0 .1 0 .4.1.5.3.3 1 .1 1.2-.2.3-.4.3-.8-.2-1.1-.1-.1-.3-.2-.6-.4m81.2 4c.1.3.3.7.3 1-.1 1.1.1 2.2.2 3.3.1.5.3.7.9.6v.2c-.4.2-.7.4-1.1.4-.5.1-.8-.2-.8-.8-.1-.8-.2-1.6-.2-2.5-.7.7-1.1 1.7-2.1 2-.5-.8-.5-.7.1-1.3l2-2.4.5-.6c0 .1.1.1.2.1m-61 4.3c-.4.9-1.1.8-1.9 1 .1-.4.2-.6.3-.8.3-.6.7-1.1 1.1-1.6l.2-.4c.3-.3.7-.6 1-.7.6 0 .3.6.4.9l.4 2.8c.1.4.2.7.4 1.2-.1.2-.3.6-.6 1-1.1-.9-1-2.1-1.3-3.4m-20.8.3c.5 1.1.9 2.1 1.4 3.1l.5 1.1c.2.3.3.7-.1 1-.4.3-.7 0-.9-.3l-.9-2.1c-.1-.1-.2-.3-.3-.6-.5.9-.9 1.6-1.3 2.4-.2.4-.5.5-.8.4-.5-.2-.3-.6-.1-.9.6-1 1.2-2.1 1.6-3.2.1-.4.6-.6.9-.9m6.1-12c.5 1.2.5 2.2-.2 3.2-.5.6-1.4 1-1.9.7-.8-.3-1.1-1.1-1-2 .2-1.5 1.2-2.1 2.4-2 .2.1.4.1.7.1m-1.6 2.9c.4 0 .8-.3.9-.9 0-.4-.3-.9-.7-.9-.5-.1-.8.3-.9.9 0 .4.3.9.7.9m43.5 15.6c1-.4 1.8-.7 2.5-1 .4-.2.7-.4 1.1-.5.7-.2.9 0 1 .8l.4 2.5.4.9c-.1.2-.1.4-.3.5-.3.3-.7.4-.9-.1-.3-.9-.6-1.8-.9-2.6-.1-.2-.1-.4-.1-.6-.9.2-1.7.4-2.5.6-.2 0-.4-.3-.7-.5m-1.9-1.9c-1.3-.1-1.8-.8-1.7-2 .1-1.1 1.2-2 2.3-1.6.5.1.9.7 1.3 1.1l.2.4c.3.8.1 1.4-.7 1.8-.5.2-1 .2-1.4.3m1.1-.9l.2-.2-.3-1c-.1-.4-.4-.5-.7-.4-.2.1-.6.3-.6.4 0 .2.1.7.3.8.2.2.6.3 1.1.4m52.9 4.2c1 0 1.5.9 1.1 1.8-.4 1.1-1.4 1.6-2.4 1.9-.8.3-1.5-.4-1.5-1.2 0-1.3 1.4-2.6 2.8-2.5m-.1.8c-1.4.4-1.6.9-1.1 1.8 1.1-.3 1.4-.7 1.1-1.8m-74.9-20.8c-.4.6-.8 1-1.1 1.5-.2.3-.4.5-.7.3-.2-.1-.2-.6-.1-.7.2-.4.6-.8.9-1.2l.9-1.3c.2-.2.6-.4.8-.5.1.3.4.5.4.8.2.9.3 1.9.4 2.9.1.4.2.7.3 1.2-.2.1-.5.4-.8.3-.2-.1-.5-.4-.6-.7-.1-.9-.2-1.7-.4-2.6m-30 22.9c-.9.9-1.3 2.1-2.5 2.8-.3-.5-.1-.9.1-1.2.5-.8 1.1-1.5 1.6-2.2l.4-.7.6-.5c.6.7.7 1.5.8 2.3.1.8.3 1.5 1 2.1-.2.4-.5.8-.8 1.3-1.1-1.2-.7-2.7-1.2-3.9m20.5-15.9c-.5.5-.9.9-1.4 1.3-.2.1-.4.1-.7.1 0-.2-.1-.5.1-.7l1.6-1.7c.3-.3.5-.7.8-1.1.6 0 .8.4.9.9.2 1.2.5 2.3.6 3.5 0 .3-.2.6-.3 1-.5-.6-1.1-.9-1.1-1.7 0-.4-.3-.9-.5-1.6m6.3-9c.6.4.6.7.2 1.2-.6.7-1 1.6-.9 2.6v.3c-.2.5-.6.9-1 .7-.6-.2-.4-.6-.2-1.1 0-.1 0-.2.1-.5-.5.5-.9.9-1.3 1.2-.2.2-.6.3-.8.2-.3-.2-.1-.6.1-.8l1.8-1.8 1.4-1.5.6-.5m25 11.7c-.8.4-1.5.8-2.2 1.3-.3.2-.6.3-.8 0-.1-.1.1-.5.3-.7.5-.4 1.1-.7 1.6-1 .4-.2.7-.5 1-.8.6-.5.9-.4 1.1.3l.5 1.8.2.8c.2.5 0 1.1-.4 1.2-.5.1-.8 0-.9-.5-.2-.8-.3-1.5-.4-2.4m-61.1 13.3l.9 2.4c.1.4.2.8.4 1.1.2.7.1.8-.5 1.1l-.8.4c-.2-1-.4-1.9-.6-3-.6.8-1 1.7-2 2 0-.9.7-1.4 1.1-2.1.4-.6.5-1.5 1.5-1.9m45.5-6.1c-.5.3-1 .7-1.6.9-.2.1-.5 0-.8 0 .1-.2.1-.5.3-.7l2.3-1.8c.2-.1.6-.2.8-.1.3.1.3.4.2.7-.2 1-.3 1.9-.1 2.9 0 .2-.2.5-.4.6-.2.1-.4.1-.6.1-.4 0-.6-.1-.6-.5.3-.6.4-1.3.5-2.1m30.7-.9c-.5.5-.9.8-1.3 1.2-.1.1-.2.3-.3.3h-.8c.1-.2.1-.5.3-.7.7-.8 1.5-1.7 2.3-2.4.2-.2.5-.2.7-.2.1 0 .3.3.3.5l.1 2.6c0 .5.2 1 .4 1.6-.3 0-.7.2-1 0-.2-.1-.4-.6-.4-.9-.2-.7-.2-1.3-.3-2m3.9 5.1c-.2.3-.2.9-.5 1-.7.3-1.4.9-2.2.6-1-.3-1.3-1.9-.4-2.5.4-.3.9-.6 1.4-.8.9-.4 1.7.7 1.7 1.7m-1.4-.7l-.2-.1-.7 1.1c0 .1.1.4.2.5.3.2 1-.4.9-.7-.1-.3-.2-.5-.2-.8m-38.2-4.6l-2.6.5c-.1-.2-.3-.6-.2-.7.1-.2.5-.5.7-.5 1.1 0 2-.4 3-.7.2-.1.4-.1.7-.1.2.6 0 1.1-.3 1.6s-.6 1-.7 1.6c-.1.5-.3.8-.9 1-1-1.1.2-1.8.3-2.7m-16.9-10.8c-1 .4-1.8.9-2.8.5 1.3-1.1 2.8-1.7 4.3-2.2l.2.2-.5 1.5-.7 2.1v.2c-.3.3-.5.7-1 .5-.4-.2-.3-.5-.2-.9.4-.6.5-1.2.7-1.9m-16.9 10.5c-1-.8-.2-1.8-.5-2.7l-1.2.7c-.3.1-.7.4-.9 0-.3-.5.2-.8.5-.9.9-.2 1.5-.9 2.2-1.4.2-.1.5-.2.8-.3 0 1.5.1 2.8.1 4.2-.4.1-.6.2-1 .4m23.2 7.3l-1.7 3.2c-.1.1-.2.4-.3.4-.2.1-.6.2-.8.1-.1-.1-.2-.5-.1-.7.2-.6.6-1.1.9-1.6-.7.1-1.4.3-2 .4-.3-.7.1-.9.5-1.1l1.4-.3c.3-.1.6-.2.8-.4.4-.6.8-.4 1.3 0m-20.7-3.1c-1.1-.9-1-1.9-1-3-.8.7-1.5 1.3-2.2 1.9-.1 0-.2-.1-.2-.1.1-.2 0-.5.2-.7l1.2-1.5c.3-.4.6-.7 1-1.1.2-.1.4-.3.6-.3.2 0 .4.3.4.5.2 1.1.3 2.1.4 3.2 0 .4-.2.7-.4 1.1m73.4-58.7c-.9 0-1.6-.7-1.6-1.6.1-1 .6-1.5 2.1-1.5.7 0 1.3.8 1.2 1.6 0 .9-.8 1.6-1.7 1.5m0-2.3c-1.1.2-.9 1.5-.1 1.5 1.4 0 .9-1.6.1-1.5m-61.9 55.9c-1-.5-.9-1.5-1.2-2.3-.5.5-1 .9-1.5 1.3-.3.3-.8.2-1.3-.3.5-.4 1-.7 1.4-1.1l1-.9.7-.6c.5-.2.7 0 .8.5.1.8.3 1.7.5 2.5.1.5-.1.7-.4.9m61.2-68.1c0 1.1-.8 1.8-1.9 1.7-.8-.1-1.4-.8-1.4-1.8 0-.7.9-1.6 1.5-1.7.8 0 1.8.9 1.8 1.8m-1.7-.9c-.4.1-.9.2-.8.7 0 .3.3.7.5.7.3.1.8 0 .9-.2.4-.5-.2-.7-.6-1.2m-82.2 74.7c-.2.3-.3.4-.5.6l-.9.7c-.5-.3-.4-.7-.1-1.1l1.5-1.8c.2-.3.7-.3.8.1.3 1 .6 2 .8 3 0 .2-.2.4-.4.7-.2-.2-.6-.3-.7-.5-.3-.5-.4-1-.5-1.7m84.4-49c-.1 1.4-.7 1.6-1.6 1.7-.9 0-1.3-.6-1.2-1.9.1-.8.7-1.3 1.5-1.2 1.1 0 1.4.3 1.3 1.4m-1.5.9c1 0 1.1-1.5.3-1.5-1.1-.1-1.2 1.4-.3 1.5"/><path d="M60.4 29.3c1-.9 1.7-.6 2.4-.1-.6.5-1.6.4-2.4.1" fill="#fff"/><path d="M64.1 93.7c-.4-1.3-1.2-2.4-1.9-3.6-.5-.8-.8-1.1-1.3-1.8 0 0 1-1.5 1.2-1.6 0 0-.8-1-1.3-1.7-1-1.4-1.7-3.3-1.7-3.3s-1.3 1.9-2 3.2c-.6-.2-.9-.2-1.7-.2 0 0-4.3.1-7 5.2l-1.2 2.7c-.9 0-3.1-.6-3.1.2-.1 1 0 2.1.1 3.1-1.2 0-2.3.1-3.4.1-.1-.2-.6-3.5-.6-5 0-.5 0-1.1-.4-1.3-.4-.2-3.9-.1-4.1-.3-.2-.2-.2-2.6-.3-3.8-.1-1.2-.1-5.6-.2-7.1 0-.3.2-1.5-.6-1.5-.5 0-2.5-.1-2.8 0v-5.7l.1-3c0-.7.1-1.5 0-2.2 0-.2-1.5-.3-1.6-.1-.1.4.1 2.6.1 3.5-.1 1.7.1 4 .1 5.7 0 .9-.2 2.9.1 3 .2.1 2.4.1 3.6.3.1.4.2 4.8.3 6.7.1 1.5-.1 5.2.2 5.4h4.5c-.1 2.1.4 6.1.4 6.6.3.1.6.1.9.1 1 0 3.9-.1 3.9-.1s.1 3.7 0 5c0 .5.4.4.9.5.6.1 1 .1 1.3.1 0 .6 0 .6.1 1 .1 1.2.3 2.8 1.2 5.2 1.3 3.7 4.7 4.7 7 5.1 2 .3 3.7-.2 5.4-1.1 3.5-2.3 4.9-6.5 5.1-8.9-.1-3.6 0-7.2-1.3-10.4m-18.9 8c-.1-2.6.2-5.3.1-8 .3.1.9 0 1.2 0 .1 1.2-.1 2.5-.1 3.7v4.2s-.6.2-1.2.1m12.5-15.1c.2-.5.4-.9.6-1.3.2-.4.4-.7.6-1l1.3 2.7-1.5 2.2c-.5-.7-1-1.4-1.5-2.3.2-.1.4-.2.5-.3m-9.8 7.2l2.9.1v.8c-.9.1-1.9.2-2.9.3v-1.2zm-.3 2.9h3v1.2s-1.6-.1-2-.1h-1.1l.1-1.1m16.3 9.7c-.3 1.3-1.6 3.8-2.8 4.7-1.2.9-3.9 2.4-6.1 2.2-1-.1-3.4-.9-4.6-2.4-1.3-1.5-2.1-2.7-2.7-5.1-.1-.9-.1-1.8-.2-2.8 1-.1 2.2-.3 2.2-.3l.5 1.8c.2.8.5 1.7.8 2.5 1.1 4.4 5.7 3.3 6.4 3.1 1.3-.4 3-2 3.4-5.5.4-3.7-.1-6.7-1.1-9.2-.6-1.5-2-4-3.1-5s-3.4-1.2-4.5-.2c-.7.6-1.3 1.3-1.8 2.4l-1.8-.1s2.2-5.6 4.9-6.1c.9-.2 2.5-.6 3.2-.6-.4.4-.8 1-1.1 1.4.4.3 1.2 1.3 1.9 2.1.9.9 1.6 2.1 1.9 2.4l1.2-2.5s1.5 1.6 2.7 4.1c1.6 3.9 1.4 10.4.7 13.1m-12.6-7.7c1-1.4.4-2.8.4-2.8s.4-.6.3-1.7c0-1-.5-1.5-.5-1.5s.4-.8 1-1.2c1.4-.9 2.6-.6 3-.3 1.3.8 2 2 2.6 3.4 1.5 3.2 1.8 6.7 1.9 7.8.1 1.6-.4 3.1-1.1 4.6-.3.6-1.1 2.6-3 2.4-1.7-.1-3-.6-3.6-2.3-.6-1.4-1-2.9-1.5-4.3.8-.3 1-.7 1.3-2 0-1.2-.1-1.6-.8-2.1"/><path d="M58.9 90.1c-.3-.4-.6-.9-1.2-1.5-.3-.4-1-1.3-1.2-1.6.1-.1.7-.9 1.2-1.5.6-.7 1-1.6 1.1-1.7.3.5.6 1.1 1.1 1.6.3.3 1 1.4 1 1.4-.2.4-.8 1.1-1.1 1.6-.3.5-.6 1.3-.9 1.7" fill="#E8E83F"/><path d="M47.7 101.7l.1-1.8c1.3 0 2.3 0 3.3.1-.1.6-.1 1.1-.2 1.5-1.1 0-2.1.1-3.2.2m.1-6.6v-1.3l2.9.1v1.3c-.9.1-1.8-.2-2.9-.1m2.8 2.8c-.3 0-2.7-.1-3.2-.2.1-.3 0-.8.2-1.1h3" fill="#fff"/><path d="M78.4 73.3c.3.6.9 1.8 1.3 2.5l-2 3.1c-.5-1-.8-1.7-1.4-2.3.7-1.1 1.4-2.4 2.1-3.3" fill="#E8E83F"/><path d="M82.9 92.6c0 .2-.3.5-.5.5-.5.1-1-.2-.7-.8.2-.7 1.2-.4 1.2.3m.2-33.2c.1-1.8 1.1-3.1 2.2-3 1.9.1 2.6 1.8 2.4 3.1-.1.5-.4 2.8-2.1 3-.8 0-1.4 0-1.9-.7-.3-.4-.6-.7-.6-2.4m-19.7 12c-.4 0-.9 0-1.3.1 0-1.3.1-1.8.1-1.8s1-.1 1.2-.1v1.8m2.6-.7c-.2.1-1.2.4-1.2.4l-.3-1.7.9-.3s.4 1.2.6 1.6m2-1l-1.1.6-.5-1.4c.3-.2.6-.3 1-.4.2.3.4.6.6 1.2m.5-1.8s1-.3 1.2 0c.2.3-.1.7-.6 1.1-.3-.4-.6-1.1-.6-1.1m-15.8-6.6c.8-.4.9-.5 1.3-1.3.2-.4-.1-1.2-.6-1.4-.4-.2-.9-.1-1.2.4-.4.9-.7 1.4.5 2.3m4.3 64.4c0 .8-.7 1.5-1.5 1.4-.3 0-.7-.3-.8-.5-.1-.3 0-.8.2-1 .2-.3.5-.5.9-.7.8-.4 1.3-.1 1.2.8m-8.6 7.4c.3-1 1-1.4 1.9-1.2.5.1.6.4.3.8-.6.7-1.4.8-2.2.4m8.3-1.3c0 .6-.9 1.3-1.5 1.1-.3-.1-.5-.5-.6-.8-.1-.4.8-1.3 1.2-1.2.5 0 1 .5.9.9" fill="#fff"/><path d="M26.2 146.4c1.1.1 1.8.8 2.3 1.6.3.4.2 1-.2 1.3-1.1 1.1-3 1.7-4.3-.1-.6-.8-.5-1.6.3-2.1l1.9-.7m1.3 2.5c-.2-.7-.9-1.3-1.5-1.2-.3 0-.7.4-.9.7-.2.4.1.6.5.7.6.2 1.2.1 1.9-.2"/><path d="M79.3 132.9c.2.8-.1 1.7-.8 2.2-.2.1-.5.2-.6.1-.2-.1-.3-.4-.3-.6 0-.6.7-1.4 1.3-1.6.1-.1.3-.1.4-.1m-35.9-1.7c0-1.3.2-1.5 1.8-1.9.5.7.5 1.2 0 1.8-.6.5-1.1.5-1.8.1m18.7-3.6c.4 0 .9.5.9.9s-.7.9-1.2.8c-.4-.1-.9-.1-.9-.8 0-.5.5-.9 1.2-.9m37.5 6.2c.1.4.3.7.3 1 0 .4-.1.8-.3 1-.3.3-.9.4-1.2 0-.2-.4-.2-.9.2-1.2.3-.3.6-.5 1-.8m-32.2-3.4c-.2.4-.3.8-.5 1.1-.2.3-.6.6-1 .4-.3-.1-.5-.9-.3-1.2.2-.3.5-.6.7-.8.2-.1.6-.2.7-.1.2 0 .2.4.4.6m-32.6-6.8c-.1-.8 0-1.4.7-1.8.4-.2.8-.3 1.1.1.3.4.3.8-.1 1.1-.5.4-.9.9-1.7.6m49.5 9.6c.1.7 0 1.3-.5 1.8-.2.1-.5.3-.6.2-.2-.1-.4-.4-.4-.7 0-.6.6-1.1 1.5-1.3m-49.8 4c-.4-.7-.3-1.2.4-1.8.6 1.2.5 1.5-.4 1.8M114.2 133.4l.4.9c.1.4-.3.9-.7.8-.5-.1-.5-.5-.4-.8l.4-.9h.3zm-20.5 1.5c.4.9.3 1.6-.2 1.7-.4.1-.7-.1-.9-.5-.3-.6.1-.9 1.1-1.2m-69.5-6.6c.3.2.5.3.7.4.5.3.5.6.2 1.1-.3.3-1 .5-1.2.2-.1-.1-.2-.3-.1-.5 0-.4.2-.8.4-1.2m3.9-.5c-.4 0-.7-.5-.7-1 0-.6.4-.9.9-.9.4 0 .7.5.7.9-.1.7-.4 1.1-.9 1m61.5-57.4c.8 0 1 .6.6 1.3-.1.2-.6.3-.9.2-.2-.1-.5-.5-.5-.7 0-.5.1-.8.8-.8" fill="#fff"/><path d="M86 59.9c0 .5-.2 1-.7 1.1-.3.1-.7-.1-1-.2-.3-.2-.4-.8-.3-1.2.2-1 .7-1.1 1.2-1 .7-.1.8.8.8 1.3m-33 2.6c-1.1-.1-.9-1.4-.4-2.3.3-.5.7-.6 1.2-.4.4.2.7.6.6 1.4-.3 1-.7 1.3-1.4 1.3"/><path d="M71.9 50c0 1-.8 1.7-1.8 1.7s-1.7-.8-1.7-1.8.8-1.7 1.8-1.7 1.7.8 1.7 1.8" fill="#5AB1BC"/><path d="M59.4 25.9s.1-.7 1.4-.7c1.7 0 1.5.7 1.3.9-.2.2-.7.3-1.4.3-1 0-1.3-.5-1.3-.5" fill="#fff"/><path d="M61.9 38.3c0 .6-.5 1.1-1.2 1.1-.6 0-1.1-.5-1.1-1.1 0-.6.5-1.1 1.1-1.1.7 0 1.2.5 1.2 1.1m-12 1.8c0 .6-.5 1.1-1.1 1.1-.6 0-1.1-.5-1.1-1.1 0-.6.5-1.1 1.1-1.1.7-.1 1.1.4 1.1 1.1m15.4-2.6c0 .6-.5 1.1-1.1 1.1-.6 0-1.1-.5-1.1-1.1 0-.6.5-1.1 1.1-1.1.7 0 1.1.5 1.1 1.1m-3.9 45.8l-.1-1c-.2-1.3-.2-1.4-.7-2.2-.4-.6-1.1-1-1.1-1v-.4c1.8-1.5 2.3-4.6 2.3-4.7h.5c.1 3.5 1.2 4 1.8 4.5l-.1.4c-1.8.3-2.2 4.4-2.2 4.4h-.4zm-1.2-4.5c.2.1.5.6.8 1.1.4.8.4.5.6 1.5.1-.4.1-.8.3-1.3.2-.5.3-.7 1.1-1.3-.7-.5-.9-1.2-1.2-3.1-.1.9-.3 1.9-1.6 3.1m-4.7 4.3l-.1-1.1c-.3-1.4-.4-1.5-1.1-2.4-.4-.7-1.4-1.4-1.4-1.4s1.2-.9 1.9-2.1c.7-1.1 1-2.7 1-2.7h.8c.3 2.9 1.5 4.1 2.2 4.9 0 0-1 .8-1.7 2.1-.7 1.2-1.1 2.8-1.1 2.8l-.5-.1zm-1.2-4.9c.2.1.6.6.9 1.2.5.8.5.8.7 1.6.1-.4.9-2.2 1.8-2.9-.7-.5-1.3-1.5-1.6-3.6-.2 1.1-.4 2.5-1.8 3.7m29.2-1.7s-.6-2.2-1.2-3.2c-.5-.7-1.8-2.1-1.8-2.1s1.2-1 2-2.3c.7-1.2 1-2.9 1-2.9h.8c.3 3.1 1.6 4.3 2.4 5.2 0 0-.7.9-1.6 2.3-.9 1.5-1.6 3-1.6 3m-1.6-5.2c.2.1.6.6.9 1.2.5.9.5.9.8 1.7.1-.4.9-2.4 1.9-3-.8-.6-1.4-1.6-1.7-3.8-.3 1.1-.5 2.5-1.9 3.9"/><path fill="#fff" d="M45.3 93.7l1.2.1.2 8.2h-1.5z"/><path d="M76.7 148.3c1.1.1 1.8.8 2.3 1.6.3.4.2 1-.2 1.3-1.1 1.1-3 1.7-4.3-.1-.6-.8-.5-1.6.3-2.1.7-.3 1.3-.5 1.9-.7m1.3 2.4c-.2-.7-.9-1.3-1.5-1.2-.3 0-.7.4-.9.7-.2.4.1.6.5.7.7.2 1.2.1 1.9-.2m3.8-1.1c.4-1.1 1.1-1.6 2-1.9.5-.2 1 0 1.3.5.8 1.3 1 3.3-1 4.2-.9.4-1.7.2-2-.8-.2-.7-.2-1.4-.3-2m2.7-.7c-.7 0-1.5.6-1.5 1.2 0 .3.2.8.5 1 .3.3.6 0 .8-.3.3-.6.3-1.2.2-1.9m-32.5-14.2c.4 1.1.8 2.3 1.1 3.4.1.2.1.4.1.5-.1.2-.3.6-.5.6s-.5-.2-.6-.4c-.2-.6-.4-1.2-.6-1.7-.4.6-.7 1.2-1.1 1.7-.7-.3-.6-.7-.4-1.1.2-.4.5-.8.7-1.3.1-.2.3-.5.2-.8.1-.7.5-.8 1.1-.9m24.3 2.3l-1.3 3.3c-.1.2-.1.4-.2.4-.2.1-.6.2-.8.2-.2-.1-.3-.5-.2-.7l.7-1.7c-.7.2-1.3.4-1.9.6-.3-.6-.1-.9.4-1.1.4-.2.9-.3 1.4-.5.3-.1.5-.2.7-.5.3-.5.7-.4 1.2 0m18.3 12.5l1.5 3.3c.1.2.2.3.1.5s-.2.6-.4.6-.5-.2-.6-.4c-.3-.5-.5-1.1-.7-1.7l-.9 1.8c-.7-.2-.7-.6-.5-1.1l.6-1.3c.1-.3.2-.6.2-.8-.3-.6.1-.8.7-.9m9.3.5l-2.5 2.6c-.1.1-.3.3-.4.3-.3 0-.6 0-.7-.2-.1-.1 0-.6.1-.7.4-.5.9-.9 1.3-1.3-.7-.1-1.4-.1-2-.2-.1-.7.3-.9.8-.9s1 .1 1.4.1c.3 0 .6 0 .8-.1.6-.4.9-.1 1.2.4m-67.5-11.2l1.1 3.4c0 .2.1.4.1.5-.1.2-.3.6-.5.6s-.5-.2-.6-.4c-.2-.6-.4-1.2-.5-1.7-.4.6-.8 1.1-1.1 1.7-.7-.3-.6-.7-.4-1.1l.7-1.2c.1-.2.3-.5.3-.8 0-.8.3-.9.9-1m-12.2 5.4l-1.8 3.1-.3.4c-.2.1-.6.2-.8 0-.1-.1-.2-.5-.1-.7l.9-1.5c-.7.1-1.4.2-2 .3-.2-.7.1-.9.6-1 .5-.1 1-.2 1.4-.3.3-.1.6-.2.8-.3.5-.6.9-.4 1.3 0"/></svg>