<svg xmlns="http://www.w3.org/2000/svg" width="144" height="46" viewBox="0 0 144 46"><title>Group 22</title><g><path d="M38 45.2s.1.8-.6.8h-31.4c-1 0-.8-.7-.8-.7s2.4-28.6 2.4-29.1c0-.9.9-.9.9-.9l24.4-.7s1 0 1 .8c0 .2 4.1 29.8 4.1 29.8" fill="#111"/><g transform="translate(1) translate(16.331)"><defs><filter id="a" filterUnits="userSpaceOnUse" x="-.4" y="1.2" width="7.3" height="14.3"><feColorMatrix values="1 0 0 0 0 0 1 0 0 0 0 0 1 0 0 0 0 0 1 0"/></filter></defs><mask maskUnits="userSpaceOnUse" x="-.4" y="1.2" width="7.3" height="14.3" id="b"><path fill="#fff" d="M-.4 1.2h7.4v14.3h-7.4z" filter="url(#a)"/></mask><path d="M-.2 15.5l-.1-1.8c0-.3.3-.4.3-.4.5-.2 2.4-.4 2.4-.4s-.5-1.2-.6-1.5c-1.2-3.1 0-3.8 0-3.8-.2-.2-.4-1-.4-1.2 0-.4-.1-.8 0-1.2 0-.1.1-.9.1-1.1.2-1 .5-1.3.8-1.9.3-.6.6-.9.8-1 .2-.1.4 0 .5.2 0 0 0 .7-.5 1.4-.3.2-.9 1.1-1 2.5 0 .9.4 1.6.4 1.6.9-.8 1.6-.9 1.7-.9 2.3-.3 2.7 1.2 2.8 1.4.1 1.4-.9 1.9-1.9 2 0 0-1.4.4-2.8-.7-.1 0-.1-.2-.2-.1s-.2 1.2 0 1.5c.5 1.2 1.4 2.5 1.6 2.5 0 0 2.1.1 2.6.2.2 0 .3.2.3.4.1.7.3 2.4.4 2.4.2-.1-7.4-.1-7.2-.1zm3.2-7.6c.5 1.3 3.3.9 3-.3-.4-1.5-3.3-.5-3 .3z" mask="url(#b)" fill="#111"/></g><path d="M30.8 38c0-.2.1-.3.3-.3.9-.2 1.3.1 1.4.5 0 .1.3.7 0 1.1-.1.1-.4.6-.4.7l-.4.6c-.1.1-.2.1-.3 0-.1-.2-.2-.4-.2-.7-.1-.2-.1-.3-.1-.5-.2-.4-.3-1.1-.3-1.4" fill="#FFFFFE"/><path d="M26.7 38.4h1.5c.1 0 .1.2.1.3 0 .5.1 1 .1 1.6 0 .4 0 .7.1 1.1 0 .2-.1.2-.2.2h-1.2c-.2 0-.4 0-.5-.2-.1-.1-.1-.2-.1-.4v-.8c-.1-.5-.3-1.8.2-1.8" fill="#FFFFFE"/><path d="M29 39.9c0-.2-.2-1.3-.1-1.6 0-.2 0-.2.6-.4.3-.1.4-.1.5.1.1.5.2 1.2.3 1.4.2.7.4 1.5.4 1.6 0 .2 0 .3-.2.3l-1 .1c-.3 0-.4 0-.4-.3-.1-.3-.1-1.2-.1-1.2" fill="#FFFFFE"/><path d="M25.5 39.5v1.4c0 .1 0 .3-.1.4-.3 0-1-.3-1.1-.3-.2 0-.2-.1-.2-.3 0-.2.4-1.9.5-2.2 0-.3.1-.3.4-.4h.3c.2 0 .3.1.2.4.1.3 0 .8 0 1" fill="#FFFFFE"/><path d="M24.1 37.9c-.1.4-.7 2.3-.7 2.4-.1-.1-1.2-.5-1-1.4.1-1.1.7-1 1.1-1.1.1 0 .3.1.6.1" fill="#FFFFFE"/><path d="M38 29.8c0 3.2-2.6 5.9-5.9 5.9-3.2 0-5.9-2.6-5.9-5.9s2.6-5.9 5.9-5.9c3.3 0 5.9 2.6 5.9 5.9" fill="#111"/><path d="M25.6 29.9c0 2.6-2.1 4.7-4.7 4.7s-4.7-2.1-4.7-4.7 2.1-4.7 4.7-4.7 4.7 2.1 4.7 4.7" fill="#FFFFFE"/><path d="M24.3 31.5c-.6.6-1.6.6-2.3 0-.6-.6-.6-1.7 0-2.3.6-.6 1.6-.6 2.3 0 .7.6.7 1.7 0 2.3" fill="#111"/><path d="M37.2 29.9c0 2.5-2 4.5-4.5 4.5s-4.5-2-4.5-4.5 2-4.5 4.5-4.5 4.5 2 4.5 4.5" fill="#FFFFFE"/><path d="M35.9 31.4c-.6.6-1.6.6-2.2 0-.6-.6-.6-1.6 0-2.2.6-.6 1.6-.6 2.2 0 .6.7.6 1.6 0 2.2" fill="#111"/><path d="M7.6 20.1s-2.7-.4-3.6-1.4c-.9-1-.8-2.1.1-2.3.9-.2 1.6 1.4.9 2.5-.7 1.1-2.1.9-3 .7-1.3-.2-2-1.9-2-1.9m33.2-.3s3.5-1.3 4.8-.9c1.3.4 1.8 1.4 1.1 2-.7.6-2.4-.4-2-1.7.6-1.8.7-2 1.5-2.3 1.2-.5 2.4.3 2.4.3" stroke="#111" stroke-linecap="round" fill="none"/><path d="M57.4 38.4c0 .3-.1.6-.3.9-.2.3-.5.4-.8.4s-.6-.1-.9-.4l-5-4.5v3.6c0 .4-.1.7-.4.9-.3.2-.6.3-1 .3s-.7-.1-.9-.3c-.2-.2-.4-.5-.4-.9v-12.7c0-.4.1-.7.4-.9.2-.2.6-.3.9-.3s.7.1 1 .3c.3.2.4.5.4.9v8l4.5-4.4c.3-.3.5-.4.9-.4.3 0 .6.1.8.4.2.2.4.5.4.8 0 .3-.1.6-.4.9l-3.3 3.1 3.7 3.3c.3.3.4.6.4 1" fill="#111"/><path d="M67.8 30c.6.7.9 1.8.9 3.2v5.2c0 .4-.1.7-.3.9-.2.2-.6.3-1 .3s-.7-.1-1-.3c-.2-.2-.4-.5-.4-.9v-5.1c0-.8-.2-1.4-.5-1.8-.3-.4-.8-.6-1.4-.6-.8 0-1.4.2-1.8.7-.5.5-.7 1.1-.7 1.9v4.7c0 .4-.1.7-.4.9-.2.2-.6.3-1 .3s-.7-.1-1-.3c-.2-.2-.3-.5-.3-.9v-8.2c0-.4.1-.7.4-.9.2-.2.6-.3 1-.3s.7.1.9.3.3.5.3.9v.6c.4-.6.8-1 1.4-1.3s1.3-.5 2-.5c1.4.1 2.3.4 2.9 1.2" fill="#111"/><path d="M77.9 36.8c.5-.6.7-1.4.7-2.5s-.2-1.9-.7-2.5c-.5-.6-1.1-.9-1.9-.9s-1.5.3-2 .9c-.5.6-.7 1.4-.7 2.5s.2 1.9.7 2.5c.5.6 1.1.8 1.9.8.9 0 1.6-.2 2-.8m-4.7 2.2c-.8-.4-1.4-1.1-1.9-1.9-.4-.8-.7-1.8-.7-2.9s.2-2 .7-2.9c.4-.8 1.1-1.4 1.9-1.9.8-.4 1.7-.7 2.8-.7 1.1 0 2 .2 2.8.7.8.4 1.4 1.1 1.8 1.9.4.8.6 1.8.6 2.9s-.2 2-.6 2.9c-.4.8-1 1.5-1.8 1.9-.8.5-1.8.7-2.8.7-1.1 0-2-.2-2.8-.7" fill="#111"/><path d="M97.5 29.1c.2-.1.4-.2.6-.2.3 0 .6.1.9.3.3.2.4.5.4.8 0 .2 0 .3-.1.5l-3.5 8.2c-.1.3-.3.5-.5.6-.2.1-.5.2-.8.2-.3 0-.5-.1-.8-.2-.2-.1-.4-.3-.5-.6l-2.5-6.1-2.4 6.1c-.1.3-.3.5-.5.6-.2.1-.5.2-.8.2-.3 0-.5-.1-.8-.2s-.4-.3-.5-.6l-3.5-8.2c-.1-.2-.1-.3-.1-.5 0-.3.1-.6.4-.8.3-.2.6-.3.9-.3.2 0 .5.1.7.2s.3.3.4.6l2.5 6.5 2.6-6.4c.1-.3.3-.5.5-.6.2-.1.4-.2.7-.2s.5.1.7.2c.2.1.4.3.5.6l2.6 6.4 2.5-6.5.4-.6" fill="#111"/><path d="M101.4 39.3c-.2-.2-.4-.5-.4-.9v-8.2c0-.4.1-.7.4-.9s.6-.3.9-.3c.4 0 .7.1 1 .3s.4.5.4.9v8.2c0 .4-.1.7-.4.9s-.6.3-1 .3c-.3.1-.6-.1-.9-.3m-.2-12.6c-.3-.3-.4-.6-.4-1s.1-.8.4-1c.3-.3.7-.4 1.1-.4.5 0 .8.1 1.1.4.3.3.4.6.4 1s-.1.8-.4 1-.7.4-1.1.4c-.4-.1-.8-.2-1.1-.4" fill="#111"/><path d="M115.1 30c.6.7.9 1.8.9 3.2v5.2c0 .4-.1.7-.3.9-.2.2-.6.3-1 .3s-.7-.1-1-.3c-.2-.2-.4-.5-.4-.9v-5.1c0-.8-.2-1.4-.5-1.8-.3-.4-.8-.6-1.4-.6-.8 0-1.4.2-1.8.7-.5.5-.7 1.1-.7 1.9v4.7c0 .4-.1.7-.4.9-.2.2-.6.3-1 .3s-.7-.1-1-.3-.3-.5-.3-.9v-8.2c0-.4.1-.7.4-.9.2-.2.6-.3 1-.3s.7.1.9.3c.2.2.3.5.3.9v.6c.4-.6.8-1 1.4-1.3.6-.3 1.3-.5 2-.5 1.4.1 2.3.4 2.9 1.2" fill="#111"/><path d="M125.3 36.3c.5-.6.7-1.3.7-2.3 0-1-.2-1.7-.7-2.3s-1.1-.8-2-.8c-.8 0-1.5.3-2 .8s-.7 1.3-.7 2.3c0 1 .2 1.7.7 2.3.5.6 1.1.8 2 .8.8.1 1.5-.2 2-.8m3-7c.2.2.4.5.4.9v8.4c0 1.6-.5 2.9-1.4 3.7-.9.8-2.2 1.3-4 1.3-1.5 0-2.8-.3-3.9-.9-.5-.3-.8-.7-.8-1.1 0-.3.1-.6.2-.7s.3-.3.6-.3c.1 0 .3 0 .5.1l.6.2c.5.2 1 .4 1.4.5s.9.2 1.4.2c1.9 0 2.8-.9 2.8-2.7v-1.4c-.3.6-.8 1-1.4 1.3-.6.3-1.3.5-2 .5-.9 0-1.7-.2-2.4-.6s-1.2-1-1.6-1.8c-.4-.8-.6-1.7-.6-2.7s.2-1.9.6-2.7c.4-.8.9-1.4 1.6-1.8.7-.4 1.5-.6 2.4-.6.8 0 1.4.2 2 .5.6.3 1 .8 1.4 1.3v-.6c0-.4.1-.7.4-.9.2-.2.6-.3 1-.3.2-.2.5-.1.8.2" fill="#111"/><path d="M134.7 33.9c.2-.4.3-1.1.3-2.1s-.1-1.7-.3-2.1-.6-.7-1-.7-.8.2-1 .7c-.2.4-.3 1.1-.3 2.1s.1 1.7.3 2.1c.2.4.6.7 1 .7s.8-.2 1-.7m-3.1.8c-.5-.7-.7-1.6-.7-2.9 0-1.2.2-2.2.7-2.8.5-.7 1.1-1 2-1s1.6.3 2 1c.5.7.7 1.6.7 2.8 0 1.2-.2 2.2-.7 2.9-.5.7-1.1 1-2 1s-1.5-.4-2-1" fill="#111"/><path d="M142.5 35c0 .4-.2.6-.6.6h-3.6c-.4 0-.6-.2-.6-.6 0-.4.2-.5.6-.5h1.1v-4.8l-1 .6c-.1.1-.2.1-.3.1-.1 0-.3-.1-.4-.2-.1-.1-.2-.3-.2-.4 0-.2.1-.4.3-.5l1.6-1c.2-.1.4-.2.6-.2.2 0 .4.1.5.2.1.1.2.3.2.5v5.8h1.1c.5-.2.7 0 .7.4" fill="#111"/></g></svg>