<svg xmlns="http://www.w3.org/2000/svg" width="187" height="50" viewBox="1 0.5 187 50" enable-background="new 1 0.5 187 50"><style type="text/css"><![CDATA[
	.st0{fill:#E20000;}
]]></style><path d="M149.2 37.7h8.2v2.6h-11v-18.8h2.8v16.2zm11-.5v-9.5h2.8v9.4c0 .7.2 1 1.1 1v2.2h-.6c-2.3.2-3.3-.9-3.3-3.1zm15.3-13.3c-.6-.2-1.2-.3-1.9-.2-1.3 0-2.3.5-2.3 1.9v2.2h3.5v2.4h-3.5v10.2h-2.8v-10.2h-2.3v-1.7l2.3-.7v-2.5c0-2.7 1.5-4.1 4.9-4.1.7 0 1.4.1 2.1.3v2.4zm6.6 3.6c4.4 0 5.1 2.9 5.1 6.4v1.2h-7.8c0 1.9.7 3.1 3.3 3.1 1.4 0 2.7-.2 3.9-.8v2.4c-1.4.5-2.9.8-4.4.8-4.2 0-5.7-2.5-5.7-6.6s1.6-6.5 5.6-6.5zm-2.7 5.6h5c0-1.7-.1-3.2-2.3-3.2-2.2 0-2.6 1.3-2.7 3.2zm-17.9-7.9c-.7 0-1.4-.4-1.7-1.1-.3-.7-.1-1.5.4-2s1.3-.7 2-.4c.7.3 1.1 1 1.1 1.7.1 1-.8 1.8-1.8 1.8zm-147.8 9.4c0 3.6-2.1 6-7.1 6-1.9 0-3.8-.3-5.6-1.1v-2.8c1.7.8 3.5 1.2 5.4 1.2 3.4 0 4.4-1.4 4.4-3.2 0-2.1-.9-2.6-3.4-2.9-4.6-.5-6.4-1.7-6.4-5.2 0-2.8 1.6-5.4 6.7-5.4 1.7-.1 3.5.2 5.1.9v2.8c-1.6-.7-3.2-1-4.9-1-3 0-3.9 1.2-3.9 2.8 0 2 1.2 2.4 3.6 2.7 3.8.5 6.1 1.4 6.1 5.2zm8.6 3.5c1.1 0 2.2-.2 3.3-.6v2.5c-1.1.4-2.3.7-3.5.6-4.4 0-5.8-2.7-5.8-6.6 0-3.9 1.4-6.6 5.8-6.6 1.2 0 2.4.2 3.5.6v2.4c-1.1-.4-2.2-.6-3.3-.6-2.4 0-3.1 1.7-3.1 4.1-.1 2.6.6 4.2 3.1 4.2zm6.4-.9v-9.5h2.8v9.4c0 .7.2 1 1.1 1v2.2h-.6c-2.3.2-3.3-.9-3.3-3.1zm11.9-9.7c4.4 0 5.1 2.9 5.1 6.4v1.2h-7.8c0 1.9.7 3.1 3.3 3.1 1.4 0 2.7-.2 3.9-.8v2.4c-1.4.5-2.9.8-4.4.8-4.2 0-5.7-2.5-5.7-6.6s1.5-6.5 5.6-6.5zm-2.7 5.6h5c0-1.7-.1-3.2-2.3-3.2-2.2 0-2.7 1.3-2.7 3.2zm18.4 7.2v-8.6c0-1.3-.7-1.9-2-1.9-1 0-2 .2-2.9.7v9.7h-2.9v-12.4h1.7l.5 1c1.2-.8 2.6-1.3 4.1-1.3 3.2 0 4.3 1.6 4.3 3.9v8.9h-2.8zm11.6-2.2c1.1 0 2.2-.2 3.3-.6v2.5c-1.1.4-2.3.7-3.5.6-4.4 0-5.8-2.7-5.8-6.6s1.4-6.6 5.8-6.6c1.2 0 2.4.2 3.5.6v2.4c-1.1-.4-2.2-.6-3.3-.6-2.4 0-3.1 1.7-3.1 4.1 0 2.6.7 4.2 3.1 4.2zm11.4-10.6c4.4 0 5.1 2.9 5.1 6.4v1.2h-7.8c0 1.9.7 3.1 3.3 3.1 1.4 0 2.7-.2 3.9-.8v2.4c-1.4.5-2.9.8-4.4.8-4.2 0-5.7-2.5-5.7-6.6s1.5-6.5 5.6-6.5zm-2.7 5.6h5c0-1.7-.1-3.2-2.3-3.2s-2.7 1.3-2.7 3.2zm-46.5-7.9c-.7 0-1.4-.4-1.7-1.1s-.1-1.5.4-2 1.3-.7 2-.4c.7.3 1.1 1 1.1 1.7 0 1-.8 1.8-1.8 1.8z"/><path class="st0" d="M122.1 33.1v-31.7l-22 31.7zM122.1 40.3h-26.9c6.1 8.4 16.8 12.1 26.8 9.3v-9.3zm-8.1-39.8c-7.7.4-14.8 4.4-19.2 10.8-4.4 6.4-5.6 14.4-3.2 21.8l22.4-32.6zm15.8 39.8v5.6c2.2-1.6 4.1-3.5 5.8-5.6h-5.8zM130.7 33.2h9.5c3.4-10.6-.5-22.1-9.5-28.5v28.5z"/></svg>