<svg xmlns="http://www.w3.org/2000/svg" width="228.2" height="50" viewBox="0 -1.5 228.2 50" enable-background="new 0 -1.5 228.2 50"><style type="text/css"><![CDATA[
	.st0{fill:#4B4B4D;}
	.st1{fill:#0071B9;}
]]></style><path class="st0" d="M5.3 39.6c-.1-.2-.3-.4-.5-.6-.2-.1-.4-.3-.7-.3-.2-.1-.5-.1-.8-.1-.5 0-.9.1-1.2.3-.3.2-.6.4-.8.7-.2.3-.4.6-.5 1-.1.4-.2.8-.2 1.2 0 .4.1.8.2 1.2.1.4.3.7.5 1 .2.3.5.5.8.7.3.2.8.3 1.2.3.3 0 .6-.1.9-.2.4-.2.6-.3.8-.6.2-.2.4-.5.5-.7.1-.3.2-.6.2-.9h.7c0 .4-.2.8-.3 1.2-.2.4-.4.7-.6.9l-.9.6c-.4.1-.8.2-1.2.2-.6 0-1.1-.1-1.5-.3s-.8-.5-1.1-.8c-.3-.3-.5-.7-.6-1.2-.1-.5-.2-.9-.2-1.5 0-.5.1-1 .2-1.4.1-.5.4-.8.6-1.2.3-.3.6-.6 1.1-.8.4-.2.9-.3 1.5-.3.3 0 .7.1 1 .2l.9.4c.3.2.5.4.7.7s.3.6.3 1h-.7c0-.3-.1-.5-.3-.7m5.7 2.1l-.3-.6c-.1-.2-.3-.3-.5-.4-.2-.1-.5-.2-.7-.2-.3 0-.5.1-.7.2-.2.1-.4.2-.5.4-.2.2-.3.4-.4.6l-.2.7h3.4c0-.3 0-.5-.1-.7m-3.2 1.9l.3.7c.1.2.3.4.5.5.2.1.5.2.8.2.5 0 .8-.1 1.1-.4.3-.2.4-.6.5-1h.6c-.1.6-.4 1.1-.7 1.4-.4.3-.9.5-1.5.5-.4 0-.8-.1-1.1-.2-.3-.1-.5-.3-.7-.6-.2-.3-.3-.5-.4-.9-.1-.3-.1-.7-.1-1.1 0-.3 0-.7.1-1 .1-.3.2-.6.4-.9.2-.3.4-.5.7-.6.3-.2.7-.2 1.1-.2s.8.1 1.1.3.5.4.7.7c.2.3.3.6.4.9.1.4.1.7.1 1.1h-4c.1.2.1.4.1.6M13.3 40.1v.9c.1-.3.3-.6.6-.8.3-.2.6-.3 1-.3s.7 0 .9.1c.2.1.4.2.6.4.1.2.3.4.3.6.1.2.1.5.1.8v3.4h-.6v-3.3c0-.2 0-.4-.1-.6 0-.2-.1-.4-.2-.5-.1-.1-.2-.3-.4-.3-.2-.1-.4-.1-.6-.1-.3 0-.5 0-.7.1-.2.1-.4.2-.5.4-.1.2-.2.3-.3.6-.1.2-.1.5-.1.7v3h-.6v-5.2l.6.1zm6.9 0v.5h-1.1v3.5c0 .2 0 .4.1.5.1.1.2.2.4.2h.5v.5h-.6c-.4 0-.7-.1-.9-.2-.2-.2-.2-.5-.2-.9v-3.6h-.9v-.5h.9v-1.6h.6v1.6h1.2zm4.6 1.6l-.3-.6c-.1-.2-.3-.3-.5-.4-.2-.1-.4-.2-.7-.2-.3 0-.5.1-.7.2-.2.1-.4.2-.5.4-.1.2-.3.4-.3.6l-.2.7h3.4c-.1-.3-.1-.5-.2-.7m-3.2 1.9l.3.7c.1.2.3.4.5.5.2.1.5.2.8.2.5 0 .8-.1 1.1-.4.3-.2.4-.6.5-1h.6c-.1.6-.4 1.1-.7 1.4-.4.3-.9.5-1.5.5-.4 0-.8-.1-1.1-.2-.3-.1-.5-.3-.7-.6-.2-.3-.3-.5-.4-.9-.1-.3-.1-.7-.1-1.1 0-.3 0-.7.1-1s.2-.6.4-.9c.2-.3.4-.5.7-.6.3-.2.7-.2 1.1-.2.4 0 .8.1 1.1.3.3.2.5.4.7.7s.3.6.4.9c.1.4.1.7.1 1.1h-4c.1.2.1.4.1.6M27.1 40.1v1.2c.2-.4.4-.8.8-1 .3-.2.7-.3 1.2-.3v.6c-.3 0-.6 0-.8.1-.2.1-.4.2-.6.4-.2.2-.3.4-.4.6-.1.2-.1.5-.1.8v2.8h-.6v-5.2h.5zm6.4.6v4.7h-.6v-4.7h-.9v-.5h.9v-.5c0-.2 0-.4.1-.6 0-.2.1-.3.2-.5.1-.1.2-.2.4-.3.2-.1.4-.1.6-.1h.6v.5h-.4c-.2 0-.3 0-.4.1-.1.1-.2.1-.2.2l-.1.3v.9h1v.5h-1.2zm3.1 0c-.2.1-.4.3-.6.5s-.3.4-.3.7c-.1.3-.1.5-.1.8s0 .5.1.8c.1.3.2.5.3.7.2.2.3.4.6.5.2.1.5.2.8.2.3 0 .6-.1.8-.2.2-.1.4-.3.6-.5.2-.2.3-.4.3-.7.1-.3.1-.5.1-.8s0-.5-.1-.8c-.1-.3-.2-.5-.3-.7-.2-.2-.3-.4-.6-.5-.2-.1-.5-.2-.8-.2-.3 0-.5.1-.8.2m1.9-.5c.3.1.6.3.8.6.2.3.4.5.5.9.1.3.2.7.2 1.1 0 .4-.1.7-.2 1.1-.1.3-.3.6-.5.9-.2.2-.5.4-.8.6-.3.1-.7.2-1.1.2s-.8-.1-1.1-.2c-.3-.1-.6-.3-.8-.6s-.4-.5-.5-.9v-1.2c0-.4.1-.7.2-1.1.1-.3.3-.6.5-.9.2-.2.5-.4.8-.6.3-.1.7-.2 1.1-.2.2.1.6.2.9.3M41.5 40.1v1.2c.2-.4.4-.8.8-1 .3-.2.7-.3 1.2-.3v.6c-.3 0-.6 0-.8.1-.2.1-.4.2-.6.4-.2.2-.3.4-.4.6-.1.2-.1.5-.1.8v2.8h-.6v-5.2h.5zm5.6-2h.7v7.2h-.7v-7.2zm2.8 2v.9c.1-.3.3-.6.6-.8s.7-.3 1-.3c.4 0 .7 0 .9.1.2.1.4.2.6.4.1.2.3.4.3.6.1.2.1.5.1.8v3.4h-.6v-3.3c0-.2 0-.4-.1-.6 0-.2-.1-.4-.2-.5-.1-.1-.2-.3-.4-.3-.1.1-.3 0-.6 0s-.5 0-.7.1c-.2.1-.4.2-.5.4-.1.2-.2.3-.3.6-.1.2-.1.5-.1.7v3h-.6v-5.2h.6zm5.5 0v.9c.1-.3.3-.6.6-.8s.6-.3 1-.3.7 0 .9.1c.2.1.4.2.6.4.1.2.3.4.3.6.1.2.1.5.1.8v3.4h-.6v-3.3c0-.2 0-.4-.1-.6 0-.2-.1-.4-.2-.5-.1-.1-.2-.3-.4-.3-.1.1-.3 0-.6 0s-.5 0-.7.1c-.2.1-.4.2-.5.4-.1.2-.2.3-.3.6-.1.2-.1.5-.1.7v3h-.6v-5.2h.6zm6.2.6c-.2.1-.4.3-.6.5s-.3.4-.3.7c-.1.3-.1.5-.1.8s0 .5.1.8c.1.3.2.5.3.7.2.2.3.4.6.5.2.1.5.2.8.2.3 0 .6-.1.8-.2.2-.1.4-.3.6-.5.2-.2.3-.4.3-.7.1-.3.1-.5.1-.8s0-.5-.1-.8c-.1-.3-.2-.5-.3-.7-.2-.2-.3-.4-.6-.5-.2-.1-.5-.2-.8-.2-.3 0-.5.1-.8.2m1.9-.5c.3.1.6.3.8.6.2.3.4.5.5.9.1.3.2.7.2 1.1 0 .4-.1.7-.2 1.1-.1.3-.3.6-.5.9-.2.2-.5.4-.8.6-.3.1-.7.2-1.1.2s-.7-.1-1.1-.2c-.3-.1-.6-.3-.8-.6s-.4-.5-.5-.9v-1.2c0-.4.1-.7.2-1.1.1-.3.3-.6.5-.9.2-.2.5-.4.8-.6.3-.1.7-.2 1.1-.2.2.1.6.2.9.3M66 40.1l1.6 4.6h.1l1.6-4.6h.6l-1.9 5.3h-.7l-2-5.3h.7zm7.9 2.4c0 .1-.1.1-.2.2l-.3.1-.8.1c-.3 0-.5.1-.8.2l-.6.3c-.2.1-.2.3-.2.6 0 .2 0 .3.1.4l.3.3c.1.1.2.2.4.2l.4.1c.2 0 .5 0 .7-.1l.6-.3c.2-.1.3-.3.4-.5.1-.2.1-.4.1-.7l-.1-.9zm-3.2-1.5c.1-.2.3-.4.4-.5.2-.1.4-.2.7-.3.2-.1.5-.1.8-.1.2 0 .5 0 .7.1.2 0 .4.1.6.2.2.1.3.3.4.5.1.2.2.5.2.9v2.8c0 .3.1.4.4.4h.2v.5h-.4c-.2 0-.3 0-.4-.1-.1 0-.2-.1-.2-.2-.1-.1-.1-.2-.1-.3v-.4c-.1.2-.2.3-.3.4-.1.1-.2.2-.4.3-.1.1-.3.2-.5.2s-.4.1-.7.1c-.2 0-.5 0-.7-.1-.2-.1-.4-.1-.6-.3-.2-.1-.3-.3-.4-.5-.1-.2-.1-.4-.1-.7 0-.4.1-.6.2-.9.2-.2.4-.4.6-.5.3-.1.6-.2.9-.2l1-.1c.1 0 .3 0 .4-.1l.3-.1c.1 0 .1-.1.2-.2l.1-.3c0-.2 0-.4-.1-.5l-.3-.3s-.3-.1-.4-.2h-.5c-.4 0-.7.1-1 .3-.3.2-.4.5-.4.9h-.6c-.1-.3-.1-.5 0-.7M78 40.1v.5h-1.1v3.5c0 .2 0 .4.1.5.1.1.2.2.4.2h.5v.5h-.6c-.4 0-.7-.1-.9-.2-.2-.2-.2-.5-.2-.9v-3.6h-.9v-.5h.9v-1.6h.6v1.6h1.2zm.9 5.3h.6v-5.2h-.6v5.2zm0-6.2h.6v-1h-.6v1zm3.3 1.5c-.2.1-.4.3-.6.5-.2.2-.3.4-.3.7-.1.3-.1.5-.1.8s0 .5.1.8c.1.3.2.5.3.7.2.2.3.4.6.5.2.1.5.2.8.2s.6-.1.8-.2c.2-.1.4-.3.6-.5.2-.2.3-.4.3-.7.1-.3.1-.5.1-.8s0-.5-.1-.8c-.1-.3-.2-.5-.3-.7-.2-.2-.3-.4-.6-.5-.2-.1-.5-.2-.8-.2s-.5.1-.8.2m1.9-.5c.3.1.6.3.8.6.2.2.4.5.5.9.1.3.2.7.2 1.1 0 .4-.1.7-.2 1.1-.1.3-.3.6-.5.9-.2.2-.5.4-.8.6-.3 0-.7.1-1.1.1s-.8-.1-1.1-.2c-.3-.1-.6-.3-.8-.6-.2-.3-.4-.5-.5-.9-.1-.3-.2-.7-.2-1.1 0-.4.1-.7.2-1.1.1-.3.3-.6.5-.9.2-.2.5-.4.8-.6.3-.1.7-.2 1.1-.2.4.1.8.2 1.1.3M87.1 40.1v.9c.1-.3.3-.6.6-.8.3-.2.7-.3 1-.3.4 0 .7 0 .9.1.2.1.4.2.6.4.1.2.3.4.3.6.1.2.1.5.1.8v3.4h-.6v-3.3c0-.2 0-.4-.1-.6 0-.2-.1-.4-.2-.5-.1-.1-.2-.3-.4-.3-.1.1-.3 0-.5 0-.3 0-.5 0-.7.1-.2.1-.4.2-.5.4s-.2.3-.3.6c-.1.2-.1.5-.1.7v3h-.6v-5.2h.5zm11 2.4c0 .1-.1.1-.2.2l-.3.1-.8.1c-.3 0-.5.1-.8.2l-.6.3c-.2.1-.2.3-.2.6 0 .2 0 .3.1.4.1.1.1.2.3.3.1.1.2.2.4.2l.4.1c.2 0 .5 0 .7-.1l.6-.3c.2-.1.3-.3.4-.5.1-.2.1-.4.1-.7l-.1-.9zm-3.1-1.5c.1-.2.3-.4.4-.5.2-.1.4-.2.7-.3.2-.1.5-.1.8-.1.2 0 .5 0 .7.1.2 0 .4.1.6.2.2.1.3.3.4.5.1.2.2.5.2.9v2.8c0 .3.1.4.4.4h.2v.5h-.4c-.2 0-.3 0-.4-.1-.1 0-.2-.1-.2-.2-.1-.1-.1-.2-.1-.3v-.4c-.1.2-.2.3-.3.4-.1.1-.2.2-.4.3-.1.1-.3.2-.5.2l-.8.1c-.2 0-.5 0-.7-.1-.2-.1-.4-.1-.6-.3-.2-.1-.3-.3-.4-.5-.1-.2-.1-.4-.1-.7 0-.4.1-.6.2-.9.2-.2.4-.4.6-.5.3-.1.6-.2.9-.2l1-.1c.1 0 .3 0 .4-.1l.3-.1c.1 0 .1-.1.2-.2l.1-.3c0-.2 0-.4-.1-.5l-.3-.3-.4-.2h-.5c-.4 0-.7.1-1 .3-.3.2-.4.5-.4.9h-.6c-.1-.3-.1-.5.1-.7M100.7 40.1v.9c.1-.3.3-.6.6-.8.3-.2.7-.3 1-.3.4 0 .7 0 .9.1.2.1.4.2.6.4.2.2.3.4.3.6.1.2.1.5.1.8v3.4h-.6v-3.3c0-.2 0-.4-.1-.6 0-.2-.1-.4-.2-.5-.1-.1-.2-.3-.4-.3-.2-.1-.4-.1-.6-.1-.3 0-.5 0-.7.1-.2.1-.4.2-.5.4-.1.2-.2.3-.3.6-.1.2-.1.5-.1.7v3h-.6v-5.2l.6.1zm5.4 3.5c.1.3.2.5.3.7s.3.4.5.5c.2.1.5.2.8.2.3 0 .6-.1.9-.2.2-.1.4-.3.6-.5.1-.2.2-.4.3-.7.1-.3.1-.5.1-.8s0-.5-.1-.8-.2-.5-.3-.7c-.1-.2-.3-.4-.6-.5-.2-.1-.5-.2-.9-.2-.3 0-.6.1-.8.2-.2.1-.4.3-.5.5s-.2.4-.3.7-.1.5-.1.8c0 .2 0 .5.1.8m3.5 1.8v-1l-.3.5c-.1.1-.3.3-.5.4-.2.1-.3.2-.5.2-.2.1-.4.1-.6.1-.4 0-.7-.1-1-.2-.3-.1-.5-.3-.7-.6s-.3-.5-.4-.9c-.1-.3-.1-.7-.1-1.1 0-.4 0-.7.1-1.1.1-.3.2-.6.4-.9s.4-.5.7-.6c.3-.1.6-.2 1-.2.2 0 .4 0 .6.1.2 0 .4.1.5.2.2.1.3.2.4.4.1.1.2.3.3.5v-3h.6v7.2h-.5zm7.9-.6c.3 0 .5 0 .7-.1.2 0 .4-.1.6-.2.2-.1.3-.3.4-.5s.2-.4.2-.7c0-.5-.2-.8-.5-1s-.8-.3-1.4-.3h-2.4v2.9h2.4v-.1zm0-3.5c.3 0 .5 0 .7-.1.2-.1.4-.2.5-.3.1-.1.2-.2.3-.4.1-.2.1-.3.1-.5 0-.9-.5-1.4-1.6-1.4h-2.4v2.6l2.4.1zm0-3.2c.3 0 .6 0 .9.1.3.1.5.2.7.3.2.1.4.3.5.5s.2.5.2.8c0 .2 0 .4-.1.5-.1.2-.1.3-.3.5-.1.1-.2.3-.4.4-.2.1-.3.2-.5.2.5.1.8.3 1.1.6.3.3.4.7.4 1.2v.4l-.1.4c-.1.2-.1.3-.3.5-.1.1-.3.3-.5.4-.2.1-.4.2-.7.3-.3.1-.6.1-1 .1h-3.1v-7.2h3.2zm7.2 7.3v-.9c-.2.3-.4.6-.7.8-.3.2-.7.3-1.1.3-.3 0-.6 0-.8-.1-.2-.1-.4-.2-.6-.4-.1-.2-.3-.4-.3-.6-.1-.2-.1-.5-.1-.8v-3.4h.6v3.2c0 .5.1.8.3 1.1.2.2.6.4 1.1.4.3 0 .5-.1.7-.2.2-.1.4-.3.5-.5.1-.2.2-.4.3-.7.1-.3.1-.5.1-.8v-2.7h.6v5.2h-.6v.1zm4.9-4.2l-.3-.4c-.1-.1-.3-.2-.4-.2l-.5-.1h-.4c-.1 0-.3.1-.4.2l-.3.3c-.1.1-.1.3-.1.4 0 .1 0 .3.1.4.1.1.2.2.3.2.1.1.2.1.4.2.1 0 .2.1.4.1l.6.2c.2 0 .4.1.5.1l.5.3c.1.1.3.3.3.4.1.2.1.4.1.6 0 .3-.1.5-.2.7-.1.2-.3.4-.5.5-.2.1-.4.2-.7.3-.2.1-.5.1-.7.1-.6 0-1.1-.1-1.5-.4-.4-.3-.6-.8-.7-1.4h.6c0 .4.2.8.5 1 .3.2.6.3 1.1.3h.5c.2 0 .3-.1.5-.2.1-.1.3-.2.3-.3.1-.1.1-.3.1-.5s0-.3-.1-.4l-.3-.3c-.1-.1-.2-.1-.4-.2l-.4-.1-.8-.2-.6-.2s-.3-.2-.5-.3c-.1-.1-.2-.2-.3-.4-.1-.2-.1-.3-.1-.6s.1-.5.2-.7c.1-.2.3-.3.5-.5l.6-.3c.2-.1.5-.1.7-.1.3 0 .5 0 .7.1l.6.3c.2.1.3.3.4.5.1.2.2.5.2.7l-.5-.1c.1.3 0 .1 0 0M131.5 45.4h.6v-5.2h-.6v5.2zm0-6.2h.6v-1h-.6v1zm2.5.9v.9c.1-.3.3-.6.6-.8.3-.2.7-.3 1-.3.4 0 .7 0 .9.1.2.1.4.2.6.4.1.2.3.4.3.6.1.2.1.5.1.8v3.4h-.5v-3.3c0-.2 0-.4-.1-.6 0-.2-.1-.4-.2-.5-.1-.1-.2-.3-.4-.3-.2-.1-.4-.1-.6-.1-.3 0-.5 0-.7.1-.2.1-.4.2-.5.4-.1.2-.2.3-.3.6-.1.2-.1.5-.1.7v3h-.6v-5.2l.5.1zm8.5 1.6l-.3-.6c-.1-.2-.3-.3-.5-.4-.2-.1-.4-.2-.7-.2-.3 0-.5.1-.7.2-.2.1-.4.2-.5.4-.1.2-.3.4-.3.6l-.2.7h3.4c-.1-.3-.2-.5-.2-.7m-3.2 1.9l.3.7c.1.2.3.4.5.5.2.1.5.2.8.2.5 0 .8-.1 1.1-.4.3-.2.4-.6.5-1h.6c-.1.6-.4 1.1-.7 1.4s-.9.5-1.5.5c-.4 0-.8-.1-1.1-.2-.3-.1-.5-.3-.7-.6-.2-.3-.3-.5-.4-.9-.1-.3-.1-.7-.1-1.1 0-.3 0-.7.1-1s.2-.6.4-.9c.2-.3.4-.5.7-.6.3-.2.7-.2 1.1-.2s.8.1 1.1.3c.3.2.5.4.7.7.2.3.3.6.4.9.1.4.1.7.1 1.1h-4l.1.6m7.8-2.4l-.3-.4c-.1-.1-.3-.2-.4-.2l-.5-.1h-.4c-.1 0-.3.1-.4.2l-.3.3c-.1.1-.1.3-.1.4 0 .1 0 .3.1.4.1.1.2.2.3.2.1.1.2.1.4.2.1 0 .2.1.4.1l.8.2c.2 0 .4.1.5.1l.5.3.3.4c.1.2.1.4.1.6 0 .3-.1.5-.2.7-.1.2-.3.4-.5.5-.2.1-.4.2-.7.3-.2.1-.5.1-.7.1-.6 0-1.1-.1-1.5-.4-.4-.3-.6-.8-.7-1.4h.6c0 .4.2.8.5 1s.6.3 1.1.3h.5c.2 0 .3-.1.5-.2.1-.1.3-.2.3-.3.1-.1.1-.3.1-.5s0-.3-.1-.4l-.3-.3c-.1-.1-.2-.1-.4-.2l-.4-.1-.8-.2-.6-.2-.5-.3c-.1-.1-.2-.2-.3-.4-.1-.2-.1-.3-.1-.6s.1-.5.2-.7c.1-.2.3-.3.5-.5l.6-.3c.2-.1.5-.1.7-.1.3 0 .5 0 .7.1l.6.3c.2.1.3.3.4.5.1.2.2.5.2.7l-.7-.1m5 0l-.3-.4c-.1-.1-.3-.2-.4-.2l-.5-.1h-.4c-.1 0-.3.1-.4.2l-.3.3c-.1.1-.1.3-.1.4 0 .1 0 .3.1.4.1.1.2.2.3.2.1.1.2.1.4.2.1 0 .2.1.4.1l.8.2c.2 0 .4.1.5.1l.5.3c.1.1.3.3.3.4.1.2.1.4.1.6 0 .3-.1.5-.2.7-.1.2-.3.4-.5.5-.2.1-.4.2-.7.3-.2.1-.5.1-.7.1-.6 0-1.1-.1-1.5-.4-.4-.3-.6-.8-.7-1.4h.6c0 .4.2.8.5 1s.6.3 1.1.3h.5c.2 0 .3-.1.5-.2.1-.1.3-.2.3-.3.1-.1.1-.3.1-.5s0-.3-.1-.4l-.3-.3c-.1-.1-.2-.1-.4-.2l-.4-.1-.8-.2-.6-.2-.5-.3c-.1-.1-.2-.2-.3-.4-.1-.2-.1-.3-.1-.6s.1-.5.2-.7c.1-.2.3-.3.5-.5l.6-.3c.2-.1.5-.1.7-.1.3 0 .5 0 .7.1l.6.3c.2.1.3.3.4.5.1.2.2.5.2.7l-.7-.1c.1.3 0 .1 0 0m9.8-1.6c-.1-.2-.3-.4-.5-.6-.2-.1-.4-.3-.7-.3-.2-.1-.5-.1-.8-.1-.5 0-.9.1-1.2.3-.3.2-.6.4-.8.7-.2.3-.4.6-.5 1-.1.4-.2.8-.2 1.2 0 .4.1.8.2 1.2s.3.7.5 1 .5.5.8.7c.3.2.8.3 1.2.3.3 0 .6-.1.9-.2.3-.1.5-.3.7-.5.2-.2.4-.5.5-.7.1-.3.2-.6.2-.9h.7c0 .4-.2.8-.3 1.2-.2.4-.4.7-.6.9l-.9.6c-.3.1-.7.2-1.2.2-.6 0-1.1-.1-1.5-.3s-.8-.5-1.1-.8c-.3-.3-.5-.7-.6-1.2s-.2-.9-.2-1.4.1-1 .2-1.4c.1-.5.4-.8.6-1.2.3-.3.6-.6 1.1-.8.4-.2.9-.3 1.5-.3.3 0 .7.1 1 .2l.9.4c.3.2.5.4.7.7.2.3.3.6.3 1h-.7c0-.5-.1-.7-.2-.9M164.6 40.1v1.2c.2-.4.4-.8.8-1 .3-.2.7-.3 1.2-.3v.6c-.3 0-.6 0-.8.1-.2.1-.4.2-.6.4-.2.2-.3.4-.4.6-.1.2-.1.5-.1.8v2.8h-.7v-5.2h.6zm6 1.6l-.3-.6c-.1-.2-.3-.3-.5-.4-.2-.1-.4-.2-.7-.2-.3 0-.5.1-.7.2-.2.1-.4.2-.5.4-.1.2-.3.4-.3.6s-.1.5-.2.7h3.4c0-.3-.1-.5-.2-.7m-3.1 1.9l.3.7c.1.2.3.4.5.5.2.1.5.2.8.2.5 0 .8-.1 1.1-.4.3-.2.4-.6.5-1h.6c-.1.6-.4 1.1-.7 1.4-.4.3-.9.5-1.5.5-.4 0-.8-.1-1.1-.2-.3-.1-.5-.3-.7-.6-.2-.3-.3-.5-.4-.9-.1-.3-.1-.7-.1-1.1 0-.3 0-.7.1-1s.2-.6.4-.9c.2-.3.4-.5.7-.6.3-.2.7-.2 1.1-.2s.8.1 1.1.3c.3.2.5.4.7.7s.3.6.4.9c.1.4.1.7.1 1.1h-4c0 .2 0 .4.1.6m8.1-1.1c0 .1-.1.1-.2.2l-.3.1-.8.1c-.3 0-.5.1-.8.2l-.6.3c-.2.1-.2.3-.2.6 0 .2 0 .3.1.4.1.1.1.2.3.3.1.1.2.2.4.2l.4.1c.2 0 .5 0 .7-.1l.6-.3c.2-.1.3-.3.4-.5.1-.2.1-.4.1-.7l-.1-.9zm-3.2-1.5c.1-.2.3-.4.4-.5.2-.1.4-.2.7-.3.2-.1.5-.1.8-.1.2 0 .5 0 .7.1.2 0 .4.1.6.2.2.1.3.3.4.5.1.2.2.5.2.9v2.8c0 .3.1.4.4.4h.2v.5h-.4c-.2 0-.3 0-.4-.1-.1 0-.2-.1-.2-.2-.1-.1-.1-.2-.1-.3v-.4c-.1.2-.2.3-.4.4-.1.1-.2.2-.4.3-.1.1-.3.2-.5.2s-.4.1-.6.1c-.2 0-.5 0-.7-.1-.2-.1-.4-.1-.6-.3-.2-.1-.3-.3-.4-.5-.1-.2-.1-.4-.1-.7 0-.4.1-.6.2-.9.2-.2.4-.4.6-.5.3-.1.6-.2.9-.2l1-.1c.1 0 .3 0 .4-.1l.3-.1c.1 0 .1-.1.2-.2l.1-.3c0-.2 0-.4-.1-.5l-.3-.3-.4-.2h-.5c-.4 0-.7.1-1 .3s-.4.5-.4.9h-.6c-.1-.3-.1-.5 0-.7M179.7 40.1v.5h-1.1v3.5c0 .2 0 .4.1.5.1.1.2.2.4.2h.5v.5h-.6c-.4 0-.7-.1-.9-.2-.2-.2-.2-.5-.2-.9v-3.6h-.9v-.5h.9v-1.6h.6v1.6h1.2zm.9 5.3h.6v-5.2h-.6v5.2zm0-6.2h.6v-1h-.6v1zm3.4 1.5c-.2.1-.4.3-.6.5s-.3.4-.3.7c-.1.3-.1.5-.1.8s0 .5.1.8.2.5.3.7c.2.2.3.4.6.5.2.1.5.2.8.2.3 0 .6-.1.8-.2.2-.1.4-.3.6-.5.2-.2.3-.4.3-.7.1-.3.1-.5.1-.8s0-.5-.1-.8c-.1-.3-.2-.5-.3-.7-.2-.2-.3-.4-.6-.5-.3-.1-.5-.2-.8-.2-.4 0-.6.1-.8.2m1.8-.5c.3.1.6.3.8.6.2.2.4.5.5.9.1.3.2.7.2 1.1 0 .4-.1.7-.2 1.1-.1.3-.3.6-.5.9-.2.2-.5.4-.8.6-.3.1-.7.2-1.1.2s-.8-.1-1.1-.2c-.3-.1-.6-.3-.8-.6-.2-.3-.4-.5-.5-.9-.1-.3-.2-.7-.2-1.1 0-.4.1-.7.2-1.1.1-.3.3-.6.5-.9.2-.3.5-.4.8-.6.3-.1.7-.2 1.1-.2s.8.1 1.1.2M188.8 40.1v.9c.1-.3.3-.6.6-.8s.7-.3 1-.3c.4 0 .7 0 .9.1.2.1.4.2.6.4.1.2.3.4.3.6.1.2.1.5.1.8v3.4h-.6v-3.3c0-.2 0-.4-.1-.6 0-.2-.1-.4-.2-.5-.1-.1-.2-.3-.4-.3-.2-.1-.4-.1-.6-.1-.3 0-.5 0-.7.1-.2.1-.4.2-.5.4-.1.2-.2.3-.3.6-.1.2-.1.5-.1.7v3h-.6v-5.2l.6.1zm11.1 2.4c0 .1-.1.1-.2.2l-.3.1-.8.1c-.3 0-.5.1-.8.2l-.6.3c-.2.1-.2.3-.2.6 0 .2 0 .3.1.4.1.1.1.2.3.3.1.1.2.2.4.2l.4.1c.2 0 .5 0 .7-.1l.6-.3c.2-.1.3-.3.4-.5.1-.2.1-.4.1-.7l-.1-.9zm-3.2-1.5c.1-.2.3-.4.4-.5.2-.1.4-.2.7-.3.2-.1.5-.1.8-.1.2 0 .5 0 .7.1.2 0 .4.1.6.2.2.1.3.3.4.5.1.2.2.5.2.9v2.8c0 .3.1.4.4.4h.2v.5h-.4c-.2 0-.3 0-.4-.1-.1 0-.2-.1-.2-.2-.1-.1-.1-.2-.1-.3v-.4c-.1.2-.2.3-.3.4l-.4.3c-.1.1-.3.2-.5.2s-.4.1-.7.1c-.2 0-.5 0-.7-.1-.2-.1-.4-.1-.6-.3-.2-.1-.3-.3-.4-.5-.1-.2-.1-.4-.1-.7 0-.4.1-.6.2-.9.2-.2.4-.4.6-.5.3-.1.6-.2.9-.2l1-.1c.1 0 .3 0 .4-.1l.3-.1c.1 0 .1-.1.2-.2l.1-.3c0-.2 0-.4-.1-.5l-.3-.3-.4-.2h-.5c-.4 0-.7.1-1 .3-.3.2-.4.5-.4.9h-.6c-.2-.3-.1-.5 0-.7M203.9 40.1v.5h-1.1v3.5c0 .2 0 .4.1.5.1.1.2.2.4.2h.5v.5h-.6c-.4 0-.7-.1-.9-.2-.2-.2-.2-.5-.2-.9v-3.6h-.9v-.5h.9v-1.6h.6v1.6h1.2zm8.9-2v.6h-2.5v6.7h-.7v-6.7h-2.5v-.6h5.7zm1.3 0v4.5c0 .4 0 .8.1 1.1s.2.5.4.7c.2.2.4.3.7.4.3.1.6.1.9.1.3 0 .6 0 .9-.1.3-.1.5-.2.7-.4.2-.2.3-.4.4-.7s.1-.6.1-1.1v-4.5h.7v4.6c0 .4-.1.7-.2 1.1-.1.3-.3.6-.5.9-.2.2-.5.4-.9.6-.4.1-.8.2-1.3.2s-.9-.1-1.3-.2-.6-.3-.9-.6c-.2-.3-.4-.5-.5-.9-.1-.3-.2-.7-.2-1.1v-4.6h.9zm7.4 0l2.5 6.4 2.4-6.4h1.1v7.3h-.7v-6.3l-2.5 6.3h-.7l-2.4-6.3h-.1v6.3h-.6v-7.3h1zm-212.1-4.7v-2.3c-.2.2-.3.5-.8.9-1 .9-2.3 1.5-3.7 1.5s-2.9-.6-3.7-1.8c-.9-1.2-1-2.6-1-4v-19.2h2.1v18.4c0 1.5.1 3.7 1.9 4.5.2.1.7.3 1.4.3.6 0 2.1-.2 3-1.5.4-.5.6-1.1.8-1.7v-20h2.1v24.9h-2.1zm17.9 0v-19.9c0-.2 0-.9-.2-1.5s-1-1.9-2.8-1.9c-1.4 0-2.7.7-3.5 1.9-.2.3-.3.5-.6 1.2v20.2h-2.2v-24.9h2v2.4c.4-.6.7-.9.9-1.2 1.3-1.3 3-1.5 3.7-1.5 2 .1 3.9 1 4.5 3.2.2.7.2 1.3.2 2v20h-2zm9.1-.8c-.5-.6-.6-1.2-.6-2v-20.1h-2.6v-2h2.6v-6.4h2.1v6.4h3.8v2h-3.8v19.6c0 1.4 1.4 1.4 1.9 1.4.6 0 1.2 0 1.9-.1v2c-2.8.2-4.4.2-5.3-.8m17.9-17.7c0-2.2-.5-3.3-1.4-3.9-.3-.2-1.1-.7-2.2-.7-.3 0-1.3 0-2.2.7-1.3 1-1.4 2.6-1.4 4.1v4.4h7.2v-4.6zm1.1 16.6c-1.5 2-3.9 2-4.7 2-.7 0-1.5-.1-2.1-.3s-2.4-1-3.1-3c-.3-.7-.4-1.3-.4-2.8v-13.1c0-.4 0-1.3.3-2.3.4-1.4 1.7-3.6 5.3-3.6 2.7 0 4.1 1.2 4.8 2.2 1 1.6 1 3.8 1 5.6v5h-9.3v6.1c0 .2 0 1 .2 1.8.3 1 1 2.4 3.5 2.4.3 0 1.6 0 2.5-.9.1-.2.5-.5.7-1.1.4-1.1.3-2.4.3-4.8h2.1v2.8c0 1.6-.2 2.7-1.1 4m11.9-20c-2 1.2-3 3.9-3.2 4.4v17.6h-2.1v-25h2v4.4c.5-1.2.9-1.7 1.5-2.3.9-.9 1.7-1.7 3.7-2.7v2.8c-.6.2-1.3.4-1.9.8M82.7 33.4v-19.9c0-.2 0-.9-.2-1.5s-1-1.9-2.8-1.9c-1.4 0-2.7.7-3.5 1.9-.2.3-.3.5-.6 1.2v20.2h-2.1v-24.9h2.1v2.4c.4-.6.7-.9.9-1.2 1.3-1.3 3-1.5 3.7-1.5 2 .1 3.9 1 4.5 3.2.2.7.2 1.3.2 2v20h-2.2zm16.8-18.5c0-2.2-.5-3.3-1.4-3.9-.3-.2-1.1-.7-2.2-.7-.3 0-1.3 0-2.2.7-1.3 1-1.4 2.6-1.4 4.1v4.4h7.2v-4.6zm1.1 16.6c-1.5 2-3.9 2-4.7 2-.7 0-1.5-.1-2.1-.3-.6-.2-2.4-1-3.1-3-.3-.7-.4-1.3-.4-2.8v-13.1c0-.4 0-1.3.3-2.3.4-1.4 1.7-3.6 5.3-3.6 2.7 0 4.1 1.2 4.8 2.2 1 1.6 1 3.8 1 5.6v5h-9.3v6.1c0 .2 0 1 .2 1.8.3 1 1 2.4 3.5 2.4.3 0 1.6 0 2.5-.9.1-.2.5-.5.7-1.1.4-1.1.3-2.4.3-4.8h2.1v2.8c0 1.6-.2 2.7-1.1 4M116.7 33.4v-18.4c0-1.8 0-3.9-2.2-4.5-.1 0-.6-.1-1.1-.1-2.1 0-3.2 1.5-3.5 2.1-.3.5-.4 1.1-.4 1.2v19.8h-2.1v-35h2.1v12c.4-.4 1.1-1.3 2.5-1.9.8-.3 1.6-.3 1.9-.3.9 0 1.4.2 1.8.3.8.3 2.2.9 2.8 3 .2.8.2 1.3.2 2.1v19.7h-2zm26.6 0v-17.8c0-2.8 0-4.2-1.4-5-.2-.1-.9-.4-1.7-.4-1.4 0-2.5.6-3.3 1.6-.5.7-.6 1.1-.8 1.4v20.1h-2.1v-19.5c0-.1 0-1-.2-1.5-.4-1.3-1.6-2.1-3-2.1-1.6 0-2.7.9-3 1.3-.4.4-.5.6-1 1.4v20.5h-2.1v-24.9h2.1v2.1c.3-.4.6-.7.8-.8.5-.4 2-1.5 3.9-1.5 2.9.1 3.8 2.1 4.3 3 .5-.8 2-3 5-3 .8 0 3 .2 4.1 2.5.6 1.2.6 2.5.6 5.1v17.6l-2.2-.1zm17-18.5c0-2.2-.5-3.3-1.4-3.9-.3-.2-1.1-.7-2.2-.7-.3 0-1.3 0-2.2.7-1.3 1-1.4 2.6-1.4 4.1v4.4h7.2v-4.6zm1 16.6c-1.5 2-3.9 2-4.7 2-.7 0-1.5-.1-2.1-.3-.6-.2-2.4-1-3.1-3-.3-.7-.4-1.3-.4-2.8v-13.1c0-.4 0-1.3.3-2.3.4-1.4 1.7-3.6 5.3-3.6 2.7 0 4.1 1.2 4.8 2.2 1 1.6 1 3.8 1 5.6v5h-9.3v6.1c0 .2 0 1 .2 1.8.3 1 1 2.4 3.5 2.4.3 0 1.6 0 2.5-.9.1-.2.5-.5.7-1.1.4-1.1.3-2.4.3-4.8h2.1v2.8c0 1.6-.2 2.7-1.1 4m12-20c-2 1.2-3 3.9-3.2 4.4v17.6h-2.1v-25h2v4.4c.5-1.2.9-1.7 1.5-2.3.9-.9 1.7-1.7 3.7-2.7v2.8c-.6.2-1.4.4-1.9.8"/><path class="st1" d="M180.3 32.6c-.5-.6-.6-1.2-.6-2v-20.1h-2.6v-2h2.6v-6.4h2.1v6.4h3.8v2h-3.8v19.6c0 1.4 1.4 1.4 1.9 1.4.6 0 1.2 0 1.9-.1v2c-2.7.2-4.4.2-5.3-.8"/><path class="st1" d="M198.6 33.4v-2.3c-.2.2-.3.5-.8.9-1 .9-2.3 1.5-3.7 1.5s-2.9-.6-3.7-1.8c-.9-1.2-1-2.6-1-4v-19.2h2.1v18.4c0 1.5.1 3.7 1.9 4.5.2.1.7.3 1.4.3.6 0 2.1-.2 3-1.5.3-.5.6-1.1.8-1.7v-20h2.1v24.9h-2.1zm26.9 0v-17.8c0-2.8 0-4.2-1.4-5-.2-.1-.9-.4-1.7-.4-1.4 0-2.5.6-3.3 1.6-.5.7-.6 1.1-.8 1.4v20.1h-2.1v-19.5c0-.1 0-1-.2-1.5-.4-1.3-1.6-2.1-3-2.1-1.6 0-2.7.9-3 1.3-.4.4-.5.6-1 1.4v20.5h-2v-24.9h2.1v2.1c.3-.4.6-.7.8-.8.5-.4 2-1.5 3.9-1.5 2.9.1 3.8 2.1 4.3 3 .5-.8 2-3 5-3 .8 0 3 .2 4.1 2.5.6 1.2.6 2.5.6 5.1v17.6l-2.3-.1z"/></svg>